%TF.GenerationSoftware,KiCad,Pcbnew,8.0.6*%
%TF.CreationDate,2024-11-11T19:10:45+01:00*%
%TF.ProjectId,panel,70616e65-6c2e-46b6-9963-61645f706362,rev?*%
%TF.SameCoordinates,Original*%
%TF.FileFunction,Profile,NP*%
%FSLAX46Y46*%
G04 Gerber Fmt 4.6, Leading zero omitted, Abs format (unit mm)*
G04 Created by KiCad (PCBNEW 8.0.6) date 2024-11-11 19:10:45*
%MOMM*%
%LPD*%
G01*
G04 APERTURE LIST*
%TA.AperFunction,Profile*%
%ADD10C,0.050000*%
%TD*%
%TA.AperFunction,Profile*%
%ADD11C,0.200000*%
%TD*%
G04 APERTURE END LIST*
D10*
X132820000Y-71765000D02*
X132820000Y-76765000D01*
X137820000Y-71765000D02*
X132820000Y-71765000D01*
X137820000Y-76765000D02*
X132820000Y-76765000D01*
X132820000Y-99960000D02*
X132820000Y-95115000D01*
X137820000Y-95115000D02*
X132820000Y-95115000D01*
X137820000Y-99960000D02*
X132820000Y-99960000D01*
X155420000Y-71765000D02*
X137820000Y-71765000D01*
X104420000Y-76765000D02*
X125560000Y-76765000D01*
X173790000Y-72040000D02*
X169530000Y-72040000D01*
X160420000Y-72040000D02*
X160420000Y-64050000D01*
X163785000Y-62470000D02*
G75*
G02*
X161785000Y-62470000I-1000000J0D01*
G01*
X161785000Y-62470000D02*
G75*
G02*
X163785000Y-62470000I1000000J0D01*
G01*
X173790000Y-95115000D02*
X172179514Y-95115000D01*
X160420000Y-58980000D02*
X160420000Y-52060000D01*
X165100000Y-95115000D02*
X160420000Y-95115000D01*
X173790000Y-72040000D02*
X173790000Y-52060000D01*
X107079514Y-141059514D02*
X107079514Y-100860486D01*
X107079514Y-100860486D02*
G75*
G02*
X107980000Y-99960000I900509J-23D01*
G01*
X172425000Y-62470000D02*
G75*
G02*
X170425000Y-62470000I-1000000J0D01*
G01*
X170425000Y-62470000D02*
G75*
G02*
X172425000Y-62470000I1000000J0D01*
G01*
X165100000Y-99960000D02*
X137820000Y-99960000D01*
X107980000Y-99960000D02*
X125560000Y-99960000D01*
X172179514Y-95115000D02*
X169510000Y-95115000D01*
X173080000Y-141060000D02*
X173080000Y-100860486D01*
X172425000Y-85545000D02*
G75*
G02*
X170425000Y-85545000I-1000000J0D01*
G01*
X170425000Y-85545000D02*
G75*
G02*
X172425000Y-85545000I1000000J0D01*
G01*
X125560000Y-71770000D02*
X104420000Y-71770000D01*
X125560000Y-99960000D02*
X125560000Y-95120000D01*
X107980000Y-141960000D02*
G75*
G02*
X107079514Y-141059514I-11J900475D01*
G01*
X169510000Y-99960000D02*
X169510000Y-95120000D01*
X173080000Y-141060000D02*
G75*
G02*
X172179514Y-141960500I-900500J0D01*
G01*
X141860000Y-85775000D02*
G75*
G02*
X139860000Y-85775000I-1000000J0D01*
G01*
X139860000Y-85775000D02*
G75*
G02*
X141860000Y-85775000I1000000J0D01*
G01*
X173790000Y-52060000D02*
X160420000Y-52060000D01*
X165050000Y-75135000D02*
X160420000Y-75135000D01*
X155420000Y-58980000D02*
X160420000Y-58980000D01*
X155420000Y-76765000D02*
X137820000Y-76765000D01*
X148060000Y-103745000D02*
G75*
G02*
X146060000Y-103745000I-1000000J0D01*
G01*
X146060000Y-103745000D02*
G75*
G02*
X148060000Y-103745000I1000000J0D01*
G01*
X107980000Y-141960000D02*
X172179514Y-141960000D01*
X169530000Y-72040000D02*
X169530000Y-75135000D01*
X173790000Y-95115000D02*
X173790000Y-75135000D01*
X163785000Y-85545000D02*
G75*
G02*
X161785000Y-85545000I-1000000J0D01*
G01*
X161785000Y-85545000D02*
G75*
G02*
X163785000Y-85545000I1000000J0D01*
G01*
X165050000Y-75135000D02*
X165050000Y-72040000D01*
X165050000Y-72040000D02*
X160420000Y-72040000D01*
X148060000Y-139005000D02*
G75*
G02*
X146060000Y-139005000I-1000000J0D01*
G01*
X146060000Y-139005000D02*
G75*
G02*
X148060000Y-139005000I1000000J0D01*
G01*
X104420000Y-95115000D02*
X104420000Y-76765000D01*
X172179514Y-99960000D02*
G75*
G02*
X173080000Y-100860486I-14J-900500D01*
G01*
X160420000Y-95115000D02*
X160420000Y-75135000D01*
X104420000Y-71770000D02*
X104420000Y-53420000D01*
X172179514Y-99960000D02*
X169510000Y-99960000D01*
X104420000Y-53420000D02*
X155420000Y-53420000D01*
X165100000Y-99960000D02*
X165100000Y-95115000D01*
X155420000Y-64050000D02*
X155420000Y-71770000D01*
X141870000Y-62490000D02*
G75*
G02*
X139870000Y-62490000I-1000000J0D01*
G01*
X139870000Y-62490000D02*
G75*
G02*
X141870000Y-62490000I1000000J0D01*
G01*
X155420000Y-76765000D02*
X155420000Y-95115000D01*
X155420000Y-95115000D02*
X137820000Y-95115000D01*
X125560000Y-95120000D02*
X104420000Y-95120000D01*
X173790000Y-75135000D02*
X169530000Y-75135000D01*
X155420000Y-53420000D02*
X155420000Y-58980000D01*
X155420000Y-64050000D02*
X160420000Y-64050000D01*
X125560000Y-76765000D02*
X125560000Y-71770000D01*
D11*
%TO.C,J3*%
X111614926Y-110160000D02*
G75*
G02*
X108114926Y-110160000I-1750000J0D01*
G01*
X108114926Y-110160000D02*
G75*
G02*
X111614926Y-110160000I1750000J0D01*
G01*
X111614926Y-132010000D02*
G75*
G02*
X108114926Y-132010000I-1750000J0D01*
G01*
X108114926Y-132010000D02*
G75*
G02*
X111614926Y-132010000I1750000J0D01*
G01*
%TD*%
M02*
