%TF.GenerationSoftware,KiCad,Pcbnew,8.0.6*%
%TF.CreationDate,2024-11-11T19:10:45+01:00*%
%TF.ProjectId,panel,70616e65-6c2e-46b6-9963-61645f706362,rev?*%
%TF.SameCoordinates,Original*%
%TF.FileFunction,Paste,Top*%
%TF.FilePolarity,Positive*%
%FSLAX46Y46*%
G04 Gerber Fmt 4.6, Leading zero omitted, Abs format (unit mm)*
G04 Created by KiCad (PCBNEW 8.0.6) date 2024-11-11 19:10:45*
%MOMM*%
%LPD*%
G01*
G04 APERTURE LIST*
G04 Aperture macros list*
%AMRoundRect*
0 Rectangle with rounded corners*
0 $1 Rounding radius*
0 $2 $3 $4 $5 $6 $7 $8 $9 X,Y pos of 4 corners*
0 Add a 4 corners polygon primitive as box body*
4,1,4,$2,$3,$4,$5,$6,$7,$8,$9,$2,$3,0*
0 Add four circle primitives for the rounded corners*
1,1,$1+$1,$2,$3*
1,1,$1+$1,$4,$5*
1,1,$1+$1,$6,$7*
1,1,$1+$1,$8,$9*
0 Add four rect primitives between the rounded corners*
20,1,$1+$1,$2,$3,$4,$5,0*
20,1,$1+$1,$4,$5,$6,$7,0*
20,1,$1+$1,$6,$7,$8,$9,0*
20,1,$1+$1,$8,$9,$2,$3,0*%
G04 Aperture macros list end*
%ADD10RoundRect,0.150000X0.150000X0.200000X-0.150000X0.200000X-0.150000X-0.200000X0.150000X-0.200000X0*%
%ADD11RoundRect,0.135000X0.185000X-0.135000X0.185000X0.135000X-0.185000X0.135000X-0.185000X-0.135000X0*%
%ADD12RoundRect,0.225000X-0.225000X-0.250000X0.225000X-0.250000X0.225000X0.250000X-0.225000X0.250000X0*%
%ADD13RoundRect,0.135000X0.135000X0.185000X-0.135000X0.185000X-0.135000X-0.185000X0.135000X-0.185000X0*%
%ADD14RoundRect,0.150000X-0.512500X-0.150000X0.512500X-0.150000X0.512500X0.150000X-0.512500X0.150000X0*%
%ADD15R,0.400000X1.000000*%
%ADD16R,0.400000X1.100000*%
%ADD17RoundRect,0.135000X-0.185000X0.135000X-0.185000X-0.135000X0.185000X-0.135000X0.185000X0.135000X0*%
%ADD18RoundRect,0.225000X0.250000X-0.225000X0.250000X0.225000X-0.250000X0.225000X-0.250000X-0.225000X0*%
%ADD19R,0.254000X0.660400*%
%ADD20R,1.447800X0.762000*%
%ADD21R,0.750000X0.300000*%
%ADD22R,0.250000X0.550000*%
%ADD23RoundRect,0.225000X-0.250000X0.225000X-0.250000X-0.225000X0.250000X-0.225000X0.250000X0.225000X0*%
%ADD24RoundRect,0.150000X0.150000X-0.512500X0.150000X0.512500X-0.150000X0.512500X-0.150000X-0.512500X0*%
G04 APERTURE END LIST*
D10*
%TO.C,D1*%
X166538000Y-84975000D03*
X167938000Y-84975000D03*
%TD*%
D11*
%TO.C,R2*%
X166598000Y-87565000D03*
X166598000Y-86545000D03*
%TD*%
%TO.C,R1*%
X167568000Y-87555000D03*
X167568000Y-86535000D03*
%TD*%
D12*
%TO.C,C11*%
X146505000Y-121550000D03*
X148055000Y-121550000D03*
%TD*%
D13*
%TO.C,R2*%
X150390000Y-128750000D03*
X149370000Y-128750000D03*
%TD*%
D14*
%TO.C,U5*%
X146767500Y-118087500D03*
X146767500Y-119037500D03*
X146767500Y-119987500D03*
X149042500Y-119987500D03*
X149042500Y-118087500D03*
%TD*%
D13*
%TO.C,R3*%
X148340000Y-128750000D03*
X147320000Y-128750000D03*
%TD*%
D12*
%TO.C,C10*%
X150705000Y-120000000D03*
X152255000Y-120000000D03*
%TD*%
D15*
%TO.C,U2*%
X114010400Y-87040000D03*
X114760400Y-87040000D03*
X115510400Y-87040000D03*
D16*
X115510400Y-84890000D03*
X114760400Y-84890000D03*
X114010400Y-84890000D03*
%TD*%
D11*
%TO.C,R1*%
X109000000Y-83292500D03*
X109000000Y-82272500D03*
%TD*%
D17*
%TO.C,R3*%
X120295000Y-82272500D03*
X120295000Y-83292500D03*
%TD*%
D12*
%TO.C,C5*%
X119520000Y-88795000D03*
X121070000Y-88795000D03*
%TD*%
D18*
%TO.C,C1*%
X110340000Y-83010000D03*
X110340000Y-81460000D03*
%TD*%
D12*
%TO.C,C2*%
X108215000Y-88795000D03*
X109765000Y-88795000D03*
%TD*%
%TO.C,C4*%
X113975000Y-90265000D03*
X115525000Y-90265000D03*
%TD*%
D19*
%TO.C,U3*%
X119645001Y-86694500D03*
X120295000Y-86694500D03*
X120944999Y-86694500D03*
X120944999Y-84637100D03*
X120295000Y-84637100D03*
X119645001Y-84637100D03*
D20*
X120295000Y-85665800D03*
%TD*%
D12*
%TO.C,C3*%
X113975000Y-88795000D03*
X115525000Y-88795000D03*
%TD*%
D21*
%TO.C,U4*%
X145262500Y-85435000D03*
X145262500Y-86235000D03*
X146912500Y-86235000D03*
X146912500Y-85435000D03*
%TD*%
D17*
%TO.C,R2*%
X114770000Y-82272500D03*
X114770000Y-83292500D03*
%TD*%
D22*
%TO.C,U1*%
X108495000Y-87127500D03*
X108995000Y-87127500D03*
X109495000Y-87127500D03*
X109495000Y-84377500D03*
X108995000Y-84377500D03*
X108495000Y-84377500D03*
%TD*%
D23*
%TO.C,C6*%
X148080000Y-85060000D03*
X148080000Y-86610000D03*
%TD*%
D24*
%TO.C,U1*%
X146410000Y-63727500D03*
X148310000Y-63727500D03*
X147360000Y-61452500D03*
%TD*%
D11*
%TO.C,R1*%
X167568000Y-64480000D03*
X167568000Y-63460000D03*
%TD*%
%TO.C,R2*%
X166598000Y-64490000D03*
X166598000Y-63470000D03*
%TD*%
D10*
%TO.C,D1*%
X166538000Y-61900000D03*
X167938000Y-61900000D03*
%TD*%
M02*
