M48
; DRILL file {KiCad 8.0.6} date 2024-11-11T19:10:45+0100
; FORMAT={-:-/ absolute / inch / decimal}
; #@! TF.CreationDate,2024-11-11T19:10:45+01:00
; #@! TF.GenerationSoftware,Kicad,Pcbnew,8.0.6
; #@! TF.FileFunction,Plated,1,2,PTH
FMAT,2
INCH
; #@! TA.AperFunction,Plated,PTH,ViaDrill
T1C0.0118
; #@! TA.AperFunction,Plated,PTH,ComponentDrill
T2C0.0315
; #@! TA.AperFunction,Plated,PTH,ComponentDrill
T3C0.0335
; #@! TA.AperFunction,Plated,PTH,ComponentDrill
T4C0.0394
; #@! TA.AperFunction,Plated,PTH,ComponentDrill
T5C0.0461
; #@! TA.AperFunction,Plated,PTH,ComponentDrill
T6C0.0492
%
G90
G05
T1
X4.3376Y-5.4045
X4.3376Y-5.4439
X4.3376Y-5.4833
X4.3378Y-5.5232
X4.3378Y-5.5626
X4.377Y-5.4045
X4.377Y-5.4439
X4.377Y-5.4833
X4.3772Y-5.5232
X4.3772Y-5.5626
X4.4154Y-5.4437
X4.4154Y-5.4831
X4.4155Y-5.523
X4.4155Y-5.5624
X4.4163Y-5.4043
X4.4547Y-5.4043
X4.4547Y-5.4437
X4.4547Y-5.4831
X4.4549Y-5.523
X4.4549Y-5.5624
X4.4618Y-3.3763
X4.4709Y-4.8118
X4.4941Y-5.4043
X4.4941Y-5.4437
X4.4941Y-5.4831
X4.4943Y-5.523
X4.4943Y-5.5624
X4.4955Y-3.3855
X4.5174Y-3.3052
X4.5335Y-5.4043
X4.5335Y-5.4437
X4.5335Y-5.4831
X4.5336Y-5.523
X4.5336Y-5.5624
X4.5435Y-3.3881
X4.5731Y-5.4045
X4.5731Y-5.4439
X4.5731Y-5.4833
X4.5732Y-5.5232
X4.5732Y-5.5626
X4.5925Y-4.7839
X4.6114Y-5.4437
X4.6114Y-5.4831
X4.6116Y-5.523
X4.6116Y-5.5624
X4.6124Y-5.4043
X4.6173Y-3.5254
X4.6177Y-3.4116
X4.6508Y-5.4043
X4.6508Y-5.4437
X4.6508Y-5.4831
X4.6509Y-5.523
X4.6509Y-5.5624
X4.67Y-4.847
X4.6708Y-5.1352
X4.6902Y-5.4043
X4.6902Y-5.4437
X4.6902Y-5.4831
X4.6903Y-5.523
X4.6903Y-5.5624
X4.6949Y-4.8067
X4.7295Y-5.4043
X4.7295Y-5.4437
X4.7295Y-5.4831
X4.7297Y-5.523
X4.7297Y-5.5624
X4.7492Y-5.1008
X4.7497Y-3.6241
X4.7575Y-4.4854
X4.7764Y-4.7679
X4.789Y-4.248
X4.8082Y-3.3904
X4.8339Y-3.3616
X4.8378Y-3.5774
X4.8594Y-4.361
X4.876Y-4.5292
X4.8807Y-4.7224
X4.8831Y-4.563
X4.8852Y-4.4947
X4.8865Y-5.0095
X4.8949Y-4.6831
X4.9305Y-4.6167
X4.9625Y-4.4914
X4.9713Y-4.0287
X4.9713Y-4.0681
X4.9724Y-4.7465
X4.9874Y-4.6654
X5.0106Y-4.0287
X5.0106Y-4.0681
X5.0294Y-4.6324
X5.049Y-4.0679
X5.05Y-4.0285
X5.0744Y-5.0768
X5.0744Y-5.1161
X5.0744Y-5.1555
X5.0883Y-4.0285
X5.0883Y-4.0679
X5.1138Y-5.0768
X5.1138Y-5.1161
X5.1138Y-5.1555
X5.1277Y-4.0285
X5.1277Y-4.0679
X5.1396Y-4.5209
X5.1531Y-5.0768
X5.1531Y-5.1161
X5.1531Y-5.1555
X5.1671Y-4.0285
X5.1671Y-4.0679
X5.1928Y-5.077
X5.1928Y-5.1163
X5.1928Y-5.1557
X5.2067Y-4.0287
X5.2067Y-4.0681
X5.2138Y-4.9646
X5.2311Y-5.1161
X5.2311Y-5.1555
X5.2321Y-5.0768
X5.245Y-4.0679
X5.246Y-4.0285
X5.2531Y-4.9646
X5.2705Y-5.0768
X5.2705Y-5.1161
X5.2705Y-5.1555
X5.2844Y-4.0285
X5.2844Y-4.0679
X5.2925Y-4.9646
X5.3043Y-4.6299
X5.3098Y-5.0768
X5.3098Y-5.1161
X5.3098Y-5.1555
X5.3181Y-4.1811
X5.3238Y-4.0285
X5.3238Y-4.0679
X5.3321Y-4.9648
X5.3437Y-4.6299
X5.3492Y-5.0768
X5.3492Y-5.1161
X5.3492Y-5.1555
X5.3556Y-4.8238
X5.3631Y-4.0285
X5.3631Y-4.0679
X5.3715Y-4.9646
X5.3831Y-4.6299
X5.3923Y-4.8538
X5.4098Y-4.9646
X5.4406Y-4.0457
X5.4447Y-4.6979
X5.4492Y-4.9646
X5.4598Y-4.185
X5.4669Y-4.8184
X5.4682Y-5.2141
X5.4691Y-5.1567
X5.471Y-5.0467
X5.472Y-4.9077
X5.4726Y-5.1237
X5.4957Y-4.3972
X5.5687Y-4.8121
X5.6823Y-2.4992
X5.6984Y-4.7317
X5.7Y-4.5709
X5.7138Y-4.9094
X5.7197Y-4.6476
X5.7295Y-4.7638
X5.7433Y-4.9094
X5.761Y-5.0689
X5.7728Y-4.4193
X5.7778Y-4.941
X5.8299Y-4.8642
X5.8571Y-3.4102
X5.8594Y-4.7854
X5.8673Y-4.685
X5.8736Y-3.9646
X5.901Y-4.1841
X5.901Y-4.2234
X5.9077Y-4.627
X5.9303Y-4.7984
X5.9307Y-4.7701
X5.9404Y-4.1841
X5.9404Y-4.2234
X5.9654Y-4.7701
X5.9654Y-4.7996
X5.9697Y-4.6437
X5.9776Y-4.3622
X5.98Y-4.1843
X5.98Y-4.2236
X5.9802Y-4.2636
X6.0183Y-4.1841
X6.0183Y-4.2234
X6.0185Y-4.2634
X6.0577Y-4.1841
X6.0577Y-4.2234
X6.0971Y-4.1841
X6.1469Y-4.3622
X6.1843Y-4.3622
X6.1882Y-5.2205
X6.2217Y-4.3622
X6.2435Y-5.3209
X6.245Y-5.46
X6.2925Y-4.126
X6.376Y-5.4776
X6.376Y-5.5169
X6.376Y-5.5563
X6.3949Y-4.4488
X6.4154Y-5.5169
X6.4154Y-5.5563
X6.4164Y-4.2407
X6.4164Y-4.2801
X6.4244Y-4.2044
X6.4323Y-4.4488
X6.4537Y-5.5167
X6.4537Y-5.5561
X6.4554Y-4.3215
X6.4557Y-4.2407
X6.4557Y-4.2801
X6.4697Y-4.4488
X6.4698Y-4.1606
X6.4931Y-5.5167
X6.4931Y-5.5561
X6.4941Y-4.2406
X6.4941Y-4.2799
X6.4947Y-4.3215
X6.5192Y-2.5531
X6.5192Y-3.4616
X6.5324Y-5.5167
X6.5324Y-5.5561
X6.5331Y-4.3213
X6.5335Y-4.2406
X6.5335Y-4.2799
X6.559Y-2.5807
X6.559Y-3.4892
X6.5718Y-5.5167
X6.5718Y-5.5561
X6.5724Y-4.3213
X6.5728Y-4.2406
X6.5728Y-4.2799
X6.5986Y-2.5794
X6.5986Y-3.4879
X6.6055Y-5.2921
X6.6055Y-5.3311
X6.6055Y-5.3701
X6.6114Y-5.5169
X6.6114Y-5.5563
X6.6118Y-4.3213
X6.6122Y-4.2406
X6.6122Y-4.2799
X6.6291Y-5.2913
X6.6291Y-5.3307
X6.6291Y-5.3701
X6.6498Y-5.5167
X6.6498Y-5.5561
X6.6518Y-4.2407
X6.6518Y-4.2801
X6.6891Y-5.4774
X6.6891Y-5.5167
X6.6891Y-5.5561
X6.7285Y-5.4774
X6.7285Y-5.5167
X6.7285Y-5.5561
X6.7679Y-5.4774
X6.7679Y-5.5167
X6.7679Y-5.5561
T2
X5.0268Y-4.3484
X5.1268Y-4.3484
X5.2268Y-4.3484
X5.3268Y-4.3484
X5.8183Y-4.2815
X5.9167Y-4.2815
T3
X5.8969Y-4.8346
X5.8969Y-4.9331
X5.8972Y-5.1457
X5.8972Y-5.2441
X6.5297Y-2.2681
X6.5297Y-3.1766
X6.6281Y-2.2681
X6.6281Y-3.1766
T4
X4.1594Y-3.0801
X4.1594Y-3.1801
X4.1594Y-3.2801
X4.1594Y-3.3801
X4.1594Y-3.4801
X4.1594Y-3.5801
X4.1594Y-3.6801
X4.1602Y-2.1608
X4.1602Y-2.2608
X4.1602Y-2.3608
X4.1602Y-2.4608
X4.1602Y-2.5608
X4.1602Y-2.6608
X4.1602Y-2.7608
X4.2711Y-4.6122
X4.2711Y-4.7122
X4.2711Y-4.8122
X4.2711Y-4.9122
X4.3939Y-4.1083
X4.3988Y-4.6126
X4.3988Y-4.7126
X4.3988Y-4.8126
X4.3988Y-4.9126
X4.4939Y-4.1083
X4.5181Y-3.1234
X4.5728Y-5.2169
X4.5728Y-5.3169
X4.6882Y-4.1929
X4.828Y-4.1929
X4.9677Y-4.1949
X5.1075Y-4.1929
X5.115Y-3.2339
X5.115Y-3.5331
X5.2472Y-4.1929
X5.387Y-4.1949
X5.5287Y-4.1949
X6.1024Y-5.5079
X6.1409Y-4.0866
X6.2024Y-5.5079
X6.2409Y-4.0866
X6.3024Y-5.5079
X6.3409Y-4.0866
X6.4409Y-4.0866
X6.5409Y-4.0866
X6.6409Y-4.0866
X6.6606Y-4.463
X6.6606Y-4.563
X6.6606Y-4.663
X6.6606Y-4.763
X6.6606Y-4.863
X6.6606Y-4.963
X6.6606Y-5.063
X6.7409Y-4.0866
T5
X6.4089Y-2.6915
X6.4089Y-3.6
X6.749Y-2.6915
X6.749Y-3.6
T6
X4.5888Y-2.2334
X4.5888Y-2.7255
X4.7856Y-2.2334
X4.7856Y-2.7255
X5.0927Y-2.2338
X5.0927Y-2.7259
X5.2896Y-2.2338
X5.2896Y-2.7259
X6.072Y-4.4117
X6.072Y-4.6086
X6.072Y-4.9158
X6.072Y-5.1127
X6.4884Y-2.7478
X6.4884Y-3.6563
X6.5642Y-4.4117
X6.5642Y-4.6086
X6.5642Y-4.9158
X6.5642Y-5.1127
X6.6695Y-2.7478
X6.6695Y-3.6563
M30
