%TF.GenerationSoftware,KiCad,Pcbnew,8.0.6*%
%TF.CreationDate,2024-11-11T19:11:30+01:00*%
%TF.ProjectId,touch-pad,746f7563-682d-4706-9164-2e6b69636164,rev?*%
%TF.SameCoordinates,Original*%
%TF.FileFunction,Copper,L2,Bot*%
%TF.FilePolarity,Positive*%
%FSLAX46Y46*%
G04 Gerber Fmt 4.6, Leading zero omitted, Abs format (unit mm)*
G04 Created by KiCad (PCBNEW 8.0.6) date 2024-11-11 19:11:30*
%MOMM*%
%LPD*%
G01*
G04 APERTURE LIST*
%TA.AperFunction,ComponentPad*%
%ADD10R,1.700000X1.700000*%
%TD*%
%TA.AperFunction,SMDPad,CuDef*%
%ADD11R,2.510000X1.000000*%
%TD*%
G04 APERTURE END LIST*
D10*
%TO.P,J1,1,Pin_1*%
%TO.N,GPIO4_T*%
X175755000Y-122540000D03*
%TD*%
%TO.P,J2,1,Pin_1*%
%TO.N,GPIO33*%
X196770000Y-122540000D03*
%TD*%
%TO.P,J3,1,Pin_1*%
%TO.N,GPIO32*%
X155777500Y-122540000D03*
%TD*%
D11*
%TO.P,J6,1,Pin_1*%
%TO.N,GND*%
X178421250Y-95510000D03*
%TO.P,J6,2*%
%TO.N,N/C*%
X175111250Y-98050000D03*
%TD*%
D10*
%TO.P,J4,1,Pin_1*%
%TO.N,GPIO27*%
X215710000Y-122540000D03*
%TD*%
%TO.P,J5,1,Pin_1*%
%TO.N,GPIO2*%
X135800000Y-122540000D03*
%TD*%
%TA.AperFunction,Conductor*%
%TO.N,GND*%
G36*
X222594024Y-67290185D02*
G01*
X222639779Y-67342989D01*
X222649723Y-67412147D01*
X222620698Y-67475703D01*
X222586003Y-67503554D01*
X222556500Y-67519519D01*
X222556494Y-67519523D01*
X222360257Y-67672261D01*
X222191833Y-67855217D01*
X222055826Y-68063393D01*
X221955936Y-68291118D01*
X221894892Y-68532175D01*
X221894890Y-68532187D01*
X221874357Y-68779994D01*
X221874357Y-68780005D01*
X221894890Y-69027812D01*
X221894892Y-69027824D01*
X221955936Y-69268881D01*
X222055826Y-69496606D01*
X222191833Y-69704782D01*
X222191836Y-69704785D01*
X222360256Y-69887738D01*
X222556491Y-70040474D01*
X222775190Y-70158828D01*
X223010386Y-70239571D01*
X223255665Y-70280500D01*
X223504335Y-70280500D01*
X223749614Y-70239571D01*
X223984810Y-70158828D01*
X224203509Y-70040474D01*
X224399744Y-69887738D01*
X224568164Y-69704785D01*
X224651691Y-69576937D01*
X224704837Y-69531580D01*
X224774069Y-69522156D01*
X224837404Y-69551658D01*
X224874736Y-69610718D01*
X224879500Y-69644758D01*
X224879500Y-123905241D01*
X224859815Y-123972280D01*
X224807011Y-124018035D01*
X224737853Y-124027979D01*
X224674297Y-123998954D01*
X224651691Y-123973063D01*
X224625337Y-123932725D01*
X224568164Y-123845215D01*
X224399744Y-123662262D01*
X224203509Y-123509526D01*
X224203507Y-123509525D01*
X224203506Y-123509524D01*
X223984811Y-123391172D01*
X223984802Y-123391169D01*
X223749616Y-123310429D01*
X223504335Y-123269500D01*
X223255665Y-123269500D01*
X223010383Y-123310429D01*
X222775197Y-123391169D01*
X222775188Y-123391172D01*
X222556493Y-123509524D01*
X222360257Y-123662261D01*
X222191833Y-123845217D01*
X222055826Y-124053393D01*
X221955936Y-124281118D01*
X221894892Y-124522175D01*
X221894890Y-124522187D01*
X221874357Y-124769994D01*
X221874357Y-124770005D01*
X221894890Y-125017812D01*
X221894892Y-125017824D01*
X221955936Y-125258881D01*
X222055826Y-125486606D01*
X222191833Y-125694782D01*
X222191836Y-125694785D01*
X222360256Y-125877738D01*
X222556491Y-126030474D01*
X222567525Y-126036445D01*
X222617115Y-126085665D01*
X222632223Y-126153881D01*
X222608053Y-126219437D01*
X222552277Y-126261518D01*
X222508507Y-126269500D01*
X129261493Y-126269500D01*
X129194454Y-126249815D01*
X129148699Y-126197011D01*
X129138755Y-126127853D01*
X129167780Y-126064297D01*
X129202473Y-126036445D01*
X129213509Y-126030474D01*
X129409744Y-125877738D01*
X129578164Y-125694785D01*
X129714173Y-125486607D01*
X129814063Y-125258881D01*
X129875108Y-125017821D01*
X129875109Y-125017812D01*
X129895643Y-124770005D01*
X129895643Y-124769994D01*
X129875109Y-124522187D01*
X129875107Y-124522175D01*
X129814063Y-124281118D01*
X129714173Y-124053393D01*
X129578166Y-123845217D01*
X129545444Y-123809672D01*
X129409744Y-123662262D01*
X129213509Y-123509526D01*
X129213507Y-123509525D01*
X129213506Y-123509524D01*
X128994811Y-123391172D01*
X128994802Y-123391169D01*
X128759616Y-123310429D01*
X128514335Y-123269500D01*
X128265665Y-123269500D01*
X128020383Y-123310429D01*
X127785197Y-123391169D01*
X127785188Y-123391172D01*
X127566493Y-123509524D01*
X127370257Y-123662261D01*
X127201836Y-123845215D01*
X127108309Y-123988369D01*
X127055162Y-124033725D01*
X126985931Y-124043149D01*
X126922595Y-124013647D01*
X126885264Y-123954587D01*
X126880500Y-123920547D01*
X126880500Y-122599337D01*
X129628500Y-122599337D01*
X129706662Y-122641637D01*
X129711122Y-122644172D01*
X129737780Y-122660058D01*
X129742130Y-122662773D01*
X129776673Y-122685344D01*
X129780903Y-122688235D01*
X129806117Y-122706239D01*
X129810221Y-122709299D01*
X130039014Y-122887375D01*
X130042996Y-122890609D01*
X130066665Y-122910657D01*
X130070506Y-122914049D01*
X130100864Y-122941997D01*
X130104560Y-122945544D01*
X130126477Y-122967461D01*
X130130026Y-122971159D01*
X130326386Y-123184462D01*
X130329777Y-123188302D01*
X130349810Y-123211954D01*
X130353040Y-123215932D01*
X130378387Y-123248496D01*
X130381452Y-123252606D01*
X130399477Y-123277851D01*
X130402370Y-123282085D01*
X130560950Y-123524812D01*
X130563663Y-123529158D01*
X130579534Y-123555792D01*
X130582067Y-123560250D01*
X130601706Y-123596540D01*
X130604051Y-123601095D01*
X130617671Y-123628954D01*
X130619827Y-123633606D01*
X130736291Y-123899116D01*
X130738252Y-123903849D01*
X130749520Y-123932725D01*
X130751284Y-123937538D01*
X130764683Y-123976567D01*
X130766246Y-123981446D01*
X130775097Y-124011173D01*
X130776458Y-124016117D01*
X130777568Y-124020500D01*
X131130500Y-124020500D01*
X132128500Y-124020500D01*
X133586071Y-124020500D01*
X138013929Y-124020500D01*
X138630500Y-124020500D01*
X139628500Y-124020500D01*
X141130500Y-124020500D01*
X142128500Y-124020500D01*
X143630500Y-124020500D01*
X144628500Y-124020500D01*
X146130500Y-124020500D01*
X147128500Y-124020500D01*
X148630500Y-124020500D01*
X149628500Y-124020500D01*
X151130500Y-124020500D01*
X152128500Y-124020500D01*
X153563571Y-124020500D01*
X157991429Y-124020500D01*
X158630500Y-124020500D01*
X159628500Y-124020500D01*
X161130500Y-124020500D01*
X162128500Y-124020500D01*
X163630500Y-124020500D01*
X164628500Y-124020500D01*
X166130500Y-124020500D01*
X167128500Y-124020500D01*
X168630500Y-124020500D01*
X169628500Y-124020500D01*
X171130500Y-124020500D01*
X172128500Y-124020500D01*
X173541071Y-124020500D01*
X177968929Y-124020500D01*
X178630500Y-124020500D01*
X179628500Y-124020500D01*
X181130500Y-124020500D01*
X182128500Y-124020500D01*
X183630500Y-124020500D01*
X184628500Y-124020500D01*
X186130500Y-124020500D01*
X187128500Y-124020500D01*
X188630500Y-124020500D01*
X189628500Y-124020500D01*
X191130500Y-124020500D01*
X192128500Y-124020500D01*
X193630500Y-124020500D01*
X199628500Y-124020500D01*
X201130500Y-124020500D01*
X202128500Y-124020500D01*
X203630500Y-124020500D01*
X204628500Y-124020500D01*
X206130500Y-124020500D01*
X207128500Y-124020500D01*
X208630500Y-124020500D01*
X209628500Y-124020500D01*
X211130500Y-124020500D01*
X212128500Y-124020500D01*
X213496071Y-124020500D01*
X217923929Y-124020500D01*
X218630500Y-124020500D01*
X219628500Y-124020500D01*
X220992432Y-124020500D01*
X220993542Y-124016117D01*
X220994903Y-124011173D01*
X221003754Y-123981446D01*
X221005317Y-123976567D01*
X221018716Y-123937538D01*
X221020480Y-123932725D01*
X221031748Y-123903849D01*
X221033709Y-123899116D01*
X221130500Y-123678454D01*
X221130500Y-122518500D01*
X219628500Y-122518500D01*
X219628500Y-124020500D01*
X218630500Y-124020500D01*
X218630500Y-122518500D01*
X218058499Y-122518500D01*
X218058500Y-123451248D01*
X218058455Y-123454572D01*
X218057916Y-123474673D01*
X218057783Y-123477993D01*
X218056351Y-123504680D01*
X218056129Y-123507989D01*
X218054519Y-123527982D01*
X218054208Y-123531285D01*
X218043038Y-123635175D01*
X218041971Y-123642843D01*
X218034064Y-123689029D01*
X218032519Y-123696619D01*
X218018174Y-123757330D01*
X218016158Y-123764809D01*
X218002550Y-123809672D01*
X218000071Y-123817012D01*
X217926413Y-124014502D01*
X217923929Y-124020500D01*
X213496071Y-124020500D01*
X213493587Y-124014502D01*
X213419931Y-123817018D01*
X213417452Y-123809679D01*
X213403847Y-123764828D01*
X213401832Y-123757352D01*
X213387484Y-123696637D01*
X213385939Y-123689045D01*
X213378028Y-123642840D01*
X213376959Y-123635167D01*
X213365788Y-123531245D01*
X213365477Y-123527936D01*
X213363865Y-123507899D01*
X213363643Y-123504587D01*
X213362214Y-123477905D01*
X213362081Y-123474587D01*
X213361545Y-123454536D01*
X213361501Y-123451222D01*
X213361500Y-122518500D01*
X212128500Y-122518500D01*
X212128500Y-124020500D01*
X211130500Y-124020500D01*
X211130500Y-122518500D01*
X209628500Y-122518500D01*
X209628500Y-124020500D01*
X208630500Y-124020500D01*
X208630500Y-122518500D01*
X207128500Y-122518500D01*
X207128500Y-124020500D01*
X206130500Y-124020500D01*
X206130500Y-122518500D01*
X204628500Y-122518500D01*
X204628500Y-124020500D01*
X203630500Y-124020500D01*
X203630500Y-122518500D01*
X202128500Y-122518500D01*
X202128500Y-124020500D01*
X201130500Y-124020500D01*
X201130500Y-122518500D01*
X199628500Y-122518500D01*
X199628500Y-124020500D01*
X193630500Y-124020500D01*
X193630500Y-122518500D01*
X192128500Y-122518500D01*
X192128500Y-124020500D01*
X191130500Y-124020500D01*
X191130500Y-122518500D01*
X189628500Y-122518500D01*
X189628500Y-124020500D01*
X188630500Y-124020500D01*
X188630500Y-122518500D01*
X187128500Y-122518500D01*
X187128500Y-124020500D01*
X186130500Y-124020500D01*
X186130500Y-122518500D01*
X184628500Y-122518500D01*
X184628500Y-124020500D01*
X183630500Y-124020500D01*
X183630500Y-122518500D01*
X182128500Y-122518500D01*
X182128500Y-124020500D01*
X181130500Y-124020500D01*
X181130500Y-122518500D01*
X179628500Y-122518500D01*
X179628500Y-124020500D01*
X178630500Y-124020500D01*
X178630500Y-122518500D01*
X178103499Y-122518500D01*
X178103500Y-123451248D01*
X178103455Y-123454572D01*
X178102916Y-123474673D01*
X178102783Y-123477993D01*
X178101351Y-123504680D01*
X178101129Y-123507989D01*
X178099519Y-123527982D01*
X178099208Y-123531285D01*
X178088038Y-123635175D01*
X178086971Y-123642843D01*
X178079064Y-123689029D01*
X178077519Y-123696619D01*
X178063174Y-123757330D01*
X178061158Y-123764809D01*
X178047550Y-123809672D01*
X178045071Y-123817012D01*
X177971413Y-124014502D01*
X177968929Y-124020500D01*
X173541071Y-124020500D01*
X173538587Y-124014502D01*
X173464931Y-123817018D01*
X173462452Y-123809679D01*
X173448847Y-123764828D01*
X173446832Y-123757352D01*
X173432484Y-123696637D01*
X173430939Y-123689045D01*
X173423028Y-123642840D01*
X173421959Y-123635167D01*
X173410788Y-123531245D01*
X173410477Y-123527936D01*
X173408865Y-123507899D01*
X173408643Y-123504587D01*
X173407214Y-123477905D01*
X173407081Y-123474587D01*
X173406545Y-123454536D01*
X173406501Y-123451222D01*
X173406500Y-122518500D01*
X172128500Y-122518500D01*
X172128500Y-124020500D01*
X171130500Y-124020500D01*
X171130500Y-122518500D01*
X169628500Y-122518500D01*
X169628500Y-124020500D01*
X168630500Y-124020500D01*
X168630500Y-122518500D01*
X167128500Y-122518500D01*
X167128500Y-124020500D01*
X166130500Y-124020500D01*
X166130500Y-122518500D01*
X164628500Y-122518500D01*
X164628500Y-124020500D01*
X163630500Y-124020500D01*
X163630500Y-122518500D01*
X162128500Y-122518500D01*
X162128500Y-124020500D01*
X161130500Y-124020500D01*
X161130500Y-122518500D01*
X159628500Y-122518500D01*
X159628500Y-124020500D01*
X158630500Y-124020500D01*
X158630500Y-122518500D01*
X158125999Y-122518500D01*
X158126000Y-123451248D01*
X158125955Y-123454572D01*
X158125416Y-123474673D01*
X158125283Y-123477993D01*
X158123851Y-123504680D01*
X158123629Y-123507989D01*
X158122019Y-123527982D01*
X158121708Y-123531285D01*
X158110538Y-123635175D01*
X158109471Y-123642843D01*
X158101564Y-123689029D01*
X158100019Y-123696619D01*
X158085674Y-123757330D01*
X158083658Y-123764809D01*
X158070050Y-123809672D01*
X158067571Y-123817012D01*
X157993913Y-124014502D01*
X157991429Y-124020500D01*
X153563571Y-124020500D01*
X153561087Y-124014502D01*
X153487431Y-123817018D01*
X153484952Y-123809679D01*
X153471347Y-123764828D01*
X153469332Y-123757352D01*
X153454984Y-123696637D01*
X153453439Y-123689045D01*
X153445528Y-123642840D01*
X153444459Y-123635167D01*
X153433288Y-123531245D01*
X153432977Y-123527936D01*
X153431365Y-123507899D01*
X153431143Y-123504587D01*
X153429714Y-123477905D01*
X153429581Y-123474587D01*
X153429045Y-123454536D01*
X153429001Y-123451222D01*
X153429000Y-122518500D01*
X152128500Y-122518500D01*
X152128500Y-124020500D01*
X151130500Y-124020500D01*
X151130500Y-122518500D01*
X149628500Y-122518500D01*
X149628500Y-124020500D01*
X148630500Y-124020500D01*
X148630500Y-122518500D01*
X147128500Y-122518500D01*
X147128500Y-124020500D01*
X146130500Y-124020500D01*
X146130500Y-122518500D01*
X144628500Y-122518500D01*
X144628500Y-124020500D01*
X143630500Y-124020500D01*
X143630500Y-122518500D01*
X142128500Y-122518500D01*
X142128500Y-124020500D01*
X141130500Y-124020500D01*
X141130500Y-122518500D01*
X139628500Y-122518500D01*
X139628500Y-124020500D01*
X138630500Y-124020500D01*
X138630500Y-122518500D01*
X138148499Y-122518500D01*
X138148500Y-123451248D01*
X138148455Y-123454572D01*
X138147916Y-123474673D01*
X138147783Y-123477993D01*
X138146351Y-123504680D01*
X138146129Y-123507989D01*
X138144519Y-123527982D01*
X138144208Y-123531285D01*
X138133038Y-123635175D01*
X138131971Y-123642843D01*
X138124064Y-123689029D01*
X138122519Y-123696619D01*
X138108174Y-123757330D01*
X138106158Y-123764809D01*
X138092550Y-123809672D01*
X138090071Y-123817012D01*
X138016413Y-124014502D01*
X138013929Y-124020500D01*
X133586071Y-124020500D01*
X133583587Y-124014502D01*
X133509931Y-123817018D01*
X133507452Y-123809679D01*
X133493847Y-123764828D01*
X133491832Y-123757352D01*
X133477484Y-123696637D01*
X133475939Y-123689045D01*
X133468028Y-123642840D01*
X133466959Y-123635167D01*
X133455788Y-123531245D01*
X133455477Y-123527936D01*
X133453865Y-123507899D01*
X133453643Y-123504587D01*
X133452214Y-123477905D01*
X133452081Y-123474587D01*
X133451545Y-123454536D01*
X133451501Y-123451222D01*
X133451500Y-122518500D01*
X132128500Y-122518500D01*
X132128500Y-124020500D01*
X131130500Y-124020500D01*
X131130500Y-122518500D01*
X129628500Y-122518500D01*
X129628500Y-122599337D01*
X126880500Y-122599337D01*
X126880500Y-121642135D01*
X134449500Y-121642135D01*
X134449500Y-123437870D01*
X134449501Y-123437876D01*
X134455908Y-123497483D01*
X134506202Y-123632328D01*
X134506206Y-123632335D01*
X134592452Y-123747544D01*
X134592455Y-123747547D01*
X134707664Y-123833793D01*
X134707671Y-123833797D01*
X134842517Y-123884091D01*
X134842516Y-123884091D01*
X134849444Y-123884835D01*
X134902127Y-123890500D01*
X136697872Y-123890499D01*
X136757483Y-123884091D01*
X136892331Y-123833796D01*
X137007546Y-123747546D01*
X137093796Y-123632331D01*
X137144091Y-123497483D01*
X137150500Y-123437873D01*
X137150499Y-121642135D01*
X154427000Y-121642135D01*
X154427000Y-123437870D01*
X154427001Y-123437876D01*
X154433408Y-123497483D01*
X154483702Y-123632328D01*
X154483706Y-123632335D01*
X154569952Y-123747544D01*
X154569955Y-123747547D01*
X154685164Y-123833793D01*
X154685171Y-123833797D01*
X154820017Y-123884091D01*
X154820016Y-123884091D01*
X154826944Y-123884835D01*
X154879627Y-123890500D01*
X156675372Y-123890499D01*
X156734983Y-123884091D01*
X156869831Y-123833796D01*
X156985046Y-123747546D01*
X157071296Y-123632331D01*
X157121591Y-123497483D01*
X157128000Y-123437873D01*
X157127999Y-121642135D01*
X174404500Y-121642135D01*
X174404500Y-123437870D01*
X174404501Y-123437876D01*
X174410908Y-123497483D01*
X174461202Y-123632328D01*
X174461206Y-123632335D01*
X174547452Y-123747544D01*
X174547455Y-123747547D01*
X174662664Y-123833793D01*
X174662671Y-123833797D01*
X174797517Y-123884091D01*
X174797516Y-123884091D01*
X174804444Y-123884835D01*
X174857127Y-123890500D01*
X176652872Y-123890499D01*
X176712483Y-123884091D01*
X176847331Y-123833796D01*
X176962546Y-123747546D01*
X177048796Y-123632331D01*
X177099091Y-123497483D01*
X177105500Y-123437873D01*
X177105499Y-121642135D01*
X195419500Y-121642135D01*
X195419500Y-123437870D01*
X195419501Y-123437876D01*
X195425908Y-123497483D01*
X195476202Y-123632328D01*
X195476206Y-123632335D01*
X195562452Y-123747544D01*
X195562455Y-123747547D01*
X195677664Y-123833793D01*
X195677671Y-123833797D01*
X195812517Y-123884091D01*
X195812516Y-123884091D01*
X195819444Y-123884835D01*
X195872127Y-123890500D01*
X197667872Y-123890499D01*
X197727483Y-123884091D01*
X197862331Y-123833796D01*
X197977546Y-123747546D01*
X198063796Y-123632331D01*
X198114091Y-123497483D01*
X198120500Y-123437873D01*
X198120499Y-121642135D01*
X214359500Y-121642135D01*
X214359500Y-123437870D01*
X214359501Y-123437876D01*
X214365908Y-123497483D01*
X214416202Y-123632328D01*
X214416206Y-123632335D01*
X214502452Y-123747544D01*
X214502455Y-123747547D01*
X214617664Y-123833793D01*
X214617671Y-123833797D01*
X214752517Y-123884091D01*
X214752516Y-123884091D01*
X214759444Y-123884835D01*
X214812127Y-123890500D01*
X216607872Y-123890499D01*
X216667483Y-123884091D01*
X216802331Y-123833796D01*
X216917546Y-123747546D01*
X217003796Y-123632331D01*
X217054091Y-123497483D01*
X217060500Y-123437873D01*
X217060499Y-121642128D01*
X217054091Y-121582517D01*
X217003796Y-121447669D01*
X217003795Y-121447668D01*
X217003793Y-121447664D01*
X216917547Y-121332455D01*
X216917544Y-121332452D01*
X216802335Y-121246206D01*
X216802328Y-121246202D01*
X216667482Y-121195908D01*
X216667483Y-121195908D01*
X216607883Y-121189501D01*
X216607881Y-121189500D01*
X216607873Y-121189500D01*
X216607864Y-121189500D01*
X214812129Y-121189500D01*
X214812123Y-121189501D01*
X214752516Y-121195908D01*
X214617671Y-121246202D01*
X214617664Y-121246206D01*
X214502455Y-121332452D01*
X214502452Y-121332455D01*
X214416206Y-121447664D01*
X214416202Y-121447671D01*
X214365908Y-121582517D01*
X214359501Y-121642116D01*
X214359501Y-121642123D01*
X214359500Y-121642135D01*
X198120499Y-121642135D01*
X198120499Y-121642128D01*
X198114091Y-121582517D01*
X198090960Y-121520500D01*
X199628500Y-121520500D01*
X201130500Y-121520500D01*
X202128500Y-121520500D01*
X203630500Y-121520500D01*
X204628500Y-121520500D01*
X206130500Y-121520500D01*
X207128500Y-121520500D01*
X208630500Y-121520500D01*
X209628500Y-121520500D01*
X211130500Y-121520500D01*
X212128500Y-121520500D01*
X213368826Y-121520500D01*
X213376962Y-121444825D01*
X213378029Y-121437157D01*
X213385936Y-121390971D01*
X213387481Y-121383381D01*
X213401826Y-121322670D01*
X213403842Y-121315191D01*
X213417450Y-121270328D01*
X213419929Y-121262988D01*
X213493587Y-121065498D01*
X213496975Y-121057318D01*
X213519233Y-121008581D01*
X213523195Y-121000667D01*
X213557372Y-120938077D01*
X213561890Y-120930463D01*
X213590854Y-120885396D01*
X213595901Y-120878126D01*
X213630500Y-120831907D01*
X213630500Y-120302699D01*
X217128500Y-120302699D01*
X217184502Y-120323587D01*
X217192682Y-120326975D01*
X217241419Y-120349233D01*
X217249333Y-120353195D01*
X217311923Y-120387372D01*
X217319537Y-120391890D01*
X217364604Y-120420854D01*
X217371874Y-120425902D01*
X217544173Y-120554886D01*
X217551064Y-120560439D01*
X217591549Y-120595519D01*
X217598028Y-120601551D01*
X217648449Y-120651972D01*
X217654481Y-120658451D01*
X217689561Y-120698936D01*
X217695114Y-120705827D01*
X217824098Y-120878126D01*
X217829146Y-120885396D01*
X217858110Y-120930463D01*
X217862628Y-120938077D01*
X217896805Y-121000667D01*
X217900767Y-121008581D01*
X217923025Y-121057318D01*
X217926413Y-121065498D01*
X218000069Y-121262982D01*
X218002548Y-121270321D01*
X218016153Y-121315172D01*
X218018168Y-121322648D01*
X218032516Y-121383363D01*
X218034061Y-121390955D01*
X218041972Y-121437160D01*
X218043041Y-121444833D01*
X218051175Y-121520500D01*
X218630500Y-121520500D01*
X219628500Y-121520500D01*
X221130500Y-121520500D01*
X222128500Y-121520500D01*
X223630500Y-121520500D01*
X223630500Y-120018500D01*
X222128500Y-120018500D01*
X222128500Y-121520500D01*
X221130500Y-121520500D01*
X221130500Y-120018500D01*
X219628500Y-120018500D01*
X219628500Y-121520500D01*
X218630500Y-121520500D01*
X218630500Y-120018500D01*
X217128500Y-120018500D01*
X217128500Y-120302699D01*
X213630500Y-120302699D01*
X213630500Y-120018500D01*
X212128500Y-120018500D01*
X212128500Y-121520500D01*
X211130500Y-121520500D01*
X211130500Y-120018500D01*
X209628500Y-120018500D01*
X209628500Y-121520500D01*
X208630500Y-121520500D01*
X208630500Y-120018500D01*
X207128500Y-120018500D01*
X207128500Y-121520500D01*
X206130500Y-121520500D01*
X206130500Y-120018500D01*
X204628500Y-120018500D01*
X204628500Y-121520500D01*
X203630500Y-121520500D01*
X203630500Y-120018500D01*
X202128500Y-120018500D01*
X202128500Y-121520500D01*
X201130500Y-121520500D01*
X201130500Y-120018500D01*
X199628500Y-120018500D01*
X199628500Y-121520500D01*
X198090960Y-121520500D01*
X198063796Y-121447669D01*
X198063795Y-121447668D01*
X198063793Y-121447664D01*
X197977547Y-121332455D01*
X197977544Y-121332452D01*
X197862335Y-121246206D01*
X197862328Y-121246202D01*
X197727482Y-121195908D01*
X197727483Y-121195908D01*
X197667883Y-121189501D01*
X197667881Y-121189500D01*
X197667873Y-121189500D01*
X197667864Y-121189500D01*
X195872129Y-121189500D01*
X195872123Y-121189501D01*
X195812516Y-121195908D01*
X195677671Y-121246202D01*
X195677664Y-121246206D01*
X195562455Y-121332452D01*
X195562452Y-121332455D01*
X195476206Y-121447664D01*
X195476202Y-121447671D01*
X195425908Y-121582517D01*
X195419501Y-121642116D01*
X195419501Y-121642123D01*
X195419500Y-121642135D01*
X177105499Y-121642135D01*
X177105499Y-121642128D01*
X177099091Y-121582517D01*
X177048796Y-121447669D01*
X177048795Y-121447668D01*
X177048793Y-121447664D01*
X176962547Y-121332455D01*
X176962544Y-121332452D01*
X176847335Y-121246206D01*
X176847328Y-121246202D01*
X176712482Y-121195908D01*
X176712483Y-121195908D01*
X176652883Y-121189501D01*
X176652881Y-121189500D01*
X176652873Y-121189500D01*
X176652864Y-121189500D01*
X174857129Y-121189500D01*
X174857123Y-121189501D01*
X174797516Y-121195908D01*
X174662671Y-121246202D01*
X174662664Y-121246206D01*
X174547455Y-121332452D01*
X174547452Y-121332455D01*
X174461206Y-121447664D01*
X174461202Y-121447671D01*
X174410908Y-121582517D01*
X174404501Y-121642116D01*
X174404501Y-121642123D01*
X174404500Y-121642135D01*
X157127999Y-121642135D01*
X157127999Y-121642128D01*
X157121591Y-121582517D01*
X157071296Y-121447669D01*
X157071295Y-121447668D01*
X157071293Y-121447664D01*
X156985047Y-121332455D01*
X156985044Y-121332452D01*
X156869835Y-121246206D01*
X156869828Y-121246202D01*
X156734982Y-121195908D01*
X156734983Y-121195908D01*
X156675383Y-121189501D01*
X156675381Y-121189500D01*
X156675373Y-121189500D01*
X156675364Y-121189500D01*
X154879629Y-121189500D01*
X154879623Y-121189501D01*
X154820016Y-121195908D01*
X154685171Y-121246202D01*
X154685164Y-121246206D01*
X154569955Y-121332452D01*
X154569952Y-121332455D01*
X154483706Y-121447664D01*
X154483702Y-121447671D01*
X154433408Y-121582517D01*
X154427001Y-121642116D01*
X154427001Y-121642123D01*
X154427000Y-121642135D01*
X137150499Y-121642135D01*
X137150499Y-121642128D01*
X137144091Y-121582517D01*
X137093796Y-121447669D01*
X137093795Y-121447668D01*
X137093793Y-121447664D01*
X137007547Y-121332455D01*
X137007544Y-121332452D01*
X136892335Y-121246206D01*
X136892328Y-121246202D01*
X136757482Y-121195908D01*
X136757483Y-121195908D01*
X136697883Y-121189501D01*
X136697881Y-121189500D01*
X136697873Y-121189500D01*
X136697864Y-121189500D01*
X134902129Y-121189500D01*
X134902123Y-121189501D01*
X134842516Y-121195908D01*
X134707671Y-121246202D01*
X134707664Y-121246206D01*
X134592455Y-121332452D01*
X134592452Y-121332455D01*
X134506206Y-121447664D01*
X134506202Y-121447671D01*
X134455908Y-121582517D01*
X134449501Y-121642116D01*
X134449501Y-121642123D01*
X134449500Y-121642135D01*
X126880500Y-121642135D01*
X126880500Y-121520500D01*
X127878500Y-121520500D01*
X128630500Y-121520500D01*
X129628500Y-121520500D01*
X131130500Y-121520500D01*
X132128500Y-121520500D01*
X133458826Y-121520500D01*
X133466962Y-121444825D01*
X133468029Y-121437157D01*
X133475936Y-121390971D01*
X133477481Y-121383381D01*
X133491826Y-121322670D01*
X133493842Y-121315191D01*
X133507450Y-121270328D01*
X133509929Y-121262988D01*
X133583587Y-121065498D01*
X133586975Y-121057318D01*
X133609233Y-121008581D01*
X133613195Y-121000667D01*
X133630500Y-120968975D01*
X133630500Y-120269132D01*
X137128500Y-120269132D01*
X137274502Y-120323587D01*
X137282682Y-120326975D01*
X137331419Y-120349233D01*
X137339333Y-120353195D01*
X137401923Y-120387372D01*
X137409537Y-120391890D01*
X137454604Y-120420854D01*
X137461874Y-120425902D01*
X137634173Y-120554886D01*
X137641064Y-120560439D01*
X137681549Y-120595519D01*
X137688028Y-120601551D01*
X137738449Y-120651972D01*
X137744481Y-120658451D01*
X137779561Y-120698936D01*
X137785114Y-120705827D01*
X137914098Y-120878126D01*
X137919146Y-120885396D01*
X137948110Y-120930463D01*
X137952628Y-120938077D01*
X137986805Y-121000667D01*
X137990767Y-121008581D01*
X138013025Y-121057318D01*
X138016413Y-121065498D01*
X138090069Y-121262982D01*
X138092548Y-121270321D01*
X138106153Y-121315172D01*
X138108168Y-121322648D01*
X138122516Y-121383363D01*
X138124061Y-121390955D01*
X138131972Y-121437160D01*
X138133041Y-121444833D01*
X138141175Y-121520500D01*
X138630500Y-121520500D01*
X139628500Y-121520500D01*
X141130500Y-121520500D01*
X142128500Y-121520500D01*
X143630500Y-121520500D01*
X144628500Y-121520500D01*
X146130500Y-121520500D01*
X147128500Y-121520500D01*
X148630500Y-121520500D01*
X149628500Y-121520500D01*
X151130500Y-121520500D01*
X152128500Y-121520500D01*
X153436326Y-121520500D01*
X153444462Y-121444825D01*
X153445529Y-121437157D01*
X153453436Y-121390971D01*
X153454981Y-121383381D01*
X153469326Y-121322670D01*
X153471342Y-121315191D01*
X153484950Y-121270328D01*
X153487429Y-121262988D01*
X153561087Y-121065498D01*
X153564475Y-121057318D01*
X153586733Y-121008581D01*
X153590695Y-121000667D01*
X153624872Y-120938077D01*
X153629390Y-120930463D01*
X153630500Y-120928735D01*
X153630500Y-120277524D01*
X157128500Y-120277524D01*
X157252002Y-120323587D01*
X157260182Y-120326975D01*
X157308919Y-120349233D01*
X157316833Y-120353195D01*
X157379423Y-120387372D01*
X157387037Y-120391890D01*
X157432104Y-120420854D01*
X157439374Y-120425902D01*
X157611673Y-120554886D01*
X157618564Y-120560439D01*
X157659049Y-120595519D01*
X157665528Y-120601551D01*
X157715949Y-120651972D01*
X157721981Y-120658451D01*
X157757061Y-120698936D01*
X157762614Y-120705827D01*
X157891598Y-120878126D01*
X157896646Y-120885396D01*
X157925610Y-120930463D01*
X157930128Y-120938077D01*
X157964305Y-121000667D01*
X157968267Y-121008581D01*
X157990525Y-121057318D01*
X157993913Y-121065498D01*
X158067569Y-121262982D01*
X158070048Y-121270321D01*
X158083653Y-121315172D01*
X158085668Y-121322648D01*
X158100016Y-121383363D01*
X158101561Y-121390955D01*
X158109472Y-121437160D01*
X158110541Y-121444833D01*
X158118675Y-121520500D01*
X158630500Y-121520500D01*
X159628500Y-121520500D01*
X161130500Y-121520500D01*
X162128500Y-121520500D01*
X163630500Y-121520500D01*
X164628500Y-121520500D01*
X166130500Y-121520500D01*
X167128500Y-121520500D01*
X168630500Y-121520500D01*
X169628500Y-121520500D01*
X171130500Y-121520500D01*
X172128500Y-121520500D01*
X173413826Y-121520500D01*
X173421962Y-121444825D01*
X173423029Y-121437157D01*
X173430936Y-121390971D01*
X173432481Y-121383381D01*
X173446826Y-121322670D01*
X173448842Y-121315191D01*
X173462450Y-121270328D01*
X173464929Y-121262988D01*
X173538587Y-121065498D01*
X173541975Y-121057318D01*
X173564233Y-121008581D01*
X173568195Y-121000667D01*
X173602372Y-120938077D01*
X173606890Y-120930463D01*
X173630500Y-120893726D01*
X173630500Y-120285915D01*
X177128500Y-120285915D01*
X177229502Y-120323587D01*
X177237682Y-120326975D01*
X177286419Y-120349233D01*
X177294333Y-120353195D01*
X177356923Y-120387372D01*
X177364537Y-120391890D01*
X177409604Y-120420854D01*
X177416874Y-120425902D01*
X177589173Y-120554886D01*
X177596064Y-120560439D01*
X177636549Y-120595519D01*
X177643028Y-120601551D01*
X177693449Y-120651972D01*
X177699481Y-120658451D01*
X177734561Y-120698936D01*
X177740114Y-120705827D01*
X177869098Y-120878126D01*
X177874146Y-120885396D01*
X177903110Y-120930463D01*
X177907628Y-120938077D01*
X177941805Y-121000667D01*
X177945767Y-121008581D01*
X177968025Y-121057318D01*
X177971413Y-121065498D01*
X178045069Y-121262982D01*
X178047548Y-121270321D01*
X178061153Y-121315172D01*
X178063168Y-121322648D01*
X178077516Y-121383363D01*
X178079061Y-121390955D01*
X178086972Y-121437160D01*
X178088041Y-121444833D01*
X178096175Y-121520500D01*
X178630500Y-121520500D01*
X179628500Y-121520500D01*
X181130500Y-121520500D01*
X182128500Y-121520500D01*
X183630500Y-121520500D01*
X184628500Y-121520500D01*
X186130500Y-121520500D01*
X187128500Y-121520500D01*
X188630500Y-121520500D01*
X189628500Y-121520500D01*
X191130500Y-121520500D01*
X192128500Y-121520500D01*
X193630500Y-121520500D01*
X193630500Y-120920178D01*
X194628500Y-120920178D01*
X194650854Y-120885396D01*
X194655902Y-120878126D01*
X194784886Y-120705827D01*
X194790439Y-120698936D01*
X194825519Y-120658451D01*
X194831551Y-120651972D01*
X194881972Y-120601551D01*
X194888451Y-120595519D01*
X194928936Y-120560439D01*
X194935827Y-120554886D01*
X195108126Y-120425902D01*
X195115396Y-120420854D01*
X195160463Y-120391890D01*
X195168077Y-120387372D01*
X195230667Y-120353195D01*
X195238581Y-120349233D01*
X195287318Y-120326975D01*
X195295498Y-120323587D01*
X195492982Y-120249931D01*
X195500321Y-120247452D01*
X195545172Y-120233847D01*
X195552648Y-120231832D01*
X195613363Y-120217484D01*
X195620955Y-120215939D01*
X195667160Y-120208028D01*
X195674833Y-120206959D01*
X195778755Y-120195788D01*
X195782064Y-120195477D01*
X195802101Y-120193865D01*
X195805413Y-120193643D01*
X195832095Y-120192214D01*
X195835413Y-120192081D01*
X195855464Y-120191545D01*
X195858778Y-120191501D01*
X196130500Y-120191500D01*
X197128500Y-120191500D01*
X197681248Y-120191500D01*
X197684572Y-120191545D01*
X197704673Y-120192084D01*
X197707993Y-120192217D01*
X197734680Y-120193649D01*
X197737989Y-120193871D01*
X197757982Y-120195481D01*
X197761285Y-120195792D01*
X197865175Y-120206962D01*
X197872843Y-120208029D01*
X197919029Y-120215936D01*
X197926619Y-120217481D01*
X197987330Y-120231826D01*
X197994809Y-120233842D01*
X198039672Y-120247450D01*
X198047012Y-120249929D01*
X198244502Y-120323587D01*
X198252682Y-120326975D01*
X198301419Y-120349233D01*
X198309333Y-120353195D01*
X198371923Y-120387372D01*
X198379537Y-120391890D01*
X198424604Y-120420854D01*
X198431874Y-120425902D01*
X198604173Y-120554886D01*
X198611064Y-120560439D01*
X198630500Y-120577280D01*
X198630500Y-120018500D01*
X197128500Y-120018500D01*
X197128500Y-120191500D01*
X196130500Y-120191500D01*
X196130500Y-120018500D01*
X194628500Y-120018500D01*
X194628500Y-120920178D01*
X193630500Y-120920178D01*
X193630500Y-120018500D01*
X192128500Y-120018500D01*
X192128500Y-121520500D01*
X191130500Y-121520500D01*
X191130500Y-120018500D01*
X189628500Y-120018500D01*
X189628500Y-121520500D01*
X188630500Y-121520500D01*
X188630500Y-120018500D01*
X187128500Y-120018500D01*
X187128500Y-121520500D01*
X186130500Y-121520500D01*
X186130500Y-120018500D01*
X184628500Y-120018500D01*
X184628500Y-121520500D01*
X183630500Y-121520500D01*
X183630500Y-120018500D01*
X182128500Y-120018500D01*
X182128500Y-121520500D01*
X181130500Y-121520500D01*
X181130500Y-120018500D01*
X179628500Y-120018500D01*
X179628500Y-121520500D01*
X178630500Y-121520500D01*
X178630500Y-120018500D01*
X177128500Y-120018500D01*
X177128500Y-120285915D01*
X173630500Y-120285915D01*
X173630500Y-120018500D01*
X172128500Y-120018500D01*
X172128500Y-121520500D01*
X171130500Y-121520500D01*
X171130500Y-120018500D01*
X169628500Y-120018500D01*
X169628500Y-121520500D01*
X168630500Y-121520500D01*
X168630500Y-120018500D01*
X167128500Y-120018500D01*
X167128500Y-121520500D01*
X166130500Y-121520500D01*
X166130500Y-120018500D01*
X164628500Y-120018500D01*
X164628500Y-121520500D01*
X163630500Y-121520500D01*
X163630500Y-120018500D01*
X162128500Y-120018500D01*
X162128500Y-121520500D01*
X161130500Y-121520500D01*
X161130500Y-120018500D01*
X159628500Y-120018500D01*
X159628500Y-121520500D01*
X158630500Y-121520500D01*
X158630500Y-120018500D01*
X157128500Y-120018500D01*
X157128500Y-120277524D01*
X153630500Y-120277524D01*
X153630500Y-120018500D01*
X152128500Y-120018500D01*
X152128500Y-121520500D01*
X151130500Y-121520500D01*
X151130500Y-120018500D01*
X149628500Y-120018500D01*
X149628500Y-121520500D01*
X148630500Y-121520500D01*
X148630500Y-120018500D01*
X147128500Y-120018500D01*
X147128500Y-121520500D01*
X146130500Y-121520500D01*
X146130500Y-120018500D01*
X144628500Y-120018500D01*
X144628500Y-121520500D01*
X143630500Y-121520500D01*
X143630500Y-120018500D01*
X142128500Y-120018500D01*
X142128500Y-121520500D01*
X141130500Y-121520500D01*
X141130500Y-120018500D01*
X139628500Y-120018500D01*
X139628500Y-121520500D01*
X138630500Y-121520500D01*
X138630500Y-120018500D01*
X137128500Y-120018500D01*
X137128500Y-120269132D01*
X133630500Y-120269132D01*
X133630500Y-120018500D01*
X132128500Y-120018500D01*
X132128500Y-121520500D01*
X131130500Y-121520500D01*
X131130500Y-120018500D01*
X129628500Y-120018500D01*
X129628500Y-121520500D01*
X128630500Y-121520500D01*
X128630500Y-120018500D01*
X127878500Y-120018500D01*
X127878500Y-121520500D01*
X126880500Y-121520500D01*
X126880500Y-119020500D01*
X127878500Y-119020500D01*
X128630500Y-119020500D01*
X129628500Y-119020500D01*
X131130500Y-119020500D01*
X132128500Y-119020500D01*
X133630500Y-119020500D01*
X134628500Y-119020500D01*
X136130500Y-119020500D01*
X137128500Y-119020500D01*
X138630500Y-119020500D01*
X139628500Y-119020500D01*
X141130500Y-119020500D01*
X142128500Y-119020500D01*
X143630500Y-119020500D01*
X144628500Y-119020500D01*
X146130500Y-119020500D01*
X147128500Y-119020500D01*
X148630500Y-119020500D01*
X149628500Y-119020500D01*
X151130500Y-119020500D01*
X152128500Y-119020500D01*
X153630500Y-119020500D01*
X154628500Y-119020500D01*
X156130500Y-119020500D01*
X157128500Y-119020500D01*
X158630500Y-119020500D01*
X159628500Y-119020500D01*
X161130500Y-119020500D01*
X162128500Y-119020500D01*
X163630500Y-119020500D01*
X164628500Y-119020500D01*
X166130500Y-119020500D01*
X167128500Y-119020500D01*
X168630500Y-119020500D01*
X169628500Y-119020500D01*
X171130500Y-119020500D01*
X172128500Y-119020500D01*
X173630500Y-119020500D01*
X174628500Y-119020500D01*
X176130500Y-119020500D01*
X177128500Y-119020500D01*
X178630500Y-119020500D01*
X179628500Y-119020500D01*
X181130500Y-119020500D01*
X182128500Y-119020500D01*
X183630500Y-119020500D01*
X184628500Y-119020500D01*
X186130500Y-119020500D01*
X187128500Y-119020500D01*
X188630500Y-119020500D01*
X189628500Y-119020500D01*
X191130500Y-119020500D01*
X192128500Y-119020500D01*
X193630500Y-119020500D01*
X194628500Y-119020500D01*
X196130500Y-119020500D01*
X197128500Y-119020500D01*
X198630500Y-119020500D01*
X199628500Y-119020500D01*
X201130500Y-119020500D01*
X202128500Y-119020500D01*
X203630500Y-119020500D01*
X204628500Y-119020500D01*
X206130500Y-119020500D01*
X207128500Y-119020500D01*
X208630500Y-119020500D01*
X209628500Y-119020500D01*
X211130500Y-119020500D01*
X212128500Y-119020500D01*
X213630500Y-119020500D01*
X214628500Y-119020500D01*
X216130500Y-119020500D01*
X217128500Y-119020500D01*
X218630500Y-119020500D01*
X219628500Y-119020500D01*
X221130500Y-119020500D01*
X222128500Y-119020500D01*
X223630500Y-119020500D01*
X223630500Y-117518500D01*
X222128500Y-117518500D01*
X222128500Y-119020500D01*
X221130500Y-119020500D01*
X221130500Y-117518500D01*
X219628500Y-117518500D01*
X219628500Y-119020500D01*
X218630500Y-119020500D01*
X218630500Y-117518500D01*
X217128500Y-117518500D01*
X217128500Y-119020500D01*
X216130500Y-119020500D01*
X216130500Y-117518500D01*
X214628500Y-117518500D01*
X214628500Y-119020500D01*
X213630500Y-119020500D01*
X213630500Y-117518500D01*
X212128500Y-117518500D01*
X212128500Y-119020500D01*
X211130500Y-119020500D01*
X211130500Y-117518500D01*
X209628500Y-117518500D01*
X209628500Y-119020500D01*
X208630500Y-119020500D01*
X208630500Y-117518500D01*
X207128500Y-117518500D01*
X207128500Y-119020500D01*
X206130500Y-119020500D01*
X206130500Y-117518500D01*
X204628500Y-117518500D01*
X204628500Y-119020500D01*
X203630500Y-119020500D01*
X203630500Y-117518500D01*
X202128500Y-117518500D01*
X202128500Y-119020500D01*
X201130500Y-119020500D01*
X201130500Y-117518500D01*
X199628500Y-117518500D01*
X199628500Y-119020500D01*
X198630500Y-119020500D01*
X198630500Y-117518500D01*
X197128500Y-117518500D01*
X197128500Y-119020500D01*
X196130500Y-119020500D01*
X196130500Y-117518500D01*
X194628500Y-117518500D01*
X194628500Y-119020500D01*
X193630500Y-119020500D01*
X193630500Y-117518500D01*
X192128500Y-117518500D01*
X192128500Y-119020500D01*
X191130500Y-119020500D01*
X191130500Y-117518500D01*
X189628500Y-117518500D01*
X189628500Y-119020500D01*
X188630500Y-119020500D01*
X188630500Y-117518500D01*
X187128500Y-117518500D01*
X187128500Y-119020500D01*
X186130500Y-119020500D01*
X186130500Y-117518500D01*
X184628500Y-117518500D01*
X184628500Y-119020500D01*
X183630500Y-119020500D01*
X183630500Y-117518500D01*
X182128500Y-117518500D01*
X182128500Y-119020500D01*
X181130500Y-119020500D01*
X181130500Y-117518500D01*
X179628500Y-117518500D01*
X179628500Y-119020500D01*
X178630500Y-119020500D01*
X178630500Y-117518500D01*
X177128500Y-117518500D01*
X177128500Y-119020500D01*
X176130500Y-119020500D01*
X176130500Y-117518500D01*
X174628500Y-117518500D01*
X174628500Y-119020500D01*
X173630500Y-119020500D01*
X173630500Y-117518500D01*
X172128500Y-117518500D01*
X172128500Y-119020500D01*
X171130500Y-119020500D01*
X171130500Y-117518500D01*
X169628500Y-117518500D01*
X169628500Y-119020500D01*
X168630500Y-119020500D01*
X168630500Y-117518500D01*
X167128500Y-117518500D01*
X167128500Y-119020500D01*
X166130500Y-119020500D01*
X166130500Y-117518500D01*
X164628500Y-117518500D01*
X164628500Y-119020500D01*
X163630500Y-119020500D01*
X163630500Y-117518500D01*
X162128500Y-117518500D01*
X162128500Y-119020500D01*
X161130500Y-119020500D01*
X161130500Y-117518500D01*
X159628500Y-117518500D01*
X159628500Y-119020500D01*
X158630500Y-119020500D01*
X158630500Y-117518500D01*
X157128500Y-117518500D01*
X157128500Y-119020500D01*
X156130500Y-119020500D01*
X156130500Y-117518500D01*
X154628500Y-117518500D01*
X154628500Y-119020500D01*
X153630500Y-119020500D01*
X153630500Y-117518500D01*
X152128500Y-117518500D01*
X152128500Y-119020500D01*
X151130500Y-119020500D01*
X151130500Y-117518500D01*
X149628500Y-117518500D01*
X149628500Y-119020500D01*
X148630500Y-119020500D01*
X148630500Y-117518500D01*
X147128500Y-117518500D01*
X147128500Y-119020500D01*
X146130500Y-119020500D01*
X146130500Y-117518500D01*
X144628500Y-117518500D01*
X144628500Y-119020500D01*
X143630500Y-119020500D01*
X143630500Y-117518500D01*
X142128500Y-117518500D01*
X142128500Y-119020500D01*
X141130500Y-119020500D01*
X141130500Y-117518500D01*
X139628500Y-117518500D01*
X139628500Y-119020500D01*
X138630500Y-119020500D01*
X138630500Y-117518500D01*
X137128500Y-117518500D01*
X137128500Y-119020500D01*
X136130500Y-119020500D01*
X136130500Y-117518500D01*
X134628500Y-117518500D01*
X134628500Y-119020500D01*
X133630500Y-119020500D01*
X133630500Y-117518500D01*
X132128500Y-117518500D01*
X132128500Y-119020500D01*
X131130500Y-119020500D01*
X131130500Y-117518500D01*
X129628500Y-117518500D01*
X129628500Y-119020500D01*
X128630500Y-119020500D01*
X128630500Y-117518500D01*
X127878500Y-117518500D01*
X127878500Y-119020500D01*
X126880500Y-119020500D01*
X126880500Y-116520500D01*
X127878500Y-116520500D01*
X128630500Y-116520500D01*
X129628500Y-116520500D01*
X131130500Y-116520500D01*
X132128500Y-116520500D01*
X133630500Y-116520500D01*
X134628500Y-116520500D01*
X136130500Y-116520500D01*
X137128500Y-116520500D01*
X138630500Y-116520500D01*
X139628500Y-116520500D01*
X141130500Y-116520500D01*
X142128500Y-116520500D01*
X143630500Y-116520500D01*
X144628500Y-116520500D01*
X146130500Y-116520500D01*
X147128500Y-116520500D01*
X148630500Y-116520500D01*
X149628500Y-116520500D01*
X151130500Y-116520500D01*
X152128500Y-116520500D01*
X153630500Y-116520500D01*
X154628500Y-116520500D01*
X156130500Y-116520500D01*
X157128500Y-116520500D01*
X158630500Y-116520500D01*
X159628500Y-116520500D01*
X161130500Y-116520500D01*
X162128500Y-116520500D01*
X163630500Y-116520500D01*
X164628500Y-116520500D01*
X166130500Y-116520500D01*
X167128500Y-116520500D01*
X168630500Y-116520500D01*
X169628500Y-116520500D01*
X171130500Y-116520500D01*
X172128500Y-116520500D01*
X173630500Y-116520500D01*
X174628500Y-116520500D01*
X176130500Y-116520500D01*
X177128500Y-116520500D01*
X178630500Y-116520500D01*
X179628500Y-116520500D01*
X181130500Y-116520500D01*
X182128500Y-116520500D01*
X183630500Y-116520500D01*
X184628500Y-116520500D01*
X186130500Y-116520500D01*
X187128500Y-116520500D01*
X188630500Y-116520500D01*
X189628500Y-116520500D01*
X191130500Y-116520500D01*
X192128500Y-116520500D01*
X193630500Y-116520500D01*
X194628500Y-116520500D01*
X196130500Y-116520500D01*
X197128500Y-116520500D01*
X198630500Y-116520500D01*
X199628500Y-116520500D01*
X201130500Y-116520500D01*
X202128500Y-116520500D01*
X203630500Y-116520500D01*
X204628500Y-116520500D01*
X206130500Y-116520500D01*
X207128500Y-116520500D01*
X208630500Y-116520500D01*
X209628500Y-116520500D01*
X211130500Y-116520500D01*
X212128500Y-116520500D01*
X213630500Y-116520500D01*
X214628500Y-116520500D01*
X216130500Y-116520500D01*
X217128500Y-116520500D01*
X218630500Y-116520500D01*
X219628500Y-116520500D01*
X221130500Y-116520500D01*
X222128500Y-116520500D01*
X223630500Y-116520500D01*
X223630500Y-115018500D01*
X222128500Y-115018500D01*
X222128500Y-116520500D01*
X221130500Y-116520500D01*
X221130500Y-115018500D01*
X219628500Y-115018500D01*
X219628500Y-116520500D01*
X218630500Y-116520500D01*
X218630500Y-115018500D01*
X217128500Y-115018500D01*
X217128500Y-116520500D01*
X216130500Y-116520500D01*
X216130500Y-115018500D01*
X214628500Y-115018500D01*
X214628500Y-116520500D01*
X213630500Y-116520500D01*
X213630500Y-115018500D01*
X212128500Y-115018500D01*
X212128500Y-116520500D01*
X211130500Y-116520500D01*
X211130500Y-115018500D01*
X209628500Y-115018500D01*
X209628500Y-116520500D01*
X208630500Y-116520500D01*
X208630500Y-115018500D01*
X207128500Y-115018500D01*
X207128500Y-116520500D01*
X206130500Y-116520500D01*
X206130500Y-115018500D01*
X204628500Y-115018500D01*
X204628500Y-116520500D01*
X203630500Y-116520500D01*
X203630500Y-115018500D01*
X202128500Y-115018500D01*
X202128500Y-116520500D01*
X201130500Y-116520500D01*
X201130500Y-115018500D01*
X199628500Y-115018500D01*
X199628500Y-116520500D01*
X198630500Y-116520500D01*
X198630500Y-115018500D01*
X197128500Y-115018500D01*
X197128500Y-116520500D01*
X196130500Y-116520500D01*
X196130500Y-115018500D01*
X194628500Y-115018500D01*
X194628500Y-116520500D01*
X193630500Y-116520500D01*
X193630500Y-115018500D01*
X192128500Y-115018500D01*
X192128500Y-116520500D01*
X191130500Y-116520500D01*
X191130500Y-115018500D01*
X189628500Y-115018500D01*
X189628500Y-116520500D01*
X188630500Y-116520500D01*
X188630500Y-115018500D01*
X187128500Y-115018500D01*
X187128500Y-116520500D01*
X186130500Y-116520500D01*
X186130500Y-115018500D01*
X184628500Y-115018500D01*
X184628500Y-116520500D01*
X183630500Y-116520500D01*
X183630500Y-115018500D01*
X182128500Y-115018500D01*
X182128500Y-116520500D01*
X181130500Y-116520500D01*
X181130500Y-115018500D01*
X179628500Y-115018500D01*
X179628500Y-116520500D01*
X178630500Y-116520500D01*
X178630500Y-115018500D01*
X177128500Y-115018500D01*
X177128500Y-116520500D01*
X176130500Y-116520500D01*
X176130500Y-115018500D01*
X174628500Y-115018500D01*
X174628500Y-116520500D01*
X173630500Y-116520500D01*
X173630500Y-115018500D01*
X172128500Y-115018500D01*
X172128500Y-116520500D01*
X171130500Y-116520500D01*
X171130500Y-115018500D01*
X169628500Y-115018500D01*
X169628500Y-116520500D01*
X168630500Y-116520500D01*
X168630500Y-115018500D01*
X167128500Y-115018500D01*
X167128500Y-116520500D01*
X166130500Y-116520500D01*
X166130500Y-115018500D01*
X164628500Y-115018500D01*
X164628500Y-116520500D01*
X163630500Y-116520500D01*
X163630500Y-115018500D01*
X162128500Y-115018500D01*
X162128500Y-116520500D01*
X161130500Y-116520500D01*
X161130500Y-115018500D01*
X159628500Y-115018500D01*
X159628500Y-116520500D01*
X158630500Y-116520500D01*
X158630500Y-115018500D01*
X157128500Y-115018500D01*
X157128500Y-116520500D01*
X156130500Y-116520500D01*
X156130500Y-115018500D01*
X154628500Y-115018500D01*
X154628500Y-116520500D01*
X153630500Y-116520500D01*
X153630500Y-115018500D01*
X152128500Y-115018500D01*
X152128500Y-116520500D01*
X151130500Y-116520500D01*
X151130500Y-115018500D01*
X149628500Y-115018500D01*
X149628500Y-116520500D01*
X148630500Y-116520500D01*
X148630500Y-115018500D01*
X147128500Y-115018500D01*
X147128500Y-116520500D01*
X146130500Y-116520500D01*
X146130500Y-115018500D01*
X144628500Y-115018500D01*
X144628500Y-116520500D01*
X143630500Y-116520500D01*
X143630500Y-115018500D01*
X142128500Y-115018500D01*
X142128500Y-116520500D01*
X141130500Y-116520500D01*
X141130500Y-115018500D01*
X139628500Y-115018500D01*
X139628500Y-116520500D01*
X138630500Y-116520500D01*
X138630500Y-115018500D01*
X137128500Y-115018500D01*
X137128500Y-116520500D01*
X136130500Y-116520500D01*
X136130500Y-115018500D01*
X134628500Y-115018500D01*
X134628500Y-116520500D01*
X133630500Y-116520500D01*
X133630500Y-115018500D01*
X132128500Y-115018500D01*
X132128500Y-116520500D01*
X131130500Y-116520500D01*
X131130500Y-115018500D01*
X129628500Y-115018500D01*
X129628500Y-116520500D01*
X128630500Y-116520500D01*
X128630500Y-115018500D01*
X127878500Y-115018500D01*
X127878500Y-116520500D01*
X126880500Y-116520500D01*
X126880500Y-114020500D01*
X127878500Y-114020500D01*
X128630500Y-114020500D01*
X129628500Y-114020500D01*
X131130500Y-114020500D01*
X132128500Y-114020500D01*
X133630500Y-114020500D01*
X134628500Y-114020500D01*
X136130500Y-114020500D01*
X137128500Y-114020500D01*
X138630500Y-114020500D01*
X139628500Y-114020500D01*
X141130500Y-114020500D01*
X142128500Y-114020500D01*
X143630500Y-114020500D01*
X144628500Y-114020500D01*
X146130500Y-114020500D01*
X147128500Y-114020500D01*
X148630500Y-114020500D01*
X149628500Y-114020500D01*
X151130500Y-114020500D01*
X152128500Y-114020500D01*
X153630500Y-114020500D01*
X154628500Y-114020500D01*
X156130500Y-114020500D01*
X157128500Y-114020500D01*
X158630500Y-114020500D01*
X159628500Y-114020500D01*
X161130500Y-114020500D01*
X162128500Y-114020500D01*
X163630500Y-114020500D01*
X164628500Y-114020500D01*
X166130500Y-114020500D01*
X167128500Y-114020500D01*
X168630500Y-114020500D01*
X169628500Y-114020500D01*
X171130500Y-114020500D01*
X172128500Y-114020500D01*
X173630500Y-114020500D01*
X174628500Y-114020500D01*
X176130500Y-114020500D01*
X177128500Y-114020500D01*
X178630500Y-114020500D01*
X179628500Y-114020500D01*
X181130500Y-114020500D01*
X182128500Y-114020500D01*
X183630500Y-114020500D01*
X184628500Y-114020500D01*
X186130500Y-114020500D01*
X187128500Y-114020500D01*
X188630500Y-114020500D01*
X189628500Y-114020500D01*
X191130500Y-114020500D01*
X192128500Y-114020500D01*
X193630500Y-114020500D01*
X194628500Y-114020500D01*
X196130500Y-114020500D01*
X197128500Y-114020500D01*
X198630500Y-114020500D01*
X199628500Y-114020500D01*
X201130500Y-114020500D01*
X202128500Y-114020500D01*
X203630500Y-114020500D01*
X204628500Y-114020500D01*
X206130500Y-114020500D01*
X207128500Y-114020500D01*
X208630500Y-114020500D01*
X209628500Y-114020500D01*
X211130500Y-114020500D01*
X212128500Y-114020500D01*
X213630500Y-114020500D01*
X214628500Y-114020500D01*
X216130500Y-114020500D01*
X217128500Y-114020500D01*
X218630500Y-114020500D01*
X219628500Y-114020500D01*
X221130500Y-114020500D01*
X222128500Y-114020500D01*
X223630500Y-114020500D01*
X223630500Y-112518500D01*
X222128500Y-112518500D01*
X222128500Y-114020500D01*
X221130500Y-114020500D01*
X221130500Y-112518500D01*
X219628500Y-112518500D01*
X219628500Y-114020500D01*
X218630500Y-114020500D01*
X218630500Y-112518500D01*
X217128500Y-112518500D01*
X217128500Y-114020500D01*
X216130500Y-114020500D01*
X216130500Y-112518500D01*
X214628500Y-112518500D01*
X214628500Y-114020500D01*
X213630500Y-114020500D01*
X213630500Y-112518500D01*
X212128500Y-112518500D01*
X212128500Y-114020500D01*
X211130500Y-114020500D01*
X211130500Y-112518500D01*
X209628500Y-112518500D01*
X209628500Y-114020500D01*
X208630500Y-114020500D01*
X208630500Y-112518500D01*
X207128500Y-112518500D01*
X207128500Y-114020500D01*
X206130500Y-114020500D01*
X206130500Y-112518500D01*
X204628500Y-112518500D01*
X204628500Y-114020500D01*
X203630500Y-114020500D01*
X203630500Y-112518500D01*
X202128500Y-112518500D01*
X202128500Y-114020500D01*
X201130500Y-114020500D01*
X201130500Y-112518500D01*
X199628500Y-112518500D01*
X199628500Y-114020500D01*
X198630500Y-114020500D01*
X198630500Y-112518500D01*
X197128500Y-112518500D01*
X197128500Y-114020500D01*
X196130500Y-114020500D01*
X196130500Y-112518500D01*
X194628500Y-112518500D01*
X194628500Y-114020500D01*
X193630500Y-114020500D01*
X193630500Y-112518500D01*
X192128500Y-112518500D01*
X192128500Y-114020500D01*
X191130500Y-114020500D01*
X191130500Y-112518500D01*
X189628500Y-112518500D01*
X189628500Y-114020500D01*
X188630500Y-114020500D01*
X188630500Y-112518500D01*
X187128500Y-112518500D01*
X187128500Y-114020500D01*
X186130500Y-114020500D01*
X186130500Y-112518500D01*
X184628500Y-112518500D01*
X184628500Y-114020500D01*
X183630500Y-114020500D01*
X183630500Y-112518500D01*
X182128500Y-112518500D01*
X182128500Y-114020500D01*
X181130500Y-114020500D01*
X181130500Y-112518500D01*
X179628500Y-112518500D01*
X179628500Y-114020500D01*
X178630500Y-114020500D01*
X178630500Y-112518500D01*
X177128500Y-112518500D01*
X177128500Y-114020500D01*
X176130500Y-114020500D01*
X176130500Y-112518500D01*
X174628500Y-112518500D01*
X174628500Y-114020500D01*
X173630500Y-114020500D01*
X173630500Y-112518500D01*
X172128500Y-112518500D01*
X172128500Y-114020500D01*
X171130500Y-114020500D01*
X171130500Y-112518500D01*
X169628500Y-112518500D01*
X169628500Y-114020500D01*
X168630500Y-114020500D01*
X168630500Y-112518500D01*
X167128500Y-112518500D01*
X167128500Y-114020500D01*
X166130500Y-114020500D01*
X166130500Y-112518500D01*
X164628500Y-112518500D01*
X164628500Y-114020500D01*
X163630500Y-114020500D01*
X163630500Y-112518500D01*
X162128500Y-112518500D01*
X162128500Y-114020500D01*
X161130500Y-114020500D01*
X161130500Y-112518500D01*
X159628500Y-112518500D01*
X159628500Y-114020500D01*
X158630500Y-114020500D01*
X158630500Y-112518500D01*
X157128500Y-112518500D01*
X157128500Y-114020500D01*
X156130500Y-114020500D01*
X156130500Y-112518500D01*
X154628500Y-112518500D01*
X154628500Y-114020500D01*
X153630500Y-114020500D01*
X153630500Y-112518500D01*
X152128500Y-112518500D01*
X152128500Y-114020500D01*
X151130500Y-114020500D01*
X151130500Y-112518500D01*
X149628500Y-112518500D01*
X149628500Y-114020500D01*
X148630500Y-114020500D01*
X148630500Y-112518500D01*
X147128500Y-112518500D01*
X147128500Y-114020500D01*
X146130500Y-114020500D01*
X146130500Y-112518500D01*
X144628500Y-112518500D01*
X144628500Y-114020500D01*
X143630500Y-114020500D01*
X143630500Y-112518500D01*
X142128500Y-112518500D01*
X142128500Y-114020500D01*
X141130500Y-114020500D01*
X141130500Y-112518500D01*
X139628500Y-112518500D01*
X139628500Y-114020500D01*
X138630500Y-114020500D01*
X138630500Y-112518500D01*
X137128500Y-112518500D01*
X137128500Y-114020500D01*
X136130500Y-114020500D01*
X136130500Y-112518500D01*
X134628500Y-112518500D01*
X134628500Y-114020500D01*
X133630500Y-114020500D01*
X133630500Y-112518500D01*
X132128500Y-112518500D01*
X132128500Y-114020500D01*
X131130500Y-114020500D01*
X131130500Y-112518500D01*
X129628500Y-112518500D01*
X129628500Y-114020500D01*
X128630500Y-114020500D01*
X128630500Y-112518500D01*
X127878500Y-112518500D01*
X127878500Y-114020500D01*
X126880500Y-114020500D01*
X126880500Y-111520500D01*
X127878500Y-111520500D01*
X128630500Y-111520500D01*
X129628500Y-111520500D01*
X131130500Y-111520500D01*
X132128500Y-111520500D01*
X133630500Y-111520500D01*
X134628500Y-111520500D01*
X136130500Y-111520500D01*
X137128500Y-111520500D01*
X138630500Y-111520500D01*
X139628500Y-111520500D01*
X141130500Y-111520500D01*
X142128500Y-111520500D01*
X143630500Y-111520500D01*
X144628500Y-111520500D01*
X146130500Y-111520500D01*
X147128500Y-111520500D01*
X148630500Y-111520500D01*
X149628500Y-111520500D01*
X151130500Y-111520500D01*
X152128500Y-111520500D01*
X153630500Y-111520500D01*
X154628500Y-111520500D01*
X156130500Y-111520500D01*
X157128500Y-111520500D01*
X158630500Y-111520500D01*
X159628500Y-111520500D01*
X161130500Y-111520500D01*
X162128500Y-111520500D01*
X163630500Y-111520500D01*
X164628500Y-111520500D01*
X166130500Y-111520500D01*
X167128500Y-111520500D01*
X168630500Y-111520500D01*
X169628500Y-111520500D01*
X171130500Y-111520500D01*
X172128500Y-111520500D01*
X173630500Y-111520500D01*
X174628500Y-111520500D01*
X176130500Y-111520500D01*
X177128500Y-111520500D01*
X178630500Y-111520500D01*
X179628500Y-111520500D01*
X181130500Y-111520500D01*
X182128500Y-111520500D01*
X183630500Y-111520500D01*
X184628500Y-111520500D01*
X186130500Y-111520500D01*
X187128500Y-111520500D01*
X188630500Y-111520500D01*
X189628500Y-111520500D01*
X191130500Y-111520500D01*
X192128500Y-111520500D01*
X193630500Y-111520500D01*
X194628500Y-111520500D01*
X196130500Y-111520500D01*
X197128500Y-111520500D01*
X198630500Y-111520500D01*
X199628500Y-111520500D01*
X201130500Y-111520500D01*
X202128500Y-111520500D01*
X203630500Y-111520500D01*
X204628500Y-111520500D01*
X206130500Y-111520500D01*
X207128500Y-111520500D01*
X208630500Y-111520500D01*
X209628500Y-111520500D01*
X211130500Y-111520500D01*
X212128500Y-111520500D01*
X213630500Y-111520500D01*
X214628500Y-111520500D01*
X216130500Y-111520500D01*
X217128500Y-111520500D01*
X218630500Y-111520500D01*
X219628500Y-111520500D01*
X221130500Y-111520500D01*
X222128500Y-111520500D01*
X223630500Y-111520500D01*
X223630500Y-110018500D01*
X222128500Y-110018500D01*
X222128500Y-111520500D01*
X221130500Y-111520500D01*
X221130500Y-110018500D01*
X219628500Y-110018500D01*
X219628500Y-111520500D01*
X218630500Y-111520500D01*
X218630500Y-110018500D01*
X217128500Y-110018500D01*
X217128500Y-111520500D01*
X216130500Y-111520500D01*
X216130500Y-110018500D01*
X214628500Y-110018500D01*
X214628500Y-111520500D01*
X213630500Y-111520500D01*
X213630500Y-110018500D01*
X212128500Y-110018500D01*
X212128500Y-111520500D01*
X211130500Y-111520500D01*
X211130500Y-110018500D01*
X209628500Y-110018500D01*
X209628500Y-111520500D01*
X208630500Y-111520500D01*
X208630500Y-110018500D01*
X207128500Y-110018500D01*
X207128500Y-111520500D01*
X206130500Y-111520500D01*
X206130500Y-110018500D01*
X204628500Y-110018500D01*
X204628500Y-111520500D01*
X203630500Y-111520500D01*
X203630500Y-110018500D01*
X202128500Y-110018500D01*
X202128500Y-111520500D01*
X201130500Y-111520500D01*
X201130500Y-110018500D01*
X199628500Y-110018500D01*
X199628500Y-111520500D01*
X198630500Y-111520500D01*
X198630500Y-110018500D01*
X197128500Y-110018500D01*
X197128500Y-111520500D01*
X196130500Y-111520500D01*
X196130500Y-110018500D01*
X194628500Y-110018500D01*
X194628500Y-111520500D01*
X193630500Y-111520500D01*
X193630500Y-110018500D01*
X192128500Y-110018500D01*
X192128500Y-111520500D01*
X191130500Y-111520500D01*
X191130500Y-110018500D01*
X189628500Y-110018500D01*
X189628500Y-111520500D01*
X188630500Y-111520500D01*
X188630500Y-110018500D01*
X187128500Y-110018500D01*
X187128500Y-111520500D01*
X186130500Y-111520500D01*
X186130500Y-110018500D01*
X184628500Y-110018500D01*
X184628500Y-111520500D01*
X183630500Y-111520500D01*
X183630500Y-110018500D01*
X182128500Y-110018500D01*
X182128500Y-111520500D01*
X181130500Y-111520500D01*
X181130500Y-110018500D01*
X179628500Y-110018500D01*
X179628500Y-111520500D01*
X178630500Y-111520500D01*
X178630500Y-110018500D01*
X177128500Y-110018500D01*
X177128500Y-111520500D01*
X176130500Y-111520500D01*
X176130500Y-110018500D01*
X174628500Y-110018500D01*
X174628500Y-111520500D01*
X173630500Y-111520500D01*
X173630500Y-110018500D01*
X172128500Y-110018500D01*
X172128500Y-111520500D01*
X171130500Y-111520500D01*
X171130500Y-110018500D01*
X169628500Y-110018500D01*
X169628500Y-111520500D01*
X168630500Y-111520500D01*
X168630500Y-110018500D01*
X167128500Y-110018500D01*
X167128500Y-111520500D01*
X166130500Y-111520500D01*
X166130500Y-110018500D01*
X164628500Y-110018500D01*
X164628500Y-111520500D01*
X163630500Y-111520500D01*
X163630500Y-110018500D01*
X162128500Y-110018500D01*
X162128500Y-111520500D01*
X161130500Y-111520500D01*
X161130500Y-110018500D01*
X159628500Y-110018500D01*
X159628500Y-111520500D01*
X158630500Y-111520500D01*
X158630500Y-110018500D01*
X157128500Y-110018500D01*
X157128500Y-111520500D01*
X156130500Y-111520500D01*
X156130500Y-110018500D01*
X154628500Y-110018500D01*
X154628500Y-111520500D01*
X153630500Y-111520500D01*
X153630500Y-110018500D01*
X152128500Y-110018500D01*
X152128500Y-111520500D01*
X151130500Y-111520500D01*
X151130500Y-110018500D01*
X149628500Y-110018500D01*
X149628500Y-111520500D01*
X148630500Y-111520500D01*
X148630500Y-110018500D01*
X147128500Y-110018500D01*
X147128500Y-111520500D01*
X146130500Y-111520500D01*
X146130500Y-110018500D01*
X144628500Y-110018500D01*
X144628500Y-111520500D01*
X143630500Y-111520500D01*
X143630500Y-110018500D01*
X142128500Y-110018500D01*
X142128500Y-111520500D01*
X141130500Y-111520500D01*
X141130500Y-110018500D01*
X139628500Y-110018500D01*
X139628500Y-111520500D01*
X138630500Y-111520500D01*
X138630500Y-110018500D01*
X137128500Y-110018500D01*
X137128500Y-111520500D01*
X136130500Y-111520500D01*
X136130500Y-110018500D01*
X134628500Y-110018500D01*
X134628500Y-111520500D01*
X133630500Y-111520500D01*
X133630500Y-110018500D01*
X132128500Y-110018500D01*
X132128500Y-111520500D01*
X131130500Y-111520500D01*
X131130500Y-110018500D01*
X129628500Y-110018500D01*
X129628500Y-111520500D01*
X128630500Y-111520500D01*
X128630500Y-110018500D01*
X127878500Y-110018500D01*
X127878500Y-111520500D01*
X126880500Y-111520500D01*
X126880500Y-109020500D01*
X127878500Y-109020500D01*
X128630500Y-109020500D01*
X129628500Y-109020500D01*
X131130500Y-109020500D01*
X132128500Y-109020500D01*
X133630500Y-109020500D01*
X134628500Y-109020500D01*
X136130500Y-109020500D01*
X137128500Y-109020500D01*
X138630500Y-109020500D01*
X139628500Y-109020500D01*
X141130500Y-109020500D01*
X142128500Y-109020500D01*
X143630500Y-109020500D01*
X144628500Y-109020500D01*
X146130500Y-109020500D01*
X147128500Y-109020500D01*
X148630500Y-109020500D01*
X149628500Y-109020500D01*
X151130500Y-109020500D01*
X152128500Y-109020500D01*
X153630500Y-109020500D01*
X154628500Y-109020500D01*
X156130500Y-109020500D01*
X157128500Y-109020500D01*
X158630500Y-109020500D01*
X159628500Y-109020500D01*
X161130500Y-109020500D01*
X162128500Y-109020500D01*
X163630500Y-109020500D01*
X164628500Y-109020500D01*
X166130500Y-109020500D01*
X167128500Y-109020500D01*
X168630500Y-109020500D01*
X169628500Y-109020500D01*
X171130500Y-109020500D01*
X172128500Y-109020500D01*
X173630500Y-109020500D01*
X174628500Y-109020500D01*
X176130500Y-109020500D01*
X177128500Y-109020500D01*
X178630500Y-109020500D01*
X179628500Y-109020500D01*
X181130500Y-109020500D01*
X182128500Y-109020500D01*
X183630500Y-109020500D01*
X184628500Y-109020500D01*
X186130500Y-109020500D01*
X187128500Y-109020500D01*
X188630500Y-109020500D01*
X189628500Y-109020500D01*
X191130500Y-109020500D01*
X192128500Y-109020500D01*
X193630500Y-109020500D01*
X194628500Y-109020500D01*
X196130500Y-109020500D01*
X197128500Y-109020500D01*
X198630500Y-109020500D01*
X199628500Y-109020500D01*
X201130500Y-109020500D01*
X202128500Y-109020500D01*
X203630500Y-109020500D01*
X204628500Y-109020500D01*
X206130500Y-109020500D01*
X207128500Y-109020500D01*
X208630500Y-109020500D01*
X209628500Y-109020500D01*
X211130500Y-109020500D01*
X212128500Y-109020500D01*
X213630500Y-109020500D01*
X214628500Y-109020500D01*
X216130500Y-109020500D01*
X217128500Y-109020500D01*
X218630500Y-109020500D01*
X219628500Y-109020500D01*
X221130500Y-109020500D01*
X222128500Y-109020500D01*
X223630500Y-109020500D01*
X223630500Y-107518500D01*
X222128500Y-107518500D01*
X222128500Y-109020500D01*
X221130500Y-109020500D01*
X221130500Y-107518500D01*
X219628500Y-107518500D01*
X219628500Y-109020500D01*
X218630500Y-109020500D01*
X218630500Y-107518500D01*
X217128500Y-107518500D01*
X217128500Y-109020500D01*
X216130500Y-109020500D01*
X216130500Y-107518500D01*
X214628500Y-107518500D01*
X214628500Y-109020500D01*
X213630500Y-109020500D01*
X213630500Y-107518500D01*
X212128500Y-107518500D01*
X212128500Y-109020500D01*
X211130500Y-109020500D01*
X211130500Y-107518500D01*
X209628500Y-107518500D01*
X209628500Y-109020500D01*
X208630500Y-109020500D01*
X208630500Y-107518500D01*
X207128500Y-107518500D01*
X207128500Y-109020500D01*
X206130500Y-109020500D01*
X206130500Y-107518500D01*
X204628500Y-107518500D01*
X204628500Y-109020500D01*
X203630500Y-109020500D01*
X203630500Y-107518500D01*
X202128500Y-107518500D01*
X202128500Y-109020500D01*
X201130500Y-109020500D01*
X201130500Y-107518500D01*
X199628500Y-107518500D01*
X199628500Y-109020500D01*
X198630500Y-109020500D01*
X198630500Y-107518500D01*
X197128500Y-107518500D01*
X197128500Y-109020500D01*
X196130500Y-109020500D01*
X196130500Y-107518500D01*
X194628500Y-107518500D01*
X194628500Y-109020500D01*
X193630500Y-109020500D01*
X193630500Y-107518500D01*
X192128500Y-107518500D01*
X192128500Y-109020500D01*
X191130500Y-109020500D01*
X191130500Y-107518500D01*
X189628500Y-107518500D01*
X189628500Y-109020500D01*
X188630500Y-109020500D01*
X188630500Y-107518500D01*
X187128500Y-107518500D01*
X187128500Y-109020500D01*
X186130500Y-109020500D01*
X186130500Y-107518500D01*
X184628500Y-107518500D01*
X184628500Y-109020500D01*
X183630500Y-109020500D01*
X183630500Y-107518500D01*
X182128500Y-107518500D01*
X182128500Y-109020500D01*
X181130500Y-109020500D01*
X181130500Y-107518500D01*
X179628500Y-107518500D01*
X179628500Y-109020500D01*
X178630500Y-109020500D01*
X178630500Y-107518500D01*
X177128500Y-107518500D01*
X177128500Y-109020500D01*
X176130500Y-109020500D01*
X176130500Y-107518500D01*
X174628500Y-107518500D01*
X174628500Y-109020500D01*
X173630500Y-109020500D01*
X173630500Y-107518500D01*
X172128500Y-107518500D01*
X172128500Y-109020500D01*
X171130500Y-109020500D01*
X171130500Y-107518500D01*
X169628500Y-107518500D01*
X169628500Y-109020500D01*
X168630500Y-109020500D01*
X168630500Y-107518500D01*
X167128500Y-107518500D01*
X167128500Y-109020500D01*
X166130500Y-109020500D01*
X166130500Y-107518500D01*
X164628500Y-107518500D01*
X164628500Y-109020500D01*
X163630500Y-109020500D01*
X163630500Y-107518500D01*
X162128500Y-107518500D01*
X162128500Y-109020500D01*
X161130500Y-109020500D01*
X161130500Y-107518500D01*
X159628500Y-107518500D01*
X159628500Y-109020500D01*
X158630500Y-109020500D01*
X158630500Y-107518500D01*
X157128500Y-107518500D01*
X157128500Y-109020500D01*
X156130500Y-109020500D01*
X156130500Y-107518500D01*
X154628500Y-107518500D01*
X154628500Y-109020500D01*
X153630500Y-109020500D01*
X153630500Y-107518500D01*
X152128500Y-107518500D01*
X152128500Y-109020500D01*
X151130500Y-109020500D01*
X151130500Y-107518500D01*
X149628500Y-107518500D01*
X149628500Y-109020500D01*
X148630500Y-109020500D01*
X148630500Y-107518500D01*
X147128500Y-107518500D01*
X147128500Y-109020500D01*
X146130500Y-109020500D01*
X146130500Y-107518500D01*
X144628500Y-107518500D01*
X144628500Y-109020500D01*
X143630500Y-109020500D01*
X143630500Y-107518500D01*
X142128500Y-107518500D01*
X142128500Y-109020500D01*
X141130500Y-109020500D01*
X141130500Y-107518500D01*
X139628500Y-107518500D01*
X139628500Y-109020500D01*
X138630500Y-109020500D01*
X138630500Y-107518500D01*
X137128500Y-107518500D01*
X137128500Y-109020500D01*
X136130500Y-109020500D01*
X136130500Y-107518500D01*
X134628500Y-107518500D01*
X134628500Y-109020500D01*
X133630500Y-109020500D01*
X133630500Y-107518500D01*
X132128500Y-107518500D01*
X132128500Y-109020500D01*
X131130500Y-109020500D01*
X131130500Y-107518500D01*
X129628500Y-107518500D01*
X129628500Y-109020500D01*
X128630500Y-109020500D01*
X128630500Y-107518500D01*
X127878500Y-107518500D01*
X127878500Y-109020500D01*
X126880500Y-109020500D01*
X126880500Y-106520500D01*
X127878500Y-106520500D01*
X128630500Y-106520500D01*
X129628500Y-106520500D01*
X131130500Y-106520500D01*
X132128500Y-106520500D01*
X133630500Y-106520500D01*
X134628500Y-106520500D01*
X136130500Y-106520500D01*
X137128500Y-106520500D01*
X138630500Y-106520500D01*
X139628500Y-106520500D01*
X141130500Y-106520500D01*
X142128500Y-106520500D01*
X143630500Y-106520500D01*
X144628500Y-106520500D01*
X146130500Y-106520500D01*
X147128500Y-106520500D01*
X148630500Y-106520500D01*
X149628500Y-106520500D01*
X151130500Y-106520500D01*
X152128500Y-106520500D01*
X153630500Y-106520500D01*
X154628500Y-106520500D01*
X156130500Y-106520500D01*
X157128500Y-106520500D01*
X158630500Y-106520500D01*
X159628500Y-106520500D01*
X161130500Y-106520500D01*
X162128500Y-106520500D01*
X163630500Y-106520500D01*
X164628500Y-106520500D01*
X166130500Y-106520500D01*
X167128500Y-106520500D01*
X168630500Y-106520500D01*
X169628500Y-106520500D01*
X171130500Y-106520500D01*
X172128500Y-106520500D01*
X173630500Y-106520500D01*
X174628500Y-106520500D01*
X176130500Y-106520500D01*
X177128500Y-106520500D01*
X178630500Y-106520500D01*
X179628500Y-106520500D01*
X181130500Y-106520500D01*
X182128500Y-106520500D01*
X183630500Y-106520500D01*
X184628500Y-106520500D01*
X186130500Y-106520500D01*
X187128500Y-106520500D01*
X188630500Y-106520500D01*
X189628500Y-106520500D01*
X191130500Y-106520500D01*
X192128500Y-106520500D01*
X193630500Y-106520500D01*
X194628500Y-106520500D01*
X196130500Y-106520500D01*
X197128500Y-106520500D01*
X198630500Y-106520500D01*
X199628500Y-106520500D01*
X201130500Y-106520500D01*
X202128500Y-106520500D01*
X203630500Y-106520500D01*
X204628500Y-106520500D01*
X206130500Y-106520500D01*
X207128500Y-106520500D01*
X208630500Y-106520500D01*
X209628500Y-106520500D01*
X211130500Y-106520500D01*
X212128500Y-106520500D01*
X213630500Y-106520500D01*
X214628500Y-106520500D01*
X216130500Y-106520500D01*
X217128500Y-106520500D01*
X218630500Y-106520500D01*
X219628500Y-106520500D01*
X221130500Y-106520500D01*
X222128500Y-106520500D01*
X223630500Y-106520500D01*
X223630500Y-105018500D01*
X222128500Y-105018500D01*
X222128500Y-106520500D01*
X221130500Y-106520500D01*
X221130500Y-105018500D01*
X219628500Y-105018500D01*
X219628500Y-106520500D01*
X218630500Y-106520500D01*
X218630500Y-105018500D01*
X217128500Y-105018500D01*
X217128500Y-106520500D01*
X216130500Y-106520500D01*
X216130500Y-105018500D01*
X214628500Y-105018500D01*
X214628500Y-106520500D01*
X213630500Y-106520500D01*
X213630500Y-105018500D01*
X212128500Y-105018500D01*
X212128500Y-106520500D01*
X211130500Y-106520500D01*
X211130500Y-105018500D01*
X209628500Y-105018500D01*
X209628500Y-106520500D01*
X208630500Y-106520500D01*
X208630500Y-105018500D01*
X207128500Y-105018500D01*
X207128500Y-106520500D01*
X206130500Y-106520500D01*
X206130500Y-105018500D01*
X204628500Y-105018500D01*
X204628500Y-106520500D01*
X203630500Y-106520500D01*
X203630500Y-105018500D01*
X202128500Y-105018500D01*
X202128500Y-106520500D01*
X201130500Y-106520500D01*
X201130500Y-105018500D01*
X199628500Y-105018500D01*
X199628500Y-106520500D01*
X198630500Y-106520500D01*
X198630500Y-105018500D01*
X197128500Y-105018500D01*
X197128500Y-106520500D01*
X196130500Y-106520500D01*
X196130500Y-105018500D01*
X194628500Y-105018500D01*
X194628500Y-106520500D01*
X193630500Y-106520500D01*
X193630500Y-105018500D01*
X192128500Y-105018500D01*
X192128500Y-106520500D01*
X191130500Y-106520500D01*
X191130500Y-105018500D01*
X189628500Y-105018500D01*
X189628500Y-106520500D01*
X188630500Y-106520500D01*
X188630500Y-105018500D01*
X187128500Y-105018500D01*
X187128500Y-106520500D01*
X186130500Y-106520500D01*
X186130500Y-105018500D01*
X184628500Y-105018500D01*
X184628500Y-106520500D01*
X183630500Y-106520500D01*
X183630500Y-105018500D01*
X182128500Y-105018500D01*
X182128500Y-106520500D01*
X181130500Y-106520500D01*
X181130500Y-105018500D01*
X179628500Y-105018500D01*
X179628500Y-106520500D01*
X178630500Y-106520500D01*
X178630500Y-105018500D01*
X177128500Y-105018500D01*
X177128500Y-106520500D01*
X176130500Y-106520500D01*
X176130500Y-105018500D01*
X174628500Y-105018500D01*
X174628500Y-106520500D01*
X173630500Y-106520500D01*
X173630500Y-105018500D01*
X172128500Y-105018500D01*
X172128500Y-106520500D01*
X171130500Y-106520500D01*
X171130500Y-105018500D01*
X169628500Y-105018500D01*
X169628500Y-106520500D01*
X168630500Y-106520500D01*
X168630500Y-105018500D01*
X167128500Y-105018500D01*
X167128500Y-106520500D01*
X166130500Y-106520500D01*
X166130500Y-105018500D01*
X164628500Y-105018500D01*
X164628500Y-106520500D01*
X163630500Y-106520500D01*
X163630500Y-105018500D01*
X162128500Y-105018500D01*
X162128500Y-106520500D01*
X161130500Y-106520500D01*
X161130500Y-105018500D01*
X159628500Y-105018500D01*
X159628500Y-106520500D01*
X158630500Y-106520500D01*
X158630500Y-105018500D01*
X157128500Y-105018500D01*
X157128500Y-106520500D01*
X156130500Y-106520500D01*
X156130500Y-105018500D01*
X154628500Y-105018500D01*
X154628500Y-106520500D01*
X153630500Y-106520500D01*
X153630500Y-105018500D01*
X152128500Y-105018500D01*
X152128500Y-106520500D01*
X151130500Y-106520500D01*
X151130500Y-105018500D01*
X149628500Y-105018500D01*
X149628500Y-106520500D01*
X148630500Y-106520500D01*
X148630500Y-105018500D01*
X147128500Y-105018500D01*
X147128500Y-106520500D01*
X146130500Y-106520500D01*
X146130500Y-105018500D01*
X144628500Y-105018500D01*
X144628500Y-106520500D01*
X143630500Y-106520500D01*
X143630500Y-105018500D01*
X142128500Y-105018500D01*
X142128500Y-106520500D01*
X141130500Y-106520500D01*
X141130500Y-105018500D01*
X139628500Y-105018500D01*
X139628500Y-106520500D01*
X138630500Y-106520500D01*
X138630500Y-105018500D01*
X137128500Y-105018500D01*
X137128500Y-106520500D01*
X136130500Y-106520500D01*
X136130500Y-105018500D01*
X134628500Y-105018500D01*
X134628500Y-106520500D01*
X133630500Y-106520500D01*
X133630500Y-105018500D01*
X132128500Y-105018500D01*
X132128500Y-106520500D01*
X131130500Y-106520500D01*
X131130500Y-105018500D01*
X129628500Y-105018500D01*
X129628500Y-106520500D01*
X128630500Y-106520500D01*
X128630500Y-105018500D01*
X127878500Y-105018500D01*
X127878500Y-106520500D01*
X126880500Y-106520500D01*
X126880500Y-104020500D01*
X127878500Y-104020500D01*
X128630500Y-104020500D01*
X129628500Y-104020500D01*
X131130500Y-104020500D01*
X132128500Y-104020500D01*
X133630500Y-104020500D01*
X134628500Y-104020500D01*
X136130500Y-104020500D01*
X137128500Y-104020500D01*
X138630500Y-104020500D01*
X139628500Y-104020500D01*
X141130500Y-104020500D01*
X142128500Y-104020500D01*
X143630500Y-104020500D01*
X144628500Y-104020500D01*
X146130500Y-104020500D01*
X147128500Y-104020500D01*
X148630500Y-104020500D01*
X149628500Y-104020500D01*
X151130500Y-104020500D01*
X152128500Y-104020500D01*
X153630500Y-104020500D01*
X154628500Y-104020500D01*
X156130500Y-104020500D01*
X157128500Y-104020500D01*
X158630500Y-104020500D01*
X159628500Y-104020500D01*
X161130500Y-104020500D01*
X162128500Y-104020500D01*
X163630500Y-104020500D01*
X164628500Y-104020500D01*
X166130500Y-104020500D01*
X167128500Y-104020500D01*
X168630500Y-104020500D01*
X169628500Y-104020500D01*
X171130500Y-104020500D01*
X172128500Y-104020500D01*
X173630500Y-104020500D01*
X174628500Y-104020500D01*
X176130500Y-104020500D01*
X177128500Y-104020500D01*
X178630500Y-104020500D01*
X179628500Y-104020500D01*
X181130500Y-104020500D01*
X182128500Y-104020500D01*
X183630500Y-104020500D01*
X184628500Y-104020500D01*
X186130500Y-104020500D01*
X187128500Y-104020500D01*
X188630500Y-104020500D01*
X189628500Y-104020500D01*
X191130500Y-104020500D01*
X192128500Y-104020500D01*
X193630500Y-104020500D01*
X194628500Y-104020500D01*
X196130500Y-104020500D01*
X197128500Y-104020500D01*
X198630500Y-104020500D01*
X199628500Y-104020500D01*
X201130500Y-104020500D01*
X202128500Y-104020500D01*
X203630500Y-104020500D01*
X204628500Y-104020500D01*
X206130500Y-104020500D01*
X207128500Y-104020500D01*
X208630500Y-104020500D01*
X209628500Y-104020500D01*
X211130500Y-104020500D01*
X212128500Y-104020500D01*
X213630500Y-104020500D01*
X214628500Y-104020500D01*
X216130500Y-104020500D01*
X217128500Y-104020500D01*
X218630500Y-104020500D01*
X219628500Y-104020500D01*
X221130500Y-104020500D01*
X222128500Y-104020500D01*
X223630500Y-104020500D01*
X223630500Y-102518500D01*
X222128500Y-102518500D01*
X222128500Y-104020500D01*
X221130500Y-104020500D01*
X221130500Y-102518500D01*
X219628500Y-102518500D01*
X219628500Y-104020500D01*
X218630500Y-104020500D01*
X218630500Y-102518500D01*
X217128500Y-102518500D01*
X217128500Y-104020500D01*
X216130500Y-104020500D01*
X216130500Y-102518500D01*
X214628500Y-102518500D01*
X214628500Y-104020500D01*
X213630500Y-104020500D01*
X213630500Y-102518500D01*
X212128500Y-102518500D01*
X212128500Y-104020500D01*
X211130500Y-104020500D01*
X211130500Y-102518500D01*
X209628500Y-102518500D01*
X209628500Y-104020500D01*
X208630500Y-104020500D01*
X208630500Y-102518500D01*
X207128500Y-102518500D01*
X207128500Y-104020500D01*
X206130500Y-104020500D01*
X206130500Y-102518500D01*
X204628500Y-102518500D01*
X204628500Y-104020500D01*
X203630500Y-104020500D01*
X203630500Y-102518500D01*
X202128500Y-102518500D01*
X202128500Y-104020500D01*
X201130500Y-104020500D01*
X201130500Y-102518500D01*
X199628500Y-102518500D01*
X199628500Y-104020500D01*
X198630500Y-104020500D01*
X198630500Y-102518500D01*
X197128500Y-102518500D01*
X197128500Y-104020500D01*
X196130500Y-104020500D01*
X196130500Y-102518500D01*
X194628500Y-102518500D01*
X194628500Y-104020500D01*
X193630500Y-104020500D01*
X193630500Y-102518500D01*
X192128500Y-102518500D01*
X192128500Y-104020500D01*
X191130500Y-104020500D01*
X191130500Y-102518500D01*
X189628500Y-102518500D01*
X189628500Y-104020500D01*
X188630500Y-104020500D01*
X188630500Y-102518500D01*
X187128500Y-102518500D01*
X187128500Y-104020500D01*
X186130500Y-104020500D01*
X186130500Y-102518500D01*
X184628500Y-102518500D01*
X184628500Y-104020500D01*
X183630500Y-104020500D01*
X183630500Y-102518500D01*
X182128500Y-102518500D01*
X182128500Y-104020500D01*
X181130500Y-104020500D01*
X181130500Y-102518500D01*
X179628500Y-102518500D01*
X179628500Y-104020500D01*
X178630500Y-104020500D01*
X178630500Y-102518500D01*
X177128500Y-102518500D01*
X177128500Y-104020500D01*
X176130500Y-104020500D01*
X176130500Y-102518500D01*
X174628500Y-102518500D01*
X174628500Y-104020500D01*
X173630500Y-104020500D01*
X173630500Y-102518500D01*
X172128500Y-102518500D01*
X172128500Y-104020500D01*
X171130500Y-104020500D01*
X171130500Y-102518500D01*
X169628500Y-102518500D01*
X169628500Y-104020500D01*
X168630500Y-104020500D01*
X168630500Y-102518500D01*
X167128500Y-102518500D01*
X167128500Y-104020500D01*
X166130500Y-104020500D01*
X166130500Y-102518500D01*
X164628500Y-102518500D01*
X164628500Y-104020500D01*
X163630500Y-104020500D01*
X163630500Y-102518500D01*
X162128500Y-102518500D01*
X162128500Y-104020500D01*
X161130500Y-104020500D01*
X161130500Y-102518500D01*
X159628500Y-102518500D01*
X159628500Y-104020500D01*
X158630500Y-104020500D01*
X158630500Y-102518500D01*
X157128500Y-102518500D01*
X157128500Y-104020500D01*
X156130500Y-104020500D01*
X156130500Y-102518500D01*
X154628500Y-102518500D01*
X154628500Y-104020500D01*
X153630500Y-104020500D01*
X153630500Y-102518500D01*
X152128500Y-102518500D01*
X152128500Y-104020500D01*
X151130500Y-104020500D01*
X151130500Y-102518500D01*
X149628500Y-102518500D01*
X149628500Y-104020500D01*
X148630500Y-104020500D01*
X148630500Y-102518500D01*
X147128500Y-102518500D01*
X147128500Y-104020500D01*
X146130500Y-104020500D01*
X146130500Y-102518500D01*
X144628500Y-102518500D01*
X144628500Y-104020500D01*
X143630500Y-104020500D01*
X143630500Y-102518500D01*
X142128500Y-102518500D01*
X142128500Y-104020500D01*
X141130500Y-104020500D01*
X141130500Y-102518500D01*
X139628500Y-102518500D01*
X139628500Y-104020500D01*
X138630500Y-104020500D01*
X138630500Y-102518500D01*
X137128500Y-102518500D01*
X137128500Y-104020500D01*
X136130500Y-104020500D01*
X136130500Y-102518500D01*
X134628500Y-102518500D01*
X134628500Y-104020500D01*
X133630500Y-104020500D01*
X133630500Y-102518500D01*
X132128500Y-102518500D01*
X132128500Y-104020500D01*
X131130500Y-104020500D01*
X131130500Y-102518500D01*
X129628500Y-102518500D01*
X129628500Y-104020500D01*
X128630500Y-104020500D01*
X128630500Y-102518500D01*
X127878500Y-102518500D01*
X127878500Y-104020500D01*
X126880500Y-104020500D01*
X126880500Y-101520500D01*
X127878500Y-101520500D01*
X128630500Y-101520500D01*
X129628500Y-101520500D01*
X131130500Y-101520500D01*
X132128500Y-101520500D01*
X133630500Y-101520500D01*
X134628500Y-101520500D01*
X136130500Y-101520500D01*
X137128500Y-101520500D01*
X138630500Y-101520500D01*
X139628500Y-101520500D01*
X141130500Y-101520500D01*
X142128500Y-101520500D01*
X143630500Y-101520500D01*
X144628500Y-101520500D01*
X146130500Y-101520500D01*
X147128500Y-101520500D01*
X148630500Y-101520500D01*
X149628500Y-101520500D01*
X151130500Y-101520500D01*
X152128500Y-101520500D01*
X153630500Y-101520500D01*
X154628500Y-101520500D01*
X156130500Y-101520500D01*
X157128500Y-101520500D01*
X158630500Y-101520500D01*
X159628500Y-101520500D01*
X161130500Y-101520500D01*
X162128500Y-101520500D01*
X163630500Y-101520500D01*
X164628500Y-101520500D01*
X166130500Y-101520500D01*
X167128500Y-101520500D01*
X168630500Y-101520500D01*
X169628500Y-101520500D01*
X171130500Y-101520500D01*
X172128500Y-101520500D01*
X173630500Y-101520500D01*
X174628500Y-101520500D01*
X176130500Y-101520500D01*
X177128500Y-101520500D01*
X178630500Y-101520500D01*
X179628500Y-101520500D01*
X181130500Y-101520500D01*
X182128500Y-101520500D01*
X183630500Y-101520500D01*
X184628500Y-101520500D01*
X186130500Y-101520500D01*
X187128500Y-101520500D01*
X188630500Y-101520500D01*
X189628500Y-101520500D01*
X191130500Y-101520500D01*
X192128500Y-101520500D01*
X193630500Y-101520500D01*
X194628500Y-101520500D01*
X196130500Y-101520500D01*
X197128500Y-101520500D01*
X198630500Y-101520500D01*
X199628500Y-101520500D01*
X201130500Y-101520500D01*
X202128500Y-101520500D01*
X203630500Y-101520500D01*
X204628500Y-101520500D01*
X206130500Y-101520500D01*
X207128500Y-101520500D01*
X208630500Y-101520500D01*
X209628500Y-101520500D01*
X211130500Y-101520500D01*
X212128500Y-101520500D01*
X213630500Y-101520500D01*
X214628500Y-101520500D01*
X216130500Y-101520500D01*
X217128500Y-101520500D01*
X218630500Y-101520500D01*
X219628500Y-101520500D01*
X221130500Y-101520500D01*
X222128500Y-101520500D01*
X223630500Y-101520500D01*
X223630500Y-100018500D01*
X222128500Y-100018500D01*
X222128500Y-101520500D01*
X221130500Y-101520500D01*
X221130500Y-100018500D01*
X219628500Y-100018500D01*
X219628500Y-101520500D01*
X218630500Y-101520500D01*
X218630500Y-100018500D01*
X217128500Y-100018500D01*
X217128500Y-101520500D01*
X216130500Y-101520500D01*
X216130500Y-100018500D01*
X214628500Y-100018500D01*
X214628500Y-101520500D01*
X213630500Y-101520500D01*
X213630500Y-100018500D01*
X212128500Y-100018500D01*
X212128500Y-101520500D01*
X211130500Y-101520500D01*
X211130500Y-100018500D01*
X209628500Y-100018500D01*
X209628500Y-101520500D01*
X208630500Y-101520500D01*
X208630500Y-100018500D01*
X207128500Y-100018500D01*
X207128500Y-101520500D01*
X206130500Y-101520500D01*
X206130500Y-100018500D01*
X204628500Y-100018500D01*
X204628500Y-101520500D01*
X203630500Y-101520500D01*
X203630500Y-100018500D01*
X202128500Y-100018500D01*
X202128500Y-101520500D01*
X201130500Y-101520500D01*
X201130500Y-100018500D01*
X199628500Y-100018500D01*
X199628500Y-101520500D01*
X198630500Y-101520500D01*
X198630500Y-100018500D01*
X197128500Y-100018500D01*
X197128500Y-101520500D01*
X196130500Y-101520500D01*
X196130500Y-100018500D01*
X194628500Y-100018500D01*
X194628500Y-101520500D01*
X193630500Y-101520500D01*
X193630500Y-100018500D01*
X192128500Y-100018500D01*
X192128500Y-101520500D01*
X191130500Y-101520500D01*
X191130500Y-100018500D01*
X189628500Y-100018500D01*
X189628500Y-101520500D01*
X188630500Y-101520500D01*
X188630500Y-100018500D01*
X187128500Y-100018500D01*
X187128500Y-101520500D01*
X186130500Y-101520500D01*
X186130500Y-100018500D01*
X184628500Y-100018500D01*
X184628500Y-101520500D01*
X183630500Y-101520500D01*
X183630500Y-100018500D01*
X182128500Y-100018500D01*
X182128500Y-101520500D01*
X181130500Y-101520500D01*
X181130500Y-100018500D01*
X179628500Y-100018500D01*
X179628500Y-101520500D01*
X178630500Y-101520500D01*
X178630500Y-100018500D01*
X177128500Y-100018500D01*
X177128500Y-101520500D01*
X176130500Y-101520500D01*
X176130500Y-100048499D01*
X174628500Y-100048499D01*
X174628500Y-101520500D01*
X173630500Y-101520500D01*
X173630500Y-100035126D01*
X173611075Y-100033038D01*
X173603407Y-100031971D01*
X173557221Y-100024064D01*
X173549631Y-100022519D01*
X173532622Y-100018500D01*
X172128500Y-100018500D01*
X172128500Y-101520500D01*
X171130500Y-101520500D01*
X171130500Y-100018500D01*
X169628500Y-100018500D01*
X169628500Y-101520500D01*
X168630500Y-101520500D01*
X168630500Y-100018500D01*
X167128500Y-100018500D01*
X167128500Y-101520500D01*
X166130500Y-101520500D01*
X166130500Y-100018500D01*
X164628500Y-100018500D01*
X164628500Y-101520500D01*
X163630500Y-101520500D01*
X163630500Y-100018500D01*
X162128500Y-100018500D01*
X162128500Y-101520500D01*
X161130500Y-101520500D01*
X161130500Y-100018500D01*
X159628500Y-100018500D01*
X159628500Y-101520500D01*
X158630500Y-101520500D01*
X158630500Y-100018500D01*
X157128500Y-100018500D01*
X157128500Y-101520500D01*
X156130500Y-101520500D01*
X156130500Y-100018500D01*
X154628500Y-100018500D01*
X154628500Y-101520500D01*
X153630500Y-101520500D01*
X153630500Y-100018500D01*
X152128500Y-100018500D01*
X152128500Y-101520500D01*
X151130500Y-101520500D01*
X151130500Y-100018500D01*
X149628500Y-100018500D01*
X149628500Y-101520500D01*
X148630500Y-101520500D01*
X148630500Y-100018500D01*
X147128500Y-100018500D01*
X147128500Y-101520500D01*
X146130500Y-101520500D01*
X146130500Y-100018500D01*
X144628500Y-100018500D01*
X144628500Y-101520500D01*
X143630500Y-101520500D01*
X143630500Y-100018500D01*
X142128500Y-100018500D01*
X142128500Y-101520500D01*
X141130500Y-101520500D01*
X141130500Y-100018500D01*
X139628500Y-100018500D01*
X139628500Y-101520500D01*
X138630500Y-101520500D01*
X138630500Y-100018500D01*
X137128500Y-100018500D01*
X137128500Y-101520500D01*
X136130500Y-101520500D01*
X136130500Y-100018500D01*
X134628500Y-100018500D01*
X134628500Y-101520500D01*
X133630500Y-101520500D01*
X133630500Y-100018500D01*
X132128500Y-100018500D01*
X132128500Y-101520500D01*
X131130500Y-101520500D01*
X131130500Y-100018500D01*
X129628500Y-100018500D01*
X129628500Y-101520500D01*
X128630500Y-101520500D01*
X128630500Y-100018500D01*
X127878500Y-100018500D01*
X127878500Y-101520500D01*
X126880500Y-101520500D01*
X126880500Y-99020500D01*
X127878500Y-99020500D01*
X128630500Y-99020500D01*
X129628500Y-99020500D01*
X131130500Y-99020500D01*
X132128500Y-99020500D01*
X133630500Y-99020500D01*
X134628500Y-99020500D01*
X136130500Y-99020500D01*
X137128500Y-99020500D01*
X138630500Y-99020500D01*
X139628500Y-99020500D01*
X141130500Y-99020500D01*
X142128500Y-99020500D01*
X143630500Y-99020500D01*
X144628500Y-99020500D01*
X146130500Y-99020500D01*
X147128500Y-99020500D01*
X148630500Y-99020500D01*
X149628500Y-99020500D01*
X151130500Y-99020500D01*
X152128500Y-99020500D01*
X153630500Y-99020500D01*
X154628500Y-99020500D01*
X156130500Y-99020500D01*
X157128500Y-99020500D01*
X158630500Y-99020500D01*
X159628500Y-99020500D01*
X161130500Y-99020500D01*
X162128500Y-99020500D01*
X163630500Y-99020500D01*
X164628500Y-99020500D01*
X166130500Y-99020500D01*
X167128500Y-99020500D01*
X168630500Y-99020500D01*
X169628500Y-99020500D01*
X171130500Y-99020500D01*
X171130500Y-97518500D01*
X169628500Y-97518500D01*
X169628500Y-99020500D01*
X168630500Y-99020500D01*
X168630500Y-97518500D01*
X167128500Y-97518500D01*
X167128500Y-99020500D01*
X166130500Y-99020500D01*
X166130500Y-97518500D01*
X164628500Y-97518500D01*
X164628500Y-99020500D01*
X163630500Y-99020500D01*
X163630500Y-97518500D01*
X162128500Y-97518500D01*
X162128500Y-99020500D01*
X161130500Y-99020500D01*
X161130500Y-97518500D01*
X159628500Y-97518500D01*
X159628500Y-99020500D01*
X158630500Y-99020500D01*
X158630500Y-97518500D01*
X157128500Y-97518500D01*
X157128500Y-99020500D01*
X156130500Y-99020500D01*
X156130500Y-97518500D01*
X154628500Y-97518500D01*
X154628500Y-99020500D01*
X153630500Y-99020500D01*
X153630500Y-97518500D01*
X152128500Y-97518500D01*
X152128500Y-99020500D01*
X151130500Y-99020500D01*
X151130500Y-97518500D01*
X149628500Y-97518500D01*
X149628500Y-99020500D01*
X148630500Y-99020500D01*
X148630500Y-97518500D01*
X147128500Y-97518500D01*
X147128500Y-99020500D01*
X146130500Y-99020500D01*
X146130500Y-97518500D01*
X144628500Y-97518500D01*
X144628500Y-99020500D01*
X143630500Y-99020500D01*
X143630500Y-97518500D01*
X142128500Y-97518500D01*
X142128500Y-99020500D01*
X141130500Y-99020500D01*
X141130500Y-97518500D01*
X139628500Y-97518500D01*
X139628500Y-99020500D01*
X138630500Y-99020500D01*
X138630500Y-97518500D01*
X137128500Y-97518500D01*
X137128500Y-99020500D01*
X136130500Y-99020500D01*
X136130500Y-97518500D01*
X134628500Y-97518500D01*
X134628500Y-99020500D01*
X133630500Y-99020500D01*
X133630500Y-97518500D01*
X132128500Y-97518500D01*
X132128500Y-99020500D01*
X131130500Y-99020500D01*
X131130500Y-97518500D01*
X129628500Y-97518500D01*
X129628500Y-99020500D01*
X128630500Y-99020500D01*
X128630500Y-97518500D01*
X127878500Y-97518500D01*
X127878500Y-99020500D01*
X126880500Y-99020500D01*
X126880500Y-97502135D01*
X173355750Y-97502135D01*
X173355750Y-98597870D01*
X173355751Y-98597876D01*
X173362158Y-98657483D01*
X173412452Y-98792328D01*
X173412456Y-98792335D01*
X173498702Y-98907544D01*
X173498705Y-98907547D01*
X173613914Y-98993793D01*
X173613921Y-98993797D01*
X173748767Y-99044091D01*
X173748766Y-99044091D01*
X173755694Y-99044835D01*
X173808377Y-99050500D01*
X176414122Y-99050499D01*
X176473733Y-99044091D01*
X176536984Y-99020500D01*
X177790101Y-99020500D01*
X178630500Y-99020500D01*
X179628500Y-99020500D01*
X181130500Y-99020500D01*
X182128500Y-99020500D01*
X183630500Y-99020500D01*
X184628500Y-99020500D01*
X186130500Y-99020500D01*
X187128500Y-99020500D01*
X188630500Y-99020500D01*
X189628500Y-99020500D01*
X191130500Y-99020500D01*
X192128500Y-99020500D01*
X193630500Y-99020500D01*
X194628500Y-99020500D01*
X196130500Y-99020500D01*
X197128500Y-99020500D01*
X198630500Y-99020500D01*
X199628500Y-99020500D01*
X201130500Y-99020500D01*
X202128500Y-99020500D01*
X203630500Y-99020500D01*
X204628500Y-99020500D01*
X206130500Y-99020500D01*
X207128500Y-99020500D01*
X208630500Y-99020500D01*
X209628500Y-99020500D01*
X211130500Y-99020500D01*
X212128500Y-99020500D01*
X213630500Y-99020500D01*
X214628500Y-99020500D01*
X216130500Y-99020500D01*
X217128500Y-99020500D01*
X218630500Y-99020500D01*
X219628500Y-99020500D01*
X221130500Y-99020500D01*
X222128500Y-99020500D01*
X223630500Y-99020500D01*
X223630500Y-97518500D01*
X222128500Y-97518500D01*
X222128500Y-99020500D01*
X221130500Y-99020500D01*
X221130500Y-97518500D01*
X219628500Y-97518500D01*
X219628500Y-99020500D01*
X218630500Y-99020500D01*
X218630500Y-97518500D01*
X217128500Y-97518500D01*
X217128500Y-99020500D01*
X216130500Y-99020500D01*
X216130500Y-97518500D01*
X214628500Y-97518500D01*
X214628500Y-99020500D01*
X213630500Y-99020500D01*
X213630500Y-97518500D01*
X212128500Y-97518500D01*
X212128500Y-99020500D01*
X211130500Y-99020500D01*
X211130500Y-97518500D01*
X209628500Y-97518500D01*
X209628500Y-99020500D01*
X208630500Y-99020500D01*
X208630500Y-97518500D01*
X207128500Y-97518500D01*
X207128500Y-99020500D01*
X206130500Y-99020500D01*
X206130500Y-97518500D01*
X204628500Y-97518500D01*
X204628500Y-99020500D01*
X203630500Y-99020500D01*
X203630500Y-97518500D01*
X202128500Y-97518500D01*
X202128500Y-99020500D01*
X201130500Y-99020500D01*
X201130500Y-97518500D01*
X199628500Y-97518500D01*
X199628500Y-99020500D01*
X198630500Y-99020500D01*
X198630500Y-97518500D01*
X197128500Y-97518500D01*
X197128500Y-99020500D01*
X196130500Y-99020500D01*
X196130500Y-97518500D01*
X194628500Y-97518500D01*
X194628500Y-99020500D01*
X193630500Y-99020500D01*
X193630500Y-97518500D01*
X192128500Y-97518500D01*
X192128500Y-99020500D01*
X191130500Y-99020500D01*
X191130500Y-97518500D01*
X189628500Y-97518500D01*
X189628500Y-99020500D01*
X188630500Y-99020500D01*
X188630500Y-97518500D01*
X187128500Y-97518500D01*
X187128500Y-99020500D01*
X186130500Y-99020500D01*
X186130500Y-97518500D01*
X184628500Y-97518500D01*
X184628500Y-99020500D01*
X183630500Y-99020500D01*
X183630500Y-97518500D01*
X182128500Y-97518500D01*
X182128500Y-99020500D01*
X181130500Y-99020500D01*
X181130500Y-97518500D01*
X179628500Y-97518500D01*
X179628500Y-99020500D01*
X178630500Y-99020500D01*
X178630500Y-97518500D01*
X177864749Y-97518500D01*
X177864750Y-98611248D01*
X177864705Y-98614572D01*
X177864166Y-98634673D01*
X177864033Y-98637993D01*
X177862601Y-98664680D01*
X177862379Y-98667989D01*
X177860769Y-98687982D01*
X177860458Y-98691285D01*
X177849288Y-98795175D01*
X177848221Y-98802843D01*
X177840314Y-98849029D01*
X177838769Y-98856619D01*
X177824424Y-98917330D01*
X177822408Y-98924809D01*
X177808800Y-98969672D01*
X177806321Y-98977012D01*
X177790101Y-99020500D01*
X176536984Y-99020500D01*
X176608581Y-98993796D01*
X176723796Y-98907546D01*
X176810046Y-98792331D01*
X176860341Y-98657483D01*
X176866750Y-98597873D01*
X176866749Y-97502128D01*
X176860341Y-97442517D01*
X176810046Y-97307669D01*
X176810045Y-97307668D01*
X176810043Y-97307664D01*
X176723797Y-97192455D01*
X176723794Y-97192452D01*
X176608585Y-97106206D01*
X176608578Y-97106202D01*
X176473732Y-97055908D01*
X176473733Y-97055908D01*
X176414133Y-97049501D01*
X176414131Y-97049500D01*
X176414123Y-97049500D01*
X176414114Y-97049500D01*
X173808379Y-97049500D01*
X173808373Y-97049501D01*
X173748766Y-97055908D01*
X173613921Y-97106202D01*
X173613914Y-97106206D01*
X173498705Y-97192452D01*
X173498702Y-97192455D01*
X173412456Y-97307664D01*
X173412452Y-97307671D01*
X173362158Y-97442517D01*
X173355751Y-97502116D01*
X173355751Y-97502123D01*
X173355750Y-97502135D01*
X126880500Y-97502135D01*
X126880500Y-96520500D01*
X127878500Y-96520500D01*
X128630500Y-96520500D01*
X129628500Y-96520500D01*
X131130500Y-96520500D01*
X132128500Y-96520500D01*
X133630500Y-96520500D01*
X134628500Y-96520500D01*
X136130500Y-96520500D01*
X137128500Y-96520500D01*
X138630500Y-96520500D01*
X139628500Y-96520500D01*
X141130500Y-96520500D01*
X142128500Y-96520500D01*
X143630500Y-96520500D01*
X144628500Y-96520500D01*
X146130500Y-96520500D01*
X147128500Y-96520500D01*
X148630500Y-96520500D01*
X149628500Y-96520500D01*
X151130500Y-96520500D01*
X152128500Y-96520500D01*
X153630500Y-96520500D01*
X154628500Y-96520500D01*
X156130500Y-96520500D01*
X157128500Y-96520500D01*
X158630500Y-96520500D01*
X159628500Y-96520500D01*
X161130500Y-96520500D01*
X162128500Y-96520500D01*
X163630500Y-96520500D01*
X164628500Y-96520500D01*
X166130500Y-96520500D01*
X167128500Y-96520500D01*
X168630500Y-96520500D01*
X169628500Y-96520500D01*
X171130500Y-96520500D01*
X172128500Y-96520500D01*
X172759994Y-96520500D01*
X182128500Y-96520500D01*
X183630500Y-96520500D01*
X184628500Y-96520500D01*
X186130500Y-96520500D01*
X187128500Y-96520500D01*
X188630500Y-96520500D01*
X189628500Y-96520500D01*
X191130500Y-96520500D01*
X192128500Y-96520500D01*
X193630500Y-96520500D01*
X194628500Y-96520500D01*
X196130500Y-96520500D01*
X197128500Y-96520500D01*
X198630500Y-96520500D01*
X199628500Y-96520500D01*
X201130500Y-96520500D01*
X202128500Y-96520500D01*
X203630500Y-96520500D01*
X204628500Y-96520500D01*
X206130500Y-96520500D01*
X207128500Y-96520500D01*
X208630500Y-96520500D01*
X209628500Y-96520500D01*
X211130500Y-96520500D01*
X212128500Y-96520500D01*
X213630500Y-96520500D01*
X214628500Y-96520500D01*
X216130500Y-96520500D01*
X217128500Y-96520500D01*
X218630500Y-96520500D01*
X219628500Y-96520500D01*
X221130500Y-96520500D01*
X222128500Y-96520500D01*
X223630500Y-96520500D01*
X223630500Y-95018500D01*
X222128500Y-95018500D01*
X222128500Y-96520500D01*
X221130500Y-96520500D01*
X221130500Y-95018500D01*
X219628500Y-95018500D01*
X219628500Y-96520500D01*
X218630500Y-96520500D01*
X218630500Y-95018500D01*
X217128500Y-95018500D01*
X217128500Y-96520500D01*
X216130500Y-96520500D01*
X216130500Y-95018500D01*
X214628500Y-95018500D01*
X214628500Y-96520500D01*
X213630500Y-96520500D01*
X213630500Y-95018500D01*
X212128500Y-95018500D01*
X212128500Y-96520500D01*
X211130500Y-96520500D01*
X211130500Y-95018500D01*
X209628500Y-95018500D01*
X209628500Y-96520500D01*
X208630500Y-96520500D01*
X208630500Y-95018500D01*
X207128500Y-95018500D01*
X207128500Y-96520500D01*
X206130500Y-96520500D01*
X206130500Y-95018500D01*
X204628500Y-95018500D01*
X204628500Y-96520500D01*
X203630500Y-96520500D01*
X203630500Y-95018500D01*
X202128500Y-95018500D01*
X202128500Y-96520500D01*
X201130500Y-96520500D01*
X201130500Y-95018500D01*
X199628500Y-95018500D01*
X199628500Y-96520500D01*
X198630500Y-96520500D01*
X198630500Y-95018500D01*
X197128500Y-95018500D01*
X197128500Y-96520500D01*
X196130500Y-96520500D01*
X196130500Y-95018500D01*
X194628500Y-95018500D01*
X194628500Y-96520500D01*
X193630500Y-96520500D01*
X193630500Y-95018500D01*
X192128500Y-95018500D01*
X192128500Y-96520500D01*
X191130500Y-96520500D01*
X191130500Y-95018500D01*
X189628500Y-95018500D01*
X189628500Y-96520500D01*
X188630500Y-96520500D01*
X188630500Y-95018500D01*
X187128500Y-95018500D01*
X187128500Y-96520500D01*
X186130500Y-96520500D01*
X186130500Y-95018500D01*
X184628500Y-95018500D01*
X184628500Y-96520500D01*
X183630500Y-96520500D01*
X183630500Y-95018500D01*
X182128500Y-95018500D01*
X182128500Y-96520500D01*
X172759994Y-96520500D01*
X172761769Y-96518451D01*
X172767801Y-96511972D01*
X172818222Y-96461551D01*
X172824701Y-96455519D01*
X172865186Y-96420439D01*
X172872077Y-96414886D01*
X173044376Y-96285902D01*
X173051646Y-96280854D01*
X173096713Y-96251890D01*
X173104327Y-96247372D01*
X173166917Y-96213195D01*
X173174831Y-96209233D01*
X173223568Y-96186975D01*
X173231748Y-96183587D01*
X173429232Y-96109931D01*
X173436571Y-96107452D01*
X173481422Y-96093847D01*
X173488898Y-96091832D01*
X173549613Y-96077484D01*
X173557205Y-96075939D01*
X173603410Y-96068028D01*
X173611083Y-96066959D01*
X173630500Y-96064871D01*
X173630500Y-96057844D01*
X176666250Y-96057844D01*
X176672651Y-96117372D01*
X176672653Y-96117379D01*
X176722895Y-96252086D01*
X176722899Y-96252093D01*
X176809059Y-96367187D01*
X176809062Y-96367190D01*
X176924156Y-96453350D01*
X176924163Y-96453354D01*
X177058870Y-96503596D01*
X177058877Y-96503598D01*
X177118405Y-96509999D01*
X177118422Y-96510000D01*
X178171250Y-96510000D01*
X178671250Y-96510000D01*
X179724078Y-96510000D01*
X179724094Y-96509999D01*
X179783622Y-96503598D01*
X179783629Y-96503596D01*
X179918336Y-96453354D01*
X179918343Y-96453350D01*
X180033437Y-96367190D01*
X180033440Y-96367187D01*
X180119600Y-96252093D01*
X180119604Y-96252086D01*
X180169846Y-96117379D01*
X180169848Y-96117372D01*
X180176249Y-96057844D01*
X180176250Y-96057827D01*
X180176250Y-95760000D01*
X178671250Y-95760000D01*
X178671250Y-96510000D01*
X178171250Y-96510000D01*
X178171250Y-95760000D01*
X176666250Y-95760000D01*
X176666250Y-96057844D01*
X173630500Y-96057844D01*
X173630500Y-96051500D01*
X174628500Y-96051500D01*
X175668250Y-96051500D01*
X175668250Y-95559454D01*
X175677689Y-95512002D01*
X175678518Y-95510000D01*
X175677689Y-95507998D01*
X175668250Y-95460546D01*
X175668250Y-95018500D01*
X174628500Y-95018500D01*
X174628500Y-96051500D01*
X173630500Y-96051500D01*
X173630500Y-95018500D01*
X172128500Y-95018500D01*
X172128500Y-96520500D01*
X171130500Y-96520500D01*
X171130500Y-95018500D01*
X169628500Y-95018500D01*
X169628500Y-96520500D01*
X168630500Y-96520500D01*
X168630500Y-95018500D01*
X167128500Y-95018500D01*
X167128500Y-96520500D01*
X166130500Y-96520500D01*
X166130500Y-95018500D01*
X164628500Y-95018500D01*
X164628500Y-96520500D01*
X163630500Y-96520500D01*
X163630500Y-95018500D01*
X162128500Y-95018500D01*
X162128500Y-96520500D01*
X161130500Y-96520500D01*
X161130500Y-95018500D01*
X159628500Y-95018500D01*
X159628500Y-96520500D01*
X158630500Y-96520500D01*
X158630500Y-95018500D01*
X157128500Y-95018500D01*
X157128500Y-96520500D01*
X156130500Y-96520500D01*
X156130500Y-95018500D01*
X154628500Y-95018500D01*
X154628500Y-96520500D01*
X153630500Y-96520500D01*
X153630500Y-95018500D01*
X152128500Y-95018500D01*
X152128500Y-96520500D01*
X151130500Y-96520500D01*
X151130500Y-95018500D01*
X149628500Y-95018500D01*
X149628500Y-96520500D01*
X148630500Y-96520500D01*
X148630500Y-95018500D01*
X147128500Y-95018500D01*
X147128500Y-96520500D01*
X146130500Y-96520500D01*
X146130500Y-95018500D01*
X144628500Y-95018500D01*
X144628500Y-96520500D01*
X143630500Y-96520500D01*
X143630500Y-95018500D01*
X142128500Y-95018500D01*
X142128500Y-96520500D01*
X141130500Y-96520500D01*
X141130500Y-95018500D01*
X139628500Y-95018500D01*
X139628500Y-96520500D01*
X138630500Y-96520500D01*
X138630500Y-95018500D01*
X137128500Y-95018500D01*
X137128500Y-96520500D01*
X136130500Y-96520500D01*
X136130500Y-95018500D01*
X134628500Y-95018500D01*
X134628500Y-96520500D01*
X133630500Y-96520500D01*
X133630500Y-95018500D01*
X132128500Y-95018500D01*
X132128500Y-96520500D01*
X131130500Y-96520500D01*
X131130500Y-95018500D01*
X129628500Y-95018500D01*
X129628500Y-96520500D01*
X128630500Y-96520500D01*
X128630500Y-95018500D01*
X127878500Y-95018500D01*
X127878500Y-96520500D01*
X126880500Y-96520500D01*
X126880500Y-94962155D01*
X176666250Y-94962155D01*
X176666250Y-95260000D01*
X178171250Y-95260000D01*
X178671250Y-95260000D01*
X180176250Y-95260000D01*
X180176250Y-94962172D01*
X180176249Y-94962155D01*
X180169848Y-94902627D01*
X180169846Y-94902620D01*
X180119604Y-94767913D01*
X180119600Y-94767906D01*
X180033440Y-94652812D01*
X180033437Y-94652809D01*
X179918343Y-94566649D01*
X179918336Y-94566645D01*
X179783629Y-94516403D01*
X179783622Y-94516401D01*
X179724094Y-94510000D01*
X178671250Y-94510000D01*
X178671250Y-95260000D01*
X178171250Y-95260000D01*
X178171250Y-94510000D01*
X177118405Y-94510000D01*
X177058877Y-94516401D01*
X177058870Y-94516403D01*
X176924163Y-94566645D01*
X176924156Y-94566649D01*
X176809062Y-94652809D01*
X176809059Y-94652812D01*
X176722899Y-94767906D01*
X176722895Y-94767913D01*
X176672653Y-94902620D01*
X176672651Y-94902627D01*
X176666250Y-94962155D01*
X126880500Y-94962155D01*
X126880500Y-94020500D01*
X127878500Y-94020500D01*
X128630500Y-94020500D01*
X129628500Y-94020500D01*
X131130500Y-94020500D01*
X132128500Y-94020500D01*
X133630500Y-94020500D01*
X134628500Y-94020500D01*
X136130500Y-94020500D01*
X137128500Y-94020500D01*
X138630500Y-94020500D01*
X139628500Y-94020500D01*
X141130500Y-94020500D01*
X142128500Y-94020500D01*
X143630500Y-94020500D01*
X144628500Y-94020500D01*
X146130500Y-94020500D01*
X147128500Y-94020500D01*
X148630500Y-94020500D01*
X149628500Y-94020500D01*
X151130500Y-94020500D01*
X152128500Y-94020500D01*
X153630500Y-94020500D01*
X154628500Y-94020500D01*
X156130500Y-94020500D01*
X157128500Y-94020500D01*
X158630500Y-94020500D01*
X159628500Y-94020500D01*
X161130500Y-94020500D01*
X162128500Y-94020500D01*
X163630500Y-94020500D01*
X164628500Y-94020500D01*
X166130500Y-94020500D01*
X167128500Y-94020500D01*
X168630500Y-94020500D01*
X169628500Y-94020500D01*
X171130500Y-94020500D01*
X172128500Y-94020500D01*
X173630500Y-94020500D01*
X174628500Y-94020500D01*
X176036073Y-94020500D01*
X176037046Y-94019293D01*
X176072126Y-93978808D01*
X176078158Y-93972329D01*
X176128579Y-93921908D01*
X176130500Y-93920119D01*
X176130500Y-93512000D01*
X177128500Y-93512000D01*
X178371796Y-93512000D01*
X178419248Y-93521439D01*
X178421250Y-93522268D01*
X178423252Y-93521439D01*
X178470704Y-93512000D01*
X178630500Y-93512000D01*
X179628500Y-93512000D01*
X179737427Y-93512000D01*
X179740741Y-93512044D01*
X179760789Y-93512580D01*
X179764105Y-93512713D01*
X179790792Y-93514142D01*
X179794106Y-93514364D01*
X179814155Y-93515977D01*
X179817467Y-93516289D01*
X179921319Y-93527455D01*
X179928988Y-93528522D01*
X179975166Y-93536428D01*
X179982751Y-93537972D01*
X180043462Y-93552315D01*
X180050945Y-93554332D01*
X180095814Y-93567942D01*
X180103154Y-93570421D01*
X180300511Y-93644030D01*
X180308691Y-93647419D01*
X180357427Y-93669677D01*
X180365341Y-93673638D01*
X180427931Y-93707815D01*
X180435545Y-93712333D01*
X180480612Y-93741297D01*
X180487882Y-93746345D01*
X180660066Y-93875243D01*
X180666957Y-93880796D01*
X180707442Y-93915876D01*
X180713921Y-93921908D01*
X180764342Y-93972329D01*
X180770374Y-93978808D01*
X180805454Y-94019293D01*
X180806427Y-94020500D01*
X181130500Y-94020500D01*
X182128500Y-94020500D01*
X183630500Y-94020500D01*
X184628500Y-94020500D01*
X186130500Y-94020500D01*
X187128500Y-94020500D01*
X188630500Y-94020500D01*
X189628500Y-94020500D01*
X191130500Y-94020500D01*
X192128500Y-94020500D01*
X193630500Y-94020500D01*
X194628500Y-94020500D01*
X196130500Y-94020500D01*
X197128500Y-94020500D01*
X198630500Y-94020500D01*
X199628500Y-94020500D01*
X201130500Y-94020500D01*
X202128500Y-94020500D01*
X203630500Y-94020500D01*
X204628500Y-94020500D01*
X206130500Y-94020500D01*
X207128500Y-94020500D01*
X208630500Y-94020500D01*
X209628500Y-94020500D01*
X211130500Y-94020500D01*
X212128500Y-94020500D01*
X213630500Y-94020500D01*
X214628500Y-94020500D01*
X216130500Y-94020500D01*
X217128500Y-94020500D01*
X218630500Y-94020500D01*
X219628500Y-94020500D01*
X221130500Y-94020500D01*
X222128500Y-94020500D01*
X223630500Y-94020500D01*
X223630500Y-92518500D01*
X222128500Y-92518500D01*
X222128500Y-94020500D01*
X221130500Y-94020500D01*
X221130500Y-92518500D01*
X219628500Y-92518500D01*
X219628500Y-94020500D01*
X218630500Y-94020500D01*
X218630500Y-92518500D01*
X217128500Y-92518500D01*
X217128500Y-94020500D01*
X216130500Y-94020500D01*
X216130500Y-92518500D01*
X214628500Y-92518500D01*
X214628500Y-94020500D01*
X213630500Y-94020500D01*
X213630500Y-92518500D01*
X212128500Y-92518500D01*
X212128500Y-94020500D01*
X211130500Y-94020500D01*
X211130500Y-92518500D01*
X209628500Y-92518500D01*
X209628500Y-94020500D01*
X208630500Y-94020500D01*
X208630500Y-92518500D01*
X207128500Y-92518500D01*
X207128500Y-94020500D01*
X206130500Y-94020500D01*
X206130500Y-92518500D01*
X204628500Y-92518500D01*
X204628500Y-94020500D01*
X203630500Y-94020500D01*
X203630500Y-92518500D01*
X202128500Y-92518500D01*
X202128500Y-94020500D01*
X201130500Y-94020500D01*
X201130500Y-92518500D01*
X199628500Y-92518500D01*
X199628500Y-94020500D01*
X198630500Y-94020500D01*
X198630500Y-92518500D01*
X197128500Y-92518500D01*
X197128500Y-94020500D01*
X196130500Y-94020500D01*
X196130500Y-92518500D01*
X194628500Y-92518500D01*
X194628500Y-94020500D01*
X193630500Y-94020500D01*
X193630500Y-92518500D01*
X192128500Y-92518500D01*
X192128500Y-94020500D01*
X191130500Y-94020500D01*
X191130500Y-92518500D01*
X189628500Y-92518500D01*
X189628500Y-94020500D01*
X188630500Y-94020500D01*
X188630500Y-92518500D01*
X187128500Y-92518500D01*
X187128500Y-94020500D01*
X186130500Y-94020500D01*
X186130500Y-92518500D01*
X184628500Y-92518500D01*
X184628500Y-94020500D01*
X183630500Y-94020500D01*
X183630500Y-92518500D01*
X182128500Y-92518500D01*
X182128500Y-94020500D01*
X181130500Y-94020500D01*
X181130500Y-92518500D01*
X179628500Y-92518500D01*
X179628500Y-93512000D01*
X178630500Y-93512000D01*
X178630500Y-92518500D01*
X177128500Y-92518500D01*
X177128500Y-93512000D01*
X176130500Y-93512000D01*
X176130500Y-92518500D01*
X174628500Y-92518500D01*
X174628500Y-94020500D01*
X173630500Y-94020500D01*
X173630500Y-92518500D01*
X172128500Y-92518500D01*
X172128500Y-94020500D01*
X171130500Y-94020500D01*
X171130500Y-92518500D01*
X169628500Y-92518500D01*
X169628500Y-94020500D01*
X168630500Y-94020500D01*
X168630500Y-92518500D01*
X167128500Y-92518500D01*
X167128500Y-94020500D01*
X166130500Y-94020500D01*
X166130500Y-92518500D01*
X164628500Y-92518500D01*
X164628500Y-94020500D01*
X163630500Y-94020500D01*
X163630500Y-92518500D01*
X162128500Y-92518500D01*
X162128500Y-94020500D01*
X161130500Y-94020500D01*
X161130500Y-92518500D01*
X159628500Y-92518500D01*
X159628500Y-94020500D01*
X158630500Y-94020500D01*
X158630500Y-92518500D01*
X157128500Y-92518500D01*
X157128500Y-94020500D01*
X156130500Y-94020500D01*
X156130500Y-92518500D01*
X154628500Y-92518500D01*
X154628500Y-94020500D01*
X153630500Y-94020500D01*
X153630500Y-92518500D01*
X152128500Y-92518500D01*
X152128500Y-94020500D01*
X151130500Y-94020500D01*
X151130500Y-92518500D01*
X149628500Y-92518500D01*
X149628500Y-94020500D01*
X148630500Y-94020500D01*
X148630500Y-92518500D01*
X147128500Y-92518500D01*
X147128500Y-94020500D01*
X146130500Y-94020500D01*
X146130500Y-92518500D01*
X144628500Y-92518500D01*
X144628500Y-94020500D01*
X143630500Y-94020500D01*
X143630500Y-92518500D01*
X142128500Y-92518500D01*
X142128500Y-94020500D01*
X141130500Y-94020500D01*
X141130500Y-92518500D01*
X139628500Y-92518500D01*
X139628500Y-94020500D01*
X138630500Y-94020500D01*
X138630500Y-92518500D01*
X137128500Y-92518500D01*
X137128500Y-94020500D01*
X136130500Y-94020500D01*
X136130500Y-92518500D01*
X134628500Y-92518500D01*
X134628500Y-94020500D01*
X133630500Y-94020500D01*
X133630500Y-92518500D01*
X132128500Y-92518500D01*
X132128500Y-94020500D01*
X131130500Y-94020500D01*
X131130500Y-92518500D01*
X129628500Y-92518500D01*
X129628500Y-94020500D01*
X128630500Y-94020500D01*
X128630500Y-92518500D01*
X127878500Y-92518500D01*
X127878500Y-94020500D01*
X126880500Y-94020500D01*
X126880500Y-91520500D01*
X127878500Y-91520500D01*
X128630500Y-91520500D01*
X129628500Y-91520500D01*
X131130500Y-91520500D01*
X132128500Y-91520500D01*
X133630500Y-91520500D01*
X134628500Y-91520500D01*
X136130500Y-91520500D01*
X137128500Y-91520500D01*
X138630500Y-91520500D01*
X139628500Y-91520500D01*
X141130500Y-91520500D01*
X142128500Y-91520500D01*
X143630500Y-91520500D01*
X144628500Y-91520500D01*
X146130500Y-91520500D01*
X147128500Y-91520500D01*
X148630500Y-91520500D01*
X149628500Y-91520500D01*
X151130500Y-91520500D01*
X152128500Y-91520500D01*
X153630500Y-91520500D01*
X154628500Y-91520500D01*
X156130500Y-91520500D01*
X157128500Y-91520500D01*
X158630500Y-91520500D01*
X159628500Y-91520500D01*
X161130500Y-91520500D01*
X162128500Y-91520500D01*
X163630500Y-91520500D01*
X164628500Y-91520500D01*
X166130500Y-91520500D01*
X167128500Y-91520500D01*
X168630500Y-91520500D01*
X169628500Y-91520500D01*
X171130500Y-91520500D01*
X172128500Y-91520500D01*
X173630500Y-91520500D01*
X174628500Y-91520500D01*
X176130500Y-91520500D01*
X177128500Y-91520500D01*
X178630500Y-91520500D01*
X179628500Y-91520500D01*
X181130500Y-91520500D01*
X182128500Y-91520500D01*
X183630500Y-91520500D01*
X184628500Y-91520500D01*
X186130500Y-91520500D01*
X187128500Y-91520500D01*
X188630500Y-91520500D01*
X189628500Y-91520500D01*
X191130500Y-91520500D01*
X192128500Y-91520500D01*
X193630500Y-91520500D01*
X194628500Y-91520500D01*
X196130500Y-91520500D01*
X197128500Y-91520500D01*
X198630500Y-91520500D01*
X199628500Y-91520500D01*
X201130500Y-91520500D01*
X202128500Y-91520500D01*
X203630500Y-91520500D01*
X204628500Y-91520500D01*
X206130500Y-91520500D01*
X207128500Y-91520500D01*
X208630500Y-91520500D01*
X209628500Y-91520500D01*
X211130500Y-91520500D01*
X212128500Y-91520500D01*
X213630500Y-91520500D01*
X214628500Y-91520500D01*
X216130500Y-91520500D01*
X217128500Y-91520500D01*
X218630500Y-91520500D01*
X219628500Y-91520500D01*
X221130500Y-91520500D01*
X222128500Y-91520500D01*
X223630500Y-91520500D01*
X223630500Y-90018500D01*
X222128500Y-90018500D01*
X222128500Y-91520500D01*
X221130500Y-91520500D01*
X221130500Y-90018500D01*
X219628500Y-90018500D01*
X219628500Y-91520500D01*
X218630500Y-91520500D01*
X218630500Y-90018500D01*
X217128500Y-90018500D01*
X217128500Y-91520500D01*
X216130500Y-91520500D01*
X216130500Y-90018500D01*
X214628500Y-90018500D01*
X214628500Y-91520500D01*
X213630500Y-91520500D01*
X213630500Y-90018500D01*
X212128500Y-90018500D01*
X212128500Y-91520500D01*
X211130500Y-91520500D01*
X211130500Y-90018500D01*
X209628500Y-90018500D01*
X209628500Y-91520500D01*
X208630500Y-91520500D01*
X208630500Y-90018500D01*
X207128500Y-90018500D01*
X207128500Y-91520500D01*
X206130500Y-91520500D01*
X206130500Y-90018500D01*
X204628500Y-90018500D01*
X204628500Y-91520500D01*
X203630500Y-91520500D01*
X203630500Y-90018500D01*
X202128500Y-90018500D01*
X202128500Y-91520500D01*
X201130500Y-91520500D01*
X201130500Y-90018500D01*
X199628500Y-90018500D01*
X199628500Y-91520500D01*
X198630500Y-91520500D01*
X198630500Y-90018500D01*
X197128500Y-90018500D01*
X197128500Y-91520500D01*
X196130500Y-91520500D01*
X196130500Y-90018500D01*
X194628500Y-90018500D01*
X194628500Y-91520500D01*
X193630500Y-91520500D01*
X193630500Y-90018500D01*
X192128500Y-90018500D01*
X192128500Y-91520500D01*
X191130500Y-91520500D01*
X191130500Y-90018500D01*
X189628500Y-90018500D01*
X189628500Y-91520500D01*
X188630500Y-91520500D01*
X188630500Y-90018500D01*
X187128500Y-90018500D01*
X187128500Y-91520500D01*
X186130500Y-91520500D01*
X186130500Y-90018500D01*
X184628500Y-90018500D01*
X184628500Y-91520500D01*
X183630500Y-91520500D01*
X183630500Y-90018500D01*
X182128500Y-90018500D01*
X182128500Y-91520500D01*
X181130500Y-91520500D01*
X181130500Y-90018500D01*
X179628500Y-90018500D01*
X179628500Y-91520500D01*
X178630500Y-91520500D01*
X178630500Y-90018500D01*
X177128500Y-90018500D01*
X177128500Y-91520500D01*
X176130500Y-91520500D01*
X176130500Y-90018500D01*
X174628500Y-90018500D01*
X174628500Y-91520500D01*
X173630500Y-91520500D01*
X173630500Y-90018500D01*
X172128500Y-90018500D01*
X172128500Y-91520500D01*
X171130500Y-91520500D01*
X171130500Y-90018500D01*
X169628500Y-90018500D01*
X169628500Y-91520500D01*
X168630500Y-91520500D01*
X168630500Y-90018500D01*
X167128500Y-90018500D01*
X167128500Y-91520500D01*
X166130500Y-91520500D01*
X166130500Y-90018500D01*
X164628500Y-90018500D01*
X164628500Y-91520500D01*
X163630500Y-91520500D01*
X163630500Y-90018500D01*
X162128500Y-90018500D01*
X162128500Y-91520500D01*
X161130500Y-91520500D01*
X161130500Y-90018500D01*
X159628500Y-90018500D01*
X159628500Y-91520500D01*
X158630500Y-91520500D01*
X158630500Y-90018500D01*
X157128500Y-90018500D01*
X157128500Y-91520500D01*
X156130500Y-91520500D01*
X156130500Y-90018500D01*
X154628500Y-90018500D01*
X154628500Y-91520500D01*
X153630500Y-91520500D01*
X153630500Y-90018500D01*
X152128500Y-90018500D01*
X152128500Y-91520500D01*
X151130500Y-91520500D01*
X151130500Y-90018500D01*
X149628500Y-90018500D01*
X149628500Y-91520500D01*
X148630500Y-91520500D01*
X148630500Y-90018500D01*
X147128500Y-90018500D01*
X147128500Y-91520500D01*
X146130500Y-91520500D01*
X146130500Y-90018500D01*
X144628500Y-90018500D01*
X144628500Y-91520500D01*
X143630500Y-91520500D01*
X143630500Y-90018500D01*
X142128500Y-90018500D01*
X142128500Y-91520500D01*
X141130500Y-91520500D01*
X141130500Y-90018500D01*
X139628500Y-90018500D01*
X139628500Y-91520500D01*
X138630500Y-91520500D01*
X138630500Y-90018500D01*
X137128500Y-90018500D01*
X137128500Y-91520500D01*
X136130500Y-91520500D01*
X136130500Y-90018500D01*
X134628500Y-90018500D01*
X134628500Y-91520500D01*
X133630500Y-91520500D01*
X133630500Y-90018500D01*
X132128500Y-90018500D01*
X132128500Y-91520500D01*
X131130500Y-91520500D01*
X131130500Y-90018500D01*
X129628500Y-90018500D01*
X129628500Y-91520500D01*
X128630500Y-91520500D01*
X128630500Y-90018500D01*
X127878500Y-90018500D01*
X127878500Y-91520500D01*
X126880500Y-91520500D01*
X126880500Y-89020500D01*
X127878500Y-89020500D01*
X128630500Y-89020500D01*
X129628500Y-89020500D01*
X131130500Y-89020500D01*
X132128500Y-89020500D01*
X133630500Y-89020500D01*
X134628500Y-89020500D01*
X136130500Y-89020500D01*
X137128500Y-89020500D01*
X138630500Y-89020500D01*
X139628500Y-89020500D01*
X141130500Y-89020500D01*
X142128500Y-89020500D01*
X143630500Y-89020500D01*
X144628500Y-89020500D01*
X146130500Y-89020500D01*
X147128500Y-89020500D01*
X148630500Y-89020500D01*
X149628500Y-89020500D01*
X151130500Y-89020500D01*
X152128500Y-89020500D01*
X153630500Y-89020500D01*
X154628500Y-89020500D01*
X156130500Y-89020500D01*
X157128500Y-89020500D01*
X158630500Y-89020500D01*
X159628500Y-89020500D01*
X161130500Y-89020500D01*
X162128500Y-89020500D01*
X163630500Y-89020500D01*
X164628500Y-89020500D01*
X166130500Y-89020500D01*
X167128500Y-89020500D01*
X168630500Y-89020500D01*
X169628500Y-89020500D01*
X171130500Y-89020500D01*
X172128500Y-89020500D01*
X173630500Y-89020500D01*
X174628500Y-89020500D01*
X176130500Y-89020500D01*
X177128500Y-89020500D01*
X178630500Y-89020500D01*
X179628500Y-89020500D01*
X181130500Y-89020500D01*
X182128500Y-89020500D01*
X183630500Y-89020500D01*
X184628500Y-89020500D01*
X186130500Y-89020500D01*
X187128500Y-89020500D01*
X188630500Y-89020500D01*
X189628500Y-89020500D01*
X191130500Y-89020500D01*
X192128500Y-89020500D01*
X193630500Y-89020500D01*
X194628500Y-89020500D01*
X196130500Y-89020500D01*
X197128500Y-89020500D01*
X198630500Y-89020500D01*
X199628500Y-89020500D01*
X201130500Y-89020500D01*
X202128500Y-89020500D01*
X203630500Y-89020500D01*
X204628500Y-89020500D01*
X206130500Y-89020500D01*
X207128500Y-89020500D01*
X208630500Y-89020500D01*
X209628500Y-89020500D01*
X211130500Y-89020500D01*
X212128500Y-89020500D01*
X213630500Y-89020500D01*
X214628500Y-89020500D01*
X216130500Y-89020500D01*
X217128500Y-89020500D01*
X218630500Y-89020500D01*
X219628500Y-89020500D01*
X221130500Y-89020500D01*
X222128500Y-89020500D01*
X223630500Y-89020500D01*
X223630500Y-87518500D01*
X222128500Y-87518500D01*
X222128500Y-89020500D01*
X221130500Y-89020500D01*
X221130500Y-87518500D01*
X219628500Y-87518500D01*
X219628500Y-89020500D01*
X218630500Y-89020500D01*
X218630500Y-87518500D01*
X217128500Y-87518500D01*
X217128500Y-89020500D01*
X216130500Y-89020500D01*
X216130500Y-87518500D01*
X214628500Y-87518500D01*
X214628500Y-89020500D01*
X213630500Y-89020500D01*
X213630500Y-87518500D01*
X212128500Y-87518500D01*
X212128500Y-89020500D01*
X211130500Y-89020500D01*
X211130500Y-87518500D01*
X209628500Y-87518500D01*
X209628500Y-89020500D01*
X208630500Y-89020500D01*
X208630500Y-87518500D01*
X207128500Y-87518500D01*
X207128500Y-89020500D01*
X206130500Y-89020500D01*
X206130500Y-87518500D01*
X204628500Y-87518500D01*
X204628500Y-89020500D01*
X203630500Y-89020500D01*
X203630500Y-87518500D01*
X202128500Y-87518500D01*
X202128500Y-89020500D01*
X201130500Y-89020500D01*
X201130500Y-87518500D01*
X199628500Y-87518500D01*
X199628500Y-89020500D01*
X198630500Y-89020500D01*
X198630500Y-87518500D01*
X197128500Y-87518500D01*
X197128500Y-89020500D01*
X196130500Y-89020500D01*
X196130500Y-87518500D01*
X194628500Y-87518500D01*
X194628500Y-89020500D01*
X193630500Y-89020500D01*
X193630500Y-87518500D01*
X192128500Y-87518500D01*
X192128500Y-89020500D01*
X191130500Y-89020500D01*
X191130500Y-87518500D01*
X189628500Y-87518500D01*
X189628500Y-89020500D01*
X188630500Y-89020500D01*
X188630500Y-87518500D01*
X187128500Y-87518500D01*
X187128500Y-89020500D01*
X186130500Y-89020500D01*
X186130500Y-87518500D01*
X184628500Y-87518500D01*
X184628500Y-89020500D01*
X183630500Y-89020500D01*
X183630500Y-87518500D01*
X182128500Y-87518500D01*
X182128500Y-89020500D01*
X181130500Y-89020500D01*
X181130500Y-87518500D01*
X179628500Y-87518500D01*
X179628500Y-89020500D01*
X178630500Y-89020500D01*
X178630500Y-87518500D01*
X177128500Y-87518500D01*
X177128500Y-89020500D01*
X176130500Y-89020500D01*
X176130500Y-87518500D01*
X174628500Y-87518500D01*
X174628500Y-89020500D01*
X173630500Y-89020500D01*
X173630500Y-87518500D01*
X172128500Y-87518500D01*
X172128500Y-89020500D01*
X171130500Y-89020500D01*
X171130500Y-87518500D01*
X169628500Y-87518500D01*
X169628500Y-89020500D01*
X168630500Y-89020500D01*
X168630500Y-87518500D01*
X167128500Y-87518500D01*
X167128500Y-89020500D01*
X166130500Y-89020500D01*
X166130500Y-87518500D01*
X164628500Y-87518500D01*
X164628500Y-89020500D01*
X163630500Y-89020500D01*
X163630500Y-87518500D01*
X162128500Y-87518500D01*
X162128500Y-89020500D01*
X161130500Y-89020500D01*
X161130500Y-87518500D01*
X159628500Y-87518500D01*
X159628500Y-89020500D01*
X158630500Y-89020500D01*
X158630500Y-87518500D01*
X157128500Y-87518500D01*
X157128500Y-89020500D01*
X156130500Y-89020500D01*
X156130500Y-87518500D01*
X154628500Y-87518500D01*
X154628500Y-89020500D01*
X153630500Y-89020500D01*
X153630500Y-87518500D01*
X152128500Y-87518500D01*
X152128500Y-89020500D01*
X151130500Y-89020500D01*
X151130500Y-87518500D01*
X149628500Y-87518500D01*
X149628500Y-89020500D01*
X148630500Y-89020500D01*
X148630500Y-87518500D01*
X147128500Y-87518500D01*
X147128500Y-89020500D01*
X146130500Y-89020500D01*
X146130500Y-87518500D01*
X144628500Y-87518500D01*
X144628500Y-89020500D01*
X143630500Y-89020500D01*
X143630500Y-87518500D01*
X142128500Y-87518500D01*
X142128500Y-89020500D01*
X141130500Y-89020500D01*
X141130500Y-87518500D01*
X139628500Y-87518500D01*
X139628500Y-89020500D01*
X138630500Y-89020500D01*
X138630500Y-87518500D01*
X137128500Y-87518500D01*
X137128500Y-89020500D01*
X136130500Y-89020500D01*
X136130500Y-87518500D01*
X134628500Y-87518500D01*
X134628500Y-89020500D01*
X133630500Y-89020500D01*
X133630500Y-87518500D01*
X132128500Y-87518500D01*
X132128500Y-89020500D01*
X131130500Y-89020500D01*
X131130500Y-87518500D01*
X129628500Y-87518500D01*
X129628500Y-89020500D01*
X128630500Y-89020500D01*
X128630500Y-87518500D01*
X127878500Y-87518500D01*
X127878500Y-89020500D01*
X126880500Y-89020500D01*
X126880500Y-86520500D01*
X127878500Y-86520500D01*
X128630500Y-86520500D01*
X129628500Y-86520500D01*
X131130500Y-86520500D01*
X132128500Y-86520500D01*
X133630500Y-86520500D01*
X134628500Y-86520500D01*
X136130500Y-86520500D01*
X137128500Y-86520500D01*
X138630500Y-86520500D01*
X139628500Y-86520500D01*
X141130500Y-86520500D01*
X142128500Y-86520500D01*
X143630500Y-86520500D01*
X144628500Y-86520500D01*
X146130500Y-86520500D01*
X147128500Y-86520500D01*
X148630500Y-86520500D01*
X149628500Y-86520500D01*
X151130500Y-86520500D01*
X152128500Y-86520500D01*
X153630500Y-86520500D01*
X154628500Y-86520500D01*
X156130500Y-86520500D01*
X157128500Y-86520500D01*
X158630500Y-86520500D01*
X159628500Y-86520500D01*
X161130500Y-86520500D01*
X162128500Y-86520500D01*
X163630500Y-86520500D01*
X164628500Y-86520500D01*
X166130500Y-86520500D01*
X167128500Y-86520500D01*
X168630500Y-86520500D01*
X169628500Y-86520500D01*
X171130500Y-86520500D01*
X172128500Y-86520500D01*
X173630500Y-86520500D01*
X174628500Y-86520500D01*
X176130500Y-86520500D01*
X177128500Y-86520500D01*
X178630500Y-86520500D01*
X179628500Y-86520500D01*
X181130500Y-86520500D01*
X182128500Y-86520500D01*
X183630500Y-86520500D01*
X184628500Y-86520500D01*
X186130500Y-86520500D01*
X187128500Y-86520500D01*
X188630500Y-86520500D01*
X189628500Y-86520500D01*
X191130500Y-86520500D01*
X192128500Y-86520500D01*
X193630500Y-86520500D01*
X194628500Y-86520500D01*
X196130500Y-86520500D01*
X197128500Y-86520500D01*
X198630500Y-86520500D01*
X199628500Y-86520500D01*
X201130500Y-86520500D01*
X202128500Y-86520500D01*
X203630500Y-86520500D01*
X204628500Y-86520500D01*
X206130500Y-86520500D01*
X207128500Y-86520500D01*
X208630500Y-86520500D01*
X209628500Y-86520500D01*
X211130500Y-86520500D01*
X212128500Y-86520500D01*
X213630500Y-86520500D01*
X214628500Y-86520500D01*
X216130500Y-86520500D01*
X217128500Y-86520500D01*
X218630500Y-86520500D01*
X219628500Y-86520500D01*
X221130500Y-86520500D01*
X222128500Y-86520500D01*
X223630500Y-86520500D01*
X223630500Y-85018500D01*
X222128500Y-85018500D01*
X222128500Y-86520500D01*
X221130500Y-86520500D01*
X221130500Y-85018500D01*
X219628500Y-85018500D01*
X219628500Y-86520500D01*
X218630500Y-86520500D01*
X218630500Y-85018500D01*
X217128500Y-85018500D01*
X217128500Y-86520500D01*
X216130500Y-86520500D01*
X216130500Y-85018500D01*
X214628500Y-85018500D01*
X214628500Y-86520500D01*
X213630500Y-86520500D01*
X213630500Y-85018500D01*
X212128500Y-85018500D01*
X212128500Y-86520500D01*
X211130500Y-86520500D01*
X211130500Y-85018500D01*
X209628500Y-85018500D01*
X209628500Y-86520500D01*
X208630500Y-86520500D01*
X208630500Y-85018500D01*
X207128500Y-85018500D01*
X207128500Y-86520500D01*
X206130500Y-86520500D01*
X206130500Y-85018500D01*
X204628500Y-85018500D01*
X204628500Y-86520500D01*
X203630500Y-86520500D01*
X203630500Y-85018500D01*
X202128500Y-85018500D01*
X202128500Y-86520500D01*
X201130500Y-86520500D01*
X201130500Y-85018500D01*
X199628500Y-85018500D01*
X199628500Y-86520500D01*
X198630500Y-86520500D01*
X198630500Y-85018500D01*
X197128500Y-85018500D01*
X197128500Y-86520500D01*
X196130500Y-86520500D01*
X196130500Y-85018500D01*
X194628500Y-85018500D01*
X194628500Y-86520500D01*
X193630500Y-86520500D01*
X193630500Y-85018500D01*
X192128500Y-85018500D01*
X192128500Y-86520500D01*
X191130500Y-86520500D01*
X191130500Y-85018500D01*
X189628500Y-85018500D01*
X189628500Y-86520500D01*
X188630500Y-86520500D01*
X188630500Y-85018500D01*
X187128500Y-85018500D01*
X187128500Y-86520500D01*
X186130500Y-86520500D01*
X186130500Y-85018500D01*
X184628500Y-85018500D01*
X184628500Y-86520500D01*
X183630500Y-86520500D01*
X183630500Y-85018500D01*
X182128500Y-85018500D01*
X182128500Y-86520500D01*
X181130500Y-86520500D01*
X181130500Y-85018500D01*
X179628500Y-85018500D01*
X179628500Y-86520500D01*
X178630500Y-86520500D01*
X178630500Y-85018500D01*
X177128500Y-85018500D01*
X177128500Y-86520500D01*
X176130500Y-86520500D01*
X176130500Y-85018500D01*
X174628500Y-85018500D01*
X174628500Y-86520500D01*
X173630500Y-86520500D01*
X173630500Y-85018500D01*
X172128500Y-85018500D01*
X172128500Y-86520500D01*
X171130500Y-86520500D01*
X171130500Y-85018500D01*
X169628500Y-85018500D01*
X169628500Y-86520500D01*
X168630500Y-86520500D01*
X168630500Y-85018500D01*
X167128500Y-85018500D01*
X167128500Y-86520500D01*
X166130500Y-86520500D01*
X166130500Y-85018500D01*
X164628500Y-85018500D01*
X164628500Y-86520500D01*
X163630500Y-86520500D01*
X163630500Y-85018500D01*
X162128500Y-85018500D01*
X162128500Y-86520500D01*
X161130500Y-86520500D01*
X161130500Y-85018500D01*
X159628500Y-85018500D01*
X159628500Y-86520500D01*
X158630500Y-86520500D01*
X158630500Y-85018500D01*
X157128500Y-85018500D01*
X157128500Y-86520500D01*
X156130500Y-86520500D01*
X156130500Y-85018500D01*
X154628500Y-85018500D01*
X154628500Y-86520500D01*
X153630500Y-86520500D01*
X153630500Y-85018500D01*
X152128500Y-85018500D01*
X152128500Y-86520500D01*
X151130500Y-86520500D01*
X151130500Y-85018500D01*
X149628500Y-85018500D01*
X149628500Y-86520500D01*
X148630500Y-86520500D01*
X148630500Y-85018500D01*
X147128500Y-85018500D01*
X147128500Y-86520500D01*
X146130500Y-86520500D01*
X146130500Y-85018500D01*
X144628500Y-85018500D01*
X144628500Y-86520500D01*
X143630500Y-86520500D01*
X143630500Y-85018500D01*
X142128500Y-85018500D01*
X142128500Y-86520500D01*
X141130500Y-86520500D01*
X141130500Y-85018500D01*
X139628500Y-85018500D01*
X139628500Y-86520500D01*
X138630500Y-86520500D01*
X138630500Y-85018500D01*
X137128500Y-85018500D01*
X137128500Y-86520500D01*
X136130500Y-86520500D01*
X136130500Y-85018500D01*
X134628500Y-85018500D01*
X134628500Y-86520500D01*
X133630500Y-86520500D01*
X133630500Y-85018500D01*
X132128500Y-85018500D01*
X132128500Y-86520500D01*
X131130500Y-86520500D01*
X131130500Y-85018500D01*
X129628500Y-85018500D01*
X129628500Y-86520500D01*
X128630500Y-86520500D01*
X128630500Y-85018500D01*
X127878500Y-85018500D01*
X127878500Y-86520500D01*
X126880500Y-86520500D01*
X126880500Y-84020500D01*
X127878500Y-84020500D01*
X128630500Y-84020500D01*
X129628500Y-84020500D01*
X131130500Y-84020500D01*
X132128500Y-84020500D01*
X133630500Y-84020500D01*
X134628500Y-84020500D01*
X136130500Y-84020500D01*
X137128500Y-84020500D01*
X138630500Y-84020500D01*
X139628500Y-84020500D01*
X141130500Y-84020500D01*
X142128500Y-84020500D01*
X143630500Y-84020500D01*
X144628500Y-84020500D01*
X146130500Y-84020500D01*
X147128500Y-84020500D01*
X148630500Y-84020500D01*
X149628500Y-84020500D01*
X151130500Y-84020500D01*
X152128500Y-84020500D01*
X153630500Y-84020500D01*
X154628500Y-84020500D01*
X156130500Y-84020500D01*
X157128500Y-84020500D01*
X158630500Y-84020500D01*
X159628500Y-84020500D01*
X161130500Y-84020500D01*
X162128500Y-84020500D01*
X163630500Y-84020500D01*
X164628500Y-84020500D01*
X166130500Y-84020500D01*
X167128500Y-84020500D01*
X168630500Y-84020500D01*
X169628500Y-84020500D01*
X171130500Y-84020500D01*
X172128500Y-84020500D01*
X173630500Y-84020500D01*
X174628500Y-84020500D01*
X176130500Y-84020500D01*
X177128500Y-84020500D01*
X178630500Y-84020500D01*
X179628500Y-84020500D01*
X181130500Y-84020500D01*
X182128500Y-84020500D01*
X183630500Y-84020500D01*
X184628500Y-84020500D01*
X186130500Y-84020500D01*
X187128500Y-84020500D01*
X188630500Y-84020500D01*
X189628500Y-84020500D01*
X191130500Y-84020500D01*
X192128500Y-84020500D01*
X193630500Y-84020500D01*
X194628500Y-84020500D01*
X196130500Y-84020500D01*
X197128500Y-84020500D01*
X198630500Y-84020500D01*
X199628500Y-84020500D01*
X201130500Y-84020500D01*
X202128500Y-84020500D01*
X203630500Y-84020500D01*
X204628500Y-84020500D01*
X206130500Y-84020500D01*
X207128500Y-84020500D01*
X208630500Y-84020500D01*
X209628500Y-84020500D01*
X211130500Y-84020500D01*
X212128500Y-84020500D01*
X213630500Y-84020500D01*
X214628500Y-84020500D01*
X216130500Y-84020500D01*
X217128500Y-84020500D01*
X218630500Y-84020500D01*
X219628500Y-84020500D01*
X221130500Y-84020500D01*
X222128500Y-84020500D01*
X223630500Y-84020500D01*
X223630500Y-82518500D01*
X222128500Y-82518500D01*
X222128500Y-84020500D01*
X221130500Y-84020500D01*
X221130500Y-82518500D01*
X219628500Y-82518500D01*
X219628500Y-84020500D01*
X218630500Y-84020500D01*
X218630500Y-82518500D01*
X217128500Y-82518500D01*
X217128500Y-84020500D01*
X216130500Y-84020500D01*
X216130500Y-82518500D01*
X214628500Y-82518500D01*
X214628500Y-84020500D01*
X213630500Y-84020500D01*
X213630500Y-82518500D01*
X212128500Y-82518500D01*
X212128500Y-84020500D01*
X211130500Y-84020500D01*
X211130500Y-82518500D01*
X209628500Y-82518500D01*
X209628500Y-84020500D01*
X208630500Y-84020500D01*
X208630500Y-82518500D01*
X207128500Y-82518500D01*
X207128500Y-84020500D01*
X206130500Y-84020500D01*
X206130500Y-82518500D01*
X204628500Y-82518500D01*
X204628500Y-84020500D01*
X203630500Y-84020500D01*
X203630500Y-82518500D01*
X202128500Y-82518500D01*
X202128500Y-84020500D01*
X201130500Y-84020500D01*
X201130500Y-82518500D01*
X199628500Y-82518500D01*
X199628500Y-84020500D01*
X198630500Y-84020500D01*
X198630500Y-82518500D01*
X197128500Y-82518500D01*
X197128500Y-84020500D01*
X196130500Y-84020500D01*
X196130500Y-82518500D01*
X194628500Y-82518500D01*
X194628500Y-84020500D01*
X193630500Y-84020500D01*
X193630500Y-82518500D01*
X192128500Y-82518500D01*
X192128500Y-84020500D01*
X191130500Y-84020500D01*
X191130500Y-82518500D01*
X189628500Y-82518500D01*
X189628500Y-84020500D01*
X188630500Y-84020500D01*
X188630500Y-82518500D01*
X187128500Y-82518500D01*
X187128500Y-84020500D01*
X186130500Y-84020500D01*
X186130500Y-82518500D01*
X184628500Y-82518500D01*
X184628500Y-84020500D01*
X183630500Y-84020500D01*
X183630500Y-82518500D01*
X182128500Y-82518500D01*
X182128500Y-84020500D01*
X181130500Y-84020500D01*
X181130500Y-82518500D01*
X179628500Y-82518500D01*
X179628500Y-84020500D01*
X178630500Y-84020500D01*
X178630500Y-82518500D01*
X177128500Y-82518500D01*
X177128500Y-84020500D01*
X176130500Y-84020500D01*
X176130500Y-82518500D01*
X174628500Y-82518500D01*
X174628500Y-84020500D01*
X173630500Y-84020500D01*
X173630500Y-82518500D01*
X172128500Y-82518500D01*
X172128500Y-84020500D01*
X171130500Y-84020500D01*
X171130500Y-82518500D01*
X169628500Y-82518500D01*
X169628500Y-84020500D01*
X168630500Y-84020500D01*
X168630500Y-82518500D01*
X167128500Y-82518500D01*
X167128500Y-84020500D01*
X166130500Y-84020500D01*
X166130500Y-82518500D01*
X164628500Y-82518500D01*
X164628500Y-84020500D01*
X163630500Y-84020500D01*
X163630500Y-82518500D01*
X162128500Y-82518500D01*
X162128500Y-84020500D01*
X161130500Y-84020500D01*
X161130500Y-82518500D01*
X159628500Y-82518500D01*
X159628500Y-84020500D01*
X158630500Y-84020500D01*
X158630500Y-82518500D01*
X157128500Y-82518500D01*
X157128500Y-84020500D01*
X156130500Y-84020500D01*
X156130500Y-82518500D01*
X154628500Y-82518500D01*
X154628500Y-84020500D01*
X153630500Y-84020500D01*
X153630500Y-82518500D01*
X152128500Y-82518500D01*
X152128500Y-84020500D01*
X151130500Y-84020500D01*
X151130500Y-82518500D01*
X149628500Y-82518500D01*
X149628500Y-84020500D01*
X148630500Y-84020500D01*
X148630500Y-82518500D01*
X147128500Y-82518500D01*
X147128500Y-84020500D01*
X146130500Y-84020500D01*
X146130500Y-82518500D01*
X144628500Y-82518500D01*
X144628500Y-84020500D01*
X143630500Y-84020500D01*
X143630500Y-82518500D01*
X142128500Y-82518500D01*
X142128500Y-84020500D01*
X141130500Y-84020500D01*
X141130500Y-82518500D01*
X139628500Y-82518500D01*
X139628500Y-84020500D01*
X138630500Y-84020500D01*
X138630500Y-82518500D01*
X137128500Y-82518500D01*
X137128500Y-84020500D01*
X136130500Y-84020500D01*
X136130500Y-82518500D01*
X134628500Y-82518500D01*
X134628500Y-84020500D01*
X133630500Y-84020500D01*
X133630500Y-82518500D01*
X132128500Y-82518500D01*
X132128500Y-84020500D01*
X131130500Y-84020500D01*
X131130500Y-82518500D01*
X129628500Y-82518500D01*
X129628500Y-84020500D01*
X128630500Y-84020500D01*
X128630500Y-82518500D01*
X127878500Y-82518500D01*
X127878500Y-84020500D01*
X126880500Y-84020500D01*
X126880500Y-81520500D01*
X127878500Y-81520500D01*
X128630500Y-81520500D01*
X129628500Y-81520500D01*
X131130500Y-81520500D01*
X132128500Y-81520500D01*
X133630500Y-81520500D01*
X134628500Y-81520500D01*
X136130500Y-81520500D01*
X137128500Y-81520500D01*
X138630500Y-81520500D01*
X139628500Y-81520500D01*
X141130500Y-81520500D01*
X142128500Y-81520500D01*
X143630500Y-81520500D01*
X144628500Y-81520500D01*
X146130500Y-81520500D01*
X147128500Y-81520500D01*
X148630500Y-81520500D01*
X149628500Y-81520500D01*
X151130500Y-81520500D01*
X152128500Y-81520500D01*
X153630500Y-81520500D01*
X154628500Y-81520500D01*
X156130500Y-81520500D01*
X157128500Y-81520500D01*
X158630500Y-81520500D01*
X159628500Y-81520500D01*
X161130500Y-81520500D01*
X162128500Y-81520500D01*
X163630500Y-81520500D01*
X164628500Y-81520500D01*
X166130500Y-81520500D01*
X167128500Y-81520500D01*
X168630500Y-81520500D01*
X169628500Y-81520500D01*
X171130500Y-81520500D01*
X172128500Y-81520500D01*
X173630500Y-81520500D01*
X174628500Y-81520500D01*
X176130500Y-81520500D01*
X177128500Y-81520500D01*
X178630500Y-81520500D01*
X179628500Y-81520500D01*
X181130500Y-81520500D01*
X182128500Y-81520500D01*
X183630500Y-81520500D01*
X184628500Y-81520500D01*
X186130500Y-81520500D01*
X187128500Y-81520500D01*
X188630500Y-81520500D01*
X189628500Y-81520500D01*
X191130500Y-81520500D01*
X192128500Y-81520500D01*
X193630500Y-81520500D01*
X194628500Y-81520500D01*
X196130500Y-81520500D01*
X197128500Y-81520500D01*
X198630500Y-81520500D01*
X199628500Y-81520500D01*
X201130500Y-81520500D01*
X202128500Y-81520500D01*
X203630500Y-81520500D01*
X204628500Y-81520500D01*
X206130500Y-81520500D01*
X207128500Y-81520500D01*
X208630500Y-81520500D01*
X209628500Y-81520500D01*
X211130500Y-81520500D01*
X212128500Y-81520500D01*
X213630500Y-81520500D01*
X214628500Y-81520500D01*
X216130500Y-81520500D01*
X217128500Y-81520500D01*
X218630500Y-81520500D01*
X219628500Y-81520500D01*
X221130500Y-81520500D01*
X222128500Y-81520500D01*
X223630500Y-81520500D01*
X223630500Y-80018500D01*
X222128500Y-80018500D01*
X222128500Y-81520500D01*
X221130500Y-81520500D01*
X221130500Y-80018500D01*
X219628500Y-80018500D01*
X219628500Y-81520500D01*
X218630500Y-81520500D01*
X218630500Y-80018500D01*
X217128500Y-80018500D01*
X217128500Y-81520500D01*
X216130500Y-81520500D01*
X216130500Y-80018500D01*
X214628500Y-80018500D01*
X214628500Y-81520500D01*
X213630500Y-81520500D01*
X213630500Y-80018500D01*
X212128500Y-80018500D01*
X212128500Y-81520500D01*
X211130500Y-81520500D01*
X211130500Y-80018500D01*
X209628500Y-80018500D01*
X209628500Y-81520500D01*
X208630500Y-81520500D01*
X208630500Y-80018500D01*
X207128500Y-80018500D01*
X207128500Y-81520500D01*
X206130500Y-81520500D01*
X206130500Y-80018500D01*
X204628500Y-80018500D01*
X204628500Y-81520500D01*
X203630500Y-81520500D01*
X203630500Y-80018500D01*
X202128500Y-80018500D01*
X202128500Y-81520500D01*
X201130500Y-81520500D01*
X201130500Y-80018500D01*
X199628500Y-80018500D01*
X199628500Y-81520500D01*
X198630500Y-81520500D01*
X198630500Y-80018500D01*
X197128500Y-80018500D01*
X197128500Y-81520500D01*
X196130500Y-81520500D01*
X196130500Y-80018500D01*
X194628500Y-80018500D01*
X194628500Y-81520500D01*
X193630500Y-81520500D01*
X193630500Y-80018500D01*
X192128500Y-80018500D01*
X192128500Y-81520500D01*
X191130500Y-81520500D01*
X191130500Y-80018500D01*
X189628500Y-80018500D01*
X189628500Y-81520500D01*
X188630500Y-81520500D01*
X188630500Y-80018500D01*
X187128500Y-80018500D01*
X187128500Y-81520500D01*
X186130500Y-81520500D01*
X186130500Y-80018500D01*
X184628500Y-80018500D01*
X184628500Y-81520500D01*
X183630500Y-81520500D01*
X183630500Y-80018500D01*
X182128500Y-80018500D01*
X182128500Y-81520500D01*
X181130500Y-81520500D01*
X181130500Y-80018500D01*
X179628500Y-80018500D01*
X179628500Y-81520500D01*
X178630500Y-81520500D01*
X178630500Y-80018500D01*
X177128500Y-80018500D01*
X177128500Y-81520500D01*
X176130500Y-81520500D01*
X176130500Y-80018500D01*
X174628500Y-80018500D01*
X174628500Y-81520500D01*
X173630500Y-81520500D01*
X173630500Y-80018500D01*
X172128500Y-80018500D01*
X172128500Y-81520500D01*
X171130500Y-81520500D01*
X171130500Y-80018500D01*
X169628500Y-80018500D01*
X169628500Y-81520500D01*
X168630500Y-81520500D01*
X168630500Y-80018500D01*
X167128500Y-80018500D01*
X167128500Y-81520500D01*
X166130500Y-81520500D01*
X166130500Y-80018500D01*
X164628500Y-80018500D01*
X164628500Y-81520500D01*
X163630500Y-81520500D01*
X163630500Y-80018500D01*
X162128500Y-80018500D01*
X162128500Y-81520500D01*
X161130500Y-81520500D01*
X161130500Y-80018500D01*
X159628500Y-80018500D01*
X159628500Y-81520500D01*
X158630500Y-81520500D01*
X158630500Y-80018500D01*
X157128500Y-80018500D01*
X157128500Y-81520500D01*
X156130500Y-81520500D01*
X156130500Y-80018500D01*
X154628500Y-80018500D01*
X154628500Y-81520500D01*
X153630500Y-81520500D01*
X153630500Y-80018500D01*
X152128500Y-80018500D01*
X152128500Y-81520500D01*
X151130500Y-81520500D01*
X151130500Y-80018500D01*
X149628500Y-80018500D01*
X149628500Y-81520500D01*
X148630500Y-81520500D01*
X148630500Y-80018500D01*
X147128500Y-80018500D01*
X147128500Y-81520500D01*
X146130500Y-81520500D01*
X146130500Y-80018500D01*
X144628500Y-80018500D01*
X144628500Y-81520500D01*
X143630500Y-81520500D01*
X143630500Y-80018500D01*
X142128500Y-80018500D01*
X142128500Y-81520500D01*
X141130500Y-81520500D01*
X141130500Y-80018500D01*
X139628500Y-80018500D01*
X139628500Y-81520500D01*
X138630500Y-81520500D01*
X138630500Y-80018500D01*
X137128500Y-80018500D01*
X137128500Y-81520500D01*
X136130500Y-81520500D01*
X136130500Y-80018500D01*
X134628500Y-80018500D01*
X134628500Y-81520500D01*
X133630500Y-81520500D01*
X133630500Y-80018500D01*
X132128500Y-80018500D01*
X132128500Y-81520500D01*
X131130500Y-81520500D01*
X131130500Y-80018500D01*
X129628500Y-80018500D01*
X129628500Y-81520500D01*
X128630500Y-81520500D01*
X128630500Y-80018500D01*
X127878500Y-80018500D01*
X127878500Y-81520500D01*
X126880500Y-81520500D01*
X126880500Y-79020500D01*
X127878500Y-79020500D01*
X128630500Y-79020500D01*
X129628500Y-79020500D01*
X131130500Y-79020500D01*
X132128500Y-79020500D01*
X133630500Y-79020500D01*
X134628500Y-79020500D01*
X136130500Y-79020500D01*
X137128500Y-79020500D01*
X138630500Y-79020500D01*
X139628500Y-79020500D01*
X141130500Y-79020500D01*
X142128500Y-79020500D01*
X143630500Y-79020500D01*
X144628500Y-79020500D01*
X146130500Y-79020500D01*
X147128500Y-79020500D01*
X148630500Y-79020500D01*
X149628500Y-79020500D01*
X151130500Y-79020500D01*
X152128500Y-79020500D01*
X153630500Y-79020500D01*
X154628500Y-79020500D01*
X156130500Y-79020500D01*
X157128500Y-79020500D01*
X158630500Y-79020500D01*
X159628500Y-79020500D01*
X161130500Y-79020500D01*
X162128500Y-79020500D01*
X163630500Y-79020500D01*
X164628500Y-79020500D01*
X166130500Y-79020500D01*
X167128500Y-79020500D01*
X168630500Y-79020500D01*
X169628500Y-79020500D01*
X171130500Y-79020500D01*
X172128500Y-79020500D01*
X173630500Y-79020500D01*
X174628500Y-79020500D01*
X176130500Y-79020500D01*
X177128500Y-79020500D01*
X178630500Y-79020500D01*
X179628500Y-79020500D01*
X181130500Y-79020500D01*
X182128500Y-79020500D01*
X183630500Y-79020500D01*
X184628500Y-79020500D01*
X186130500Y-79020500D01*
X187128500Y-79020500D01*
X188630500Y-79020500D01*
X189628500Y-79020500D01*
X191130500Y-79020500D01*
X192128500Y-79020500D01*
X193630500Y-79020500D01*
X194628500Y-79020500D01*
X196130500Y-79020500D01*
X197128500Y-79020500D01*
X198630500Y-79020500D01*
X199628500Y-79020500D01*
X201130500Y-79020500D01*
X202128500Y-79020500D01*
X203630500Y-79020500D01*
X204628500Y-79020500D01*
X206130500Y-79020500D01*
X207128500Y-79020500D01*
X208630500Y-79020500D01*
X209628500Y-79020500D01*
X211130500Y-79020500D01*
X212128500Y-79020500D01*
X213630500Y-79020500D01*
X214628500Y-79020500D01*
X216130500Y-79020500D01*
X217128500Y-79020500D01*
X218630500Y-79020500D01*
X219628500Y-79020500D01*
X221130500Y-79020500D01*
X222128500Y-79020500D01*
X223630500Y-79020500D01*
X223630500Y-77518500D01*
X222128500Y-77518500D01*
X222128500Y-79020500D01*
X221130500Y-79020500D01*
X221130500Y-77518500D01*
X219628500Y-77518500D01*
X219628500Y-79020500D01*
X218630500Y-79020500D01*
X218630500Y-77518500D01*
X217128500Y-77518500D01*
X217128500Y-79020500D01*
X216130500Y-79020500D01*
X216130500Y-77518500D01*
X214628500Y-77518500D01*
X214628500Y-79020500D01*
X213630500Y-79020500D01*
X213630500Y-77518500D01*
X212128500Y-77518500D01*
X212128500Y-79020500D01*
X211130500Y-79020500D01*
X211130500Y-77518500D01*
X209628500Y-77518500D01*
X209628500Y-79020500D01*
X208630500Y-79020500D01*
X208630500Y-77518500D01*
X207128500Y-77518500D01*
X207128500Y-79020500D01*
X206130500Y-79020500D01*
X206130500Y-77518500D01*
X204628500Y-77518500D01*
X204628500Y-79020500D01*
X203630500Y-79020500D01*
X203630500Y-77518500D01*
X202128500Y-77518500D01*
X202128500Y-79020500D01*
X201130500Y-79020500D01*
X201130500Y-77518500D01*
X199628500Y-77518500D01*
X199628500Y-79020500D01*
X198630500Y-79020500D01*
X198630500Y-77518500D01*
X197128500Y-77518500D01*
X197128500Y-79020500D01*
X196130500Y-79020500D01*
X196130500Y-77518500D01*
X194628500Y-77518500D01*
X194628500Y-79020500D01*
X193630500Y-79020500D01*
X193630500Y-77518500D01*
X192128500Y-77518500D01*
X192128500Y-79020500D01*
X191130500Y-79020500D01*
X191130500Y-77518500D01*
X189628500Y-77518500D01*
X189628500Y-79020500D01*
X188630500Y-79020500D01*
X188630500Y-77518500D01*
X187128500Y-77518500D01*
X187128500Y-79020500D01*
X186130500Y-79020500D01*
X186130500Y-77518500D01*
X184628500Y-77518500D01*
X184628500Y-79020500D01*
X183630500Y-79020500D01*
X183630500Y-77518500D01*
X182128500Y-77518500D01*
X182128500Y-79020500D01*
X181130500Y-79020500D01*
X181130500Y-77518500D01*
X179628500Y-77518500D01*
X179628500Y-79020500D01*
X178630500Y-79020500D01*
X178630500Y-77518500D01*
X177128500Y-77518500D01*
X177128500Y-79020500D01*
X176130500Y-79020500D01*
X176130500Y-77518500D01*
X174628500Y-77518500D01*
X174628500Y-79020500D01*
X173630500Y-79020500D01*
X173630500Y-77518500D01*
X172128500Y-77518500D01*
X172128500Y-79020500D01*
X171130500Y-79020500D01*
X171130500Y-77518500D01*
X169628500Y-77518500D01*
X169628500Y-79020500D01*
X168630500Y-79020500D01*
X168630500Y-77518500D01*
X167128500Y-77518500D01*
X167128500Y-79020500D01*
X166130500Y-79020500D01*
X166130500Y-77518500D01*
X164628500Y-77518500D01*
X164628500Y-79020500D01*
X163630500Y-79020500D01*
X163630500Y-77518500D01*
X162128500Y-77518500D01*
X162128500Y-79020500D01*
X161130500Y-79020500D01*
X161130500Y-77518500D01*
X159628500Y-77518500D01*
X159628500Y-79020500D01*
X158630500Y-79020500D01*
X158630500Y-77518500D01*
X157128500Y-77518500D01*
X157128500Y-79020500D01*
X156130500Y-79020500D01*
X156130500Y-77518500D01*
X154628500Y-77518500D01*
X154628500Y-79020500D01*
X153630500Y-79020500D01*
X153630500Y-77518500D01*
X152128500Y-77518500D01*
X152128500Y-79020500D01*
X151130500Y-79020500D01*
X151130500Y-77518500D01*
X149628500Y-77518500D01*
X149628500Y-79020500D01*
X148630500Y-79020500D01*
X148630500Y-77518500D01*
X147128500Y-77518500D01*
X147128500Y-79020500D01*
X146130500Y-79020500D01*
X146130500Y-77518500D01*
X144628500Y-77518500D01*
X144628500Y-79020500D01*
X143630500Y-79020500D01*
X143630500Y-77518500D01*
X142128500Y-77518500D01*
X142128500Y-79020500D01*
X141130500Y-79020500D01*
X141130500Y-77518500D01*
X139628500Y-77518500D01*
X139628500Y-79020500D01*
X138630500Y-79020500D01*
X138630500Y-77518500D01*
X137128500Y-77518500D01*
X137128500Y-79020500D01*
X136130500Y-79020500D01*
X136130500Y-77518500D01*
X134628500Y-77518500D01*
X134628500Y-79020500D01*
X133630500Y-79020500D01*
X133630500Y-77518500D01*
X132128500Y-77518500D01*
X132128500Y-79020500D01*
X131130500Y-79020500D01*
X131130500Y-77518500D01*
X129628500Y-77518500D01*
X129628500Y-79020500D01*
X128630500Y-79020500D01*
X128630500Y-77518500D01*
X127878500Y-77518500D01*
X127878500Y-79020500D01*
X126880500Y-79020500D01*
X126880500Y-76520500D01*
X127878500Y-76520500D01*
X128630500Y-76520500D01*
X129628500Y-76520500D01*
X131130500Y-76520500D01*
X132128500Y-76520500D01*
X133630500Y-76520500D01*
X134628500Y-76520500D01*
X136130500Y-76520500D01*
X137128500Y-76520500D01*
X138630500Y-76520500D01*
X139628500Y-76520500D01*
X141130500Y-76520500D01*
X142128500Y-76520500D01*
X143630500Y-76520500D01*
X144628500Y-76520500D01*
X146130500Y-76520500D01*
X147128500Y-76520500D01*
X148630500Y-76520500D01*
X149628500Y-76520500D01*
X151130500Y-76520500D01*
X152128500Y-76520500D01*
X153630500Y-76520500D01*
X154628500Y-76520500D01*
X156130500Y-76520500D01*
X157128500Y-76520500D01*
X158630500Y-76520500D01*
X159628500Y-76520500D01*
X161130500Y-76520500D01*
X162128500Y-76520500D01*
X163630500Y-76520500D01*
X164628500Y-76520500D01*
X166130500Y-76520500D01*
X167128500Y-76520500D01*
X168630500Y-76520500D01*
X169628500Y-76520500D01*
X171130500Y-76520500D01*
X172128500Y-76520500D01*
X173630500Y-76520500D01*
X174628500Y-76520500D01*
X176130500Y-76520500D01*
X177128500Y-76520500D01*
X178630500Y-76520500D01*
X179628500Y-76520500D01*
X181130500Y-76520500D01*
X182128500Y-76520500D01*
X183630500Y-76520500D01*
X184628500Y-76520500D01*
X186130500Y-76520500D01*
X187128500Y-76520500D01*
X188630500Y-76520500D01*
X189628500Y-76520500D01*
X191130500Y-76520500D01*
X192128500Y-76520500D01*
X193630500Y-76520500D01*
X194628500Y-76520500D01*
X196130500Y-76520500D01*
X197128500Y-76520500D01*
X198630500Y-76520500D01*
X199628500Y-76520500D01*
X201130500Y-76520500D01*
X202128500Y-76520500D01*
X203630500Y-76520500D01*
X204628500Y-76520500D01*
X206130500Y-76520500D01*
X207128500Y-76520500D01*
X208630500Y-76520500D01*
X209628500Y-76520500D01*
X211130500Y-76520500D01*
X212128500Y-76520500D01*
X213630500Y-76520500D01*
X214628500Y-76520500D01*
X216130500Y-76520500D01*
X217128500Y-76520500D01*
X218630500Y-76520500D01*
X219628500Y-76520500D01*
X221130500Y-76520500D01*
X222128500Y-76520500D01*
X223630500Y-76520500D01*
X223630500Y-75018500D01*
X222128500Y-75018500D01*
X222128500Y-76520500D01*
X221130500Y-76520500D01*
X221130500Y-75018500D01*
X219628500Y-75018500D01*
X219628500Y-76520500D01*
X218630500Y-76520500D01*
X218630500Y-75018500D01*
X217128500Y-75018500D01*
X217128500Y-76520500D01*
X216130500Y-76520500D01*
X216130500Y-75018500D01*
X214628500Y-75018500D01*
X214628500Y-76520500D01*
X213630500Y-76520500D01*
X213630500Y-75018500D01*
X212128500Y-75018500D01*
X212128500Y-76520500D01*
X211130500Y-76520500D01*
X211130500Y-75018500D01*
X209628500Y-75018500D01*
X209628500Y-76520500D01*
X208630500Y-76520500D01*
X208630500Y-75018500D01*
X207128500Y-75018500D01*
X207128500Y-76520500D01*
X206130500Y-76520500D01*
X206130500Y-75018500D01*
X204628500Y-75018500D01*
X204628500Y-76520500D01*
X203630500Y-76520500D01*
X203630500Y-75018500D01*
X202128500Y-75018500D01*
X202128500Y-76520500D01*
X201130500Y-76520500D01*
X201130500Y-75018500D01*
X199628500Y-75018500D01*
X199628500Y-76520500D01*
X198630500Y-76520500D01*
X198630500Y-75018500D01*
X197128500Y-75018500D01*
X197128500Y-76520500D01*
X196130500Y-76520500D01*
X196130500Y-75018500D01*
X194628500Y-75018500D01*
X194628500Y-76520500D01*
X193630500Y-76520500D01*
X193630500Y-75018500D01*
X192128500Y-75018500D01*
X192128500Y-76520500D01*
X191130500Y-76520500D01*
X191130500Y-75018500D01*
X189628500Y-75018500D01*
X189628500Y-76520500D01*
X188630500Y-76520500D01*
X188630500Y-75018500D01*
X187128500Y-75018500D01*
X187128500Y-76520500D01*
X186130500Y-76520500D01*
X186130500Y-75018500D01*
X184628500Y-75018500D01*
X184628500Y-76520500D01*
X183630500Y-76520500D01*
X183630500Y-75018500D01*
X182128500Y-75018500D01*
X182128500Y-76520500D01*
X181130500Y-76520500D01*
X181130500Y-75018500D01*
X179628500Y-75018500D01*
X179628500Y-76520500D01*
X178630500Y-76520500D01*
X178630500Y-75018500D01*
X177128500Y-75018500D01*
X177128500Y-76520500D01*
X176130500Y-76520500D01*
X176130500Y-75018500D01*
X174628500Y-75018500D01*
X174628500Y-76520500D01*
X173630500Y-76520500D01*
X173630500Y-75018500D01*
X172128500Y-75018500D01*
X172128500Y-76520500D01*
X171130500Y-76520500D01*
X171130500Y-75018500D01*
X169628500Y-75018500D01*
X169628500Y-76520500D01*
X168630500Y-76520500D01*
X168630500Y-75018500D01*
X167128500Y-75018500D01*
X167128500Y-76520500D01*
X166130500Y-76520500D01*
X166130500Y-75018500D01*
X164628500Y-75018500D01*
X164628500Y-76520500D01*
X163630500Y-76520500D01*
X163630500Y-75018500D01*
X162128500Y-75018500D01*
X162128500Y-76520500D01*
X161130500Y-76520500D01*
X161130500Y-75018500D01*
X159628500Y-75018500D01*
X159628500Y-76520500D01*
X158630500Y-76520500D01*
X158630500Y-75018500D01*
X157128500Y-75018500D01*
X157128500Y-76520500D01*
X156130500Y-76520500D01*
X156130500Y-75018500D01*
X154628500Y-75018500D01*
X154628500Y-76520500D01*
X153630500Y-76520500D01*
X153630500Y-75018500D01*
X152128500Y-75018500D01*
X152128500Y-76520500D01*
X151130500Y-76520500D01*
X151130500Y-75018500D01*
X149628500Y-75018500D01*
X149628500Y-76520500D01*
X148630500Y-76520500D01*
X148630500Y-75018500D01*
X147128500Y-75018500D01*
X147128500Y-76520500D01*
X146130500Y-76520500D01*
X146130500Y-75018500D01*
X144628500Y-75018500D01*
X144628500Y-76520500D01*
X143630500Y-76520500D01*
X143630500Y-75018500D01*
X142128500Y-75018500D01*
X142128500Y-76520500D01*
X141130500Y-76520500D01*
X141130500Y-75018500D01*
X139628500Y-75018500D01*
X139628500Y-76520500D01*
X138630500Y-76520500D01*
X138630500Y-75018500D01*
X137128500Y-75018500D01*
X137128500Y-76520500D01*
X136130500Y-76520500D01*
X136130500Y-75018500D01*
X134628500Y-75018500D01*
X134628500Y-76520500D01*
X133630500Y-76520500D01*
X133630500Y-75018500D01*
X132128500Y-75018500D01*
X132128500Y-76520500D01*
X131130500Y-76520500D01*
X131130500Y-75018500D01*
X129628500Y-75018500D01*
X129628500Y-76520500D01*
X128630500Y-76520500D01*
X128630500Y-75018500D01*
X127878500Y-75018500D01*
X127878500Y-76520500D01*
X126880500Y-76520500D01*
X126880500Y-74020500D01*
X127878500Y-74020500D01*
X128630500Y-74020500D01*
X129628500Y-74020500D01*
X131130500Y-74020500D01*
X132128500Y-74020500D01*
X133630500Y-74020500D01*
X134628500Y-74020500D01*
X136130500Y-74020500D01*
X137128500Y-74020500D01*
X138630500Y-74020500D01*
X139628500Y-74020500D01*
X141130500Y-74020500D01*
X142128500Y-74020500D01*
X143630500Y-74020500D01*
X144628500Y-74020500D01*
X146130500Y-74020500D01*
X147128500Y-74020500D01*
X148630500Y-74020500D01*
X149628500Y-74020500D01*
X151130500Y-74020500D01*
X152128500Y-74020500D01*
X153630500Y-74020500D01*
X154628500Y-74020500D01*
X156130500Y-74020500D01*
X157128500Y-74020500D01*
X158630500Y-74020500D01*
X159628500Y-74020500D01*
X161130500Y-74020500D01*
X162128500Y-74020500D01*
X163630500Y-74020500D01*
X164628500Y-74020500D01*
X166130500Y-74020500D01*
X167128500Y-74020500D01*
X168630500Y-74020500D01*
X169628500Y-74020500D01*
X171130500Y-74020500D01*
X172128500Y-74020500D01*
X173630500Y-74020500D01*
X174628500Y-74020500D01*
X176130500Y-74020500D01*
X177128500Y-74020500D01*
X178630500Y-74020500D01*
X179628500Y-74020500D01*
X181130500Y-74020500D01*
X182128500Y-74020500D01*
X183630500Y-74020500D01*
X184628500Y-74020500D01*
X186130500Y-74020500D01*
X187128500Y-74020500D01*
X188630500Y-74020500D01*
X189628500Y-74020500D01*
X191130500Y-74020500D01*
X192128500Y-74020500D01*
X193630500Y-74020500D01*
X194628500Y-74020500D01*
X196130500Y-74020500D01*
X197128500Y-74020500D01*
X198630500Y-74020500D01*
X199628500Y-74020500D01*
X201130500Y-74020500D01*
X202128500Y-74020500D01*
X203630500Y-74020500D01*
X204628500Y-74020500D01*
X206130500Y-74020500D01*
X207128500Y-74020500D01*
X208630500Y-74020500D01*
X209628500Y-74020500D01*
X211130500Y-74020500D01*
X212128500Y-74020500D01*
X213630500Y-74020500D01*
X214628500Y-74020500D01*
X216130500Y-74020500D01*
X217128500Y-74020500D01*
X218630500Y-74020500D01*
X219628500Y-74020500D01*
X221130500Y-74020500D01*
X222128500Y-74020500D01*
X223630500Y-74020500D01*
X223630500Y-72518500D01*
X222128500Y-72518500D01*
X222128500Y-74020500D01*
X221130500Y-74020500D01*
X221130500Y-72518500D01*
X219628500Y-72518500D01*
X219628500Y-74020500D01*
X218630500Y-74020500D01*
X218630500Y-72518500D01*
X217128500Y-72518500D01*
X217128500Y-74020500D01*
X216130500Y-74020500D01*
X216130500Y-72518500D01*
X214628500Y-72518500D01*
X214628500Y-74020500D01*
X213630500Y-74020500D01*
X213630500Y-72518500D01*
X212128500Y-72518500D01*
X212128500Y-74020500D01*
X211130500Y-74020500D01*
X211130500Y-72518500D01*
X209628500Y-72518500D01*
X209628500Y-74020500D01*
X208630500Y-74020500D01*
X208630500Y-72518500D01*
X207128500Y-72518500D01*
X207128500Y-74020500D01*
X206130500Y-74020500D01*
X206130500Y-72518500D01*
X204628500Y-72518500D01*
X204628500Y-74020500D01*
X203630500Y-74020500D01*
X203630500Y-72518500D01*
X202128500Y-72518500D01*
X202128500Y-74020500D01*
X201130500Y-74020500D01*
X201130500Y-72518500D01*
X199628500Y-72518500D01*
X199628500Y-74020500D01*
X198630500Y-74020500D01*
X198630500Y-72518500D01*
X197128500Y-72518500D01*
X197128500Y-74020500D01*
X196130500Y-74020500D01*
X196130500Y-72518500D01*
X194628500Y-72518500D01*
X194628500Y-74020500D01*
X193630500Y-74020500D01*
X193630500Y-72518500D01*
X192128500Y-72518500D01*
X192128500Y-74020500D01*
X191130500Y-74020500D01*
X191130500Y-72518500D01*
X189628500Y-72518500D01*
X189628500Y-74020500D01*
X188630500Y-74020500D01*
X188630500Y-72518500D01*
X187128500Y-72518500D01*
X187128500Y-74020500D01*
X186130500Y-74020500D01*
X186130500Y-72518500D01*
X184628500Y-72518500D01*
X184628500Y-74020500D01*
X183630500Y-74020500D01*
X183630500Y-72518500D01*
X182128500Y-72518500D01*
X182128500Y-74020500D01*
X181130500Y-74020500D01*
X181130500Y-72518500D01*
X179628500Y-72518500D01*
X179628500Y-74020500D01*
X178630500Y-74020500D01*
X178630500Y-72518500D01*
X177128500Y-72518500D01*
X177128500Y-74020500D01*
X176130500Y-74020500D01*
X176130500Y-72518500D01*
X174628500Y-72518500D01*
X174628500Y-74020500D01*
X173630500Y-74020500D01*
X173630500Y-72518500D01*
X172128500Y-72518500D01*
X172128500Y-74020500D01*
X171130500Y-74020500D01*
X171130500Y-72518500D01*
X169628500Y-72518500D01*
X169628500Y-74020500D01*
X168630500Y-74020500D01*
X168630500Y-72518500D01*
X167128500Y-72518500D01*
X167128500Y-74020500D01*
X166130500Y-74020500D01*
X166130500Y-72518500D01*
X164628500Y-72518500D01*
X164628500Y-74020500D01*
X163630500Y-74020500D01*
X163630500Y-72518500D01*
X162128500Y-72518500D01*
X162128500Y-74020500D01*
X161130500Y-74020500D01*
X161130500Y-72518500D01*
X159628500Y-72518500D01*
X159628500Y-74020500D01*
X158630500Y-74020500D01*
X158630500Y-72518500D01*
X157128500Y-72518500D01*
X157128500Y-74020500D01*
X156130500Y-74020500D01*
X156130500Y-72518500D01*
X154628500Y-72518500D01*
X154628500Y-74020500D01*
X153630500Y-74020500D01*
X153630500Y-72518500D01*
X152128500Y-72518500D01*
X152128500Y-74020500D01*
X151130500Y-74020500D01*
X151130500Y-72518500D01*
X149628500Y-72518500D01*
X149628500Y-74020500D01*
X148630500Y-74020500D01*
X148630500Y-72518500D01*
X147128500Y-72518500D01*
X147128500Y-74020500D01*
X146130500Y-74020500D01*
X146130500Y-72518500D01*
X144628500Y-72518500D01*
X144628500Y-74020500D01*
X143630500Y-74020500D01*
X143630500Y-72518500D01*
X142128500Y-72518500D01*
X142128500Y-74020500D01*
X141130500Y-74020500D01*
X141130500Y-72518500D01*
X139628500Y-72518500D01*
X139628500Y-74020500D01*
X138630500Y-74020500D01*
X138630500Y-72518500D01*
X137128500Y-72518500D01*
X137128500Y-74020500D01*
X136130500Y-74020500D01*
X136130500Y-72518500D01*
X134628500Y-72518500D01*
X134628500Y-74020500D01*
X133630500Y-74020500D01*
X133630500Y-72518500D01*
X132128500Y-72518500D01*
X132128500Y-74020500D01*
X131130500Y-74020500D01*
X131130500Y-72518500D01*
X129628500Y-72518500D01*
X129628500Y-74020500D01*
X128630500Y-74020500D01*
X128630500Y-72518500D01*
X127878500Y-72518500D01*
X127878500Y-74020500D01*
X126880500Y-74020500D01*
X126880500Y-70925250D01*
X129628500Y-70925250D01*
X129628500Y-71520500D01*
X131130500Y-71520500D01*
X132128500Y-71520500D01*
X133630500Y-71520500D01*
X134628500Y-71520500D01*
X136130500Y-71520500D01*
X137128500Y-71520500D01*
X138630500Y-71520500D01*
X139628500Y-71520500D01*
X141130500Y-71520500D01*
X142128500Y-71520500D01*
X143630500Y-71520500D01*
X144628500Y-71520500D01*
X146130500Y-71520500D01*
X147128500Y-71520500D01*
X148630500Y-71520500D01*
X149628500Y-71520500D01*
X151130500Y-71520500D01*
X152128500Y-71520500D01*
X153630500Y-71520500D01*
X154628500Y-71520500D01*
X156130500Y-71520500D01*
X157128500Y-71520500D01*
X158630500Y-71520500D01*
X159628500Y-71520500D01*
X161130500Y-71520500D01*
X162128500Y-71520500D01*
X163630500Y-71520500D01*
X164628500Y-71520500D01*
X166130500Y-71520500D01*
X167128500Y-71520500D01*
X168630500Y-71520500D01*
X169628500Y-71520500D01*
X171130500Y-71520500D01*
X172128500Y-71520500D01*
X173630500Y-71520500D01*
X174628500Y-71520500D01*
X176130500Y-71520500D01*
X177128500Y-71520500D01*
X178630500Y-71520500D01*
X179628500Y-71520500D01*
X181130500Y-71520500D01*
X182128500Y-71520500D01*
X183630500Y-71520500D01*
X184628500Y-71520500D01*
X186130500Y-71520500D01*
X187128500Y-71520500D01*
X188630500Y-71520500D01*
X189628500Y-71520500D01*
X191130500Y-71520500D01*
X192128500Y-71520500D01*
X193630500Y-71520500D01*
X194628500Y-71520500D01*
X196130500Y-71520500D01*
X197128500Y-71520500D01*
X198630500Y-71520500D01*
X199628500Y-71520500D01*
X201130500Y-71520500D01*
X202128500Y-71520500D01*
X203630500Y-71520500D01*
X204628500Y-71520500D01*
X206130500Y-71520500D01*
X207128500Y-71520500D01*
X208630500Y-71520500D01*
X209628500Y-71520500D01*
X211130500Y-71520500D01*
X212128500Y-71520500D01*
X213630500Y-71520500D01*
X214628500Y-71520500D01*
X216130500Y-71520500D01*
X217128500Y-71520500D01*
X218630500Y-71520500D01*
X219628500Y-71520500D01*
X221130500Y-71520500D01*
X222128500Y-71520500D01*
X223630500Y-71520500D01*
X223630500Y-71270603D01*
X223612406Y-71272859D01*
X223607310Y-71273387D01*
X223566188Y-71276795D01*
X223561070Y-71277113D01*
X223530090Y-71278394D01*
X223524967Y-71278500D01*
X223235033Y-71278500D01*
X223229910Y-71278394D01*
X223198930Y-71277113D01*
X223193812Y-71276795D01*
X223152690Y-71273387D01*
X223147594Y-71272859D01*
X223116826Y-71269024D01*
X223111754Y-71268285D01*
X222825776Y-71220565D01*
X222820739Y-71219617D01*
X222790396Y-71213255D01*
X222785405Y-71212100D01*
X222745402Y-71201971D01*
X222740458Y-71200610D01*
X222710734Y-71191761D01*
X222705852Y-71190197D01*
X222431627Y-71096054D01*
X222426816Y-71094291D01*
X222397935Y-71083022D01*
X222393202Y-71081061D01*
X222355414Y-71064487D01*
X222350760Y-71062330D01*
X222322898Y-71048709D01*
X222318341Y-71046364D01*
X222128500Y-70943626D01*
X222128500Y-71520500D01*
X221130500Y-71520500D01*
X221130500Y-70018500D01*
X219628500Y-70018500D01*
X219628500Y-71520500D01*
X218630500Y-71520500D01*
X218630500Y-70018500D01*
X217128500Y-70018500D01*
X217128500Y-71520500D01*
X216130500Y-71520500D01*
X216130500Y-70018500D01*
X214628500Y-70018500D01*
X214628500Y-71520500D01*
X213630500Y-71520500D01*
X213630500Y-70018500D01*
X212128500Y-70018500D01*
X212128500Y-71520500D01*
X211130500Y-71520500D01*
X211130500Y-70018500D01*
X209628500Y-70018500D01*
X209628500Y-71520500D01*
X208630500Y-71520500D01*
X208630500Y-70018500D01*
X207128500Y-70018500D01*
X207128500Y-71520500D01*
X206130500Y-71520500D01*
X206130500Y-70018500D01*
X204628500Y-70018500D01*
X204628500Y-71520500D01*
X203630500Y-71520500D01*
X203630500Y-70018500D01*
X202128500Y-70018500D01*
X202128500Y-71520500D01*
X201130500Y-71520500D01*
X201130500Y-70018500D01*
X199628500Y-70018500D01*
X199628500Y-71520500D01*
X198630500Y-71520500D01*
X198630500Y-70018500D01*
X197128500Y-70018500D01*
X197128500Y-71520500D01*
X196130500Y-71520500D01*
X196130500Y-70018500D01*
X194628500Y-70018500D01*
X194628500Y-71520500D01*
X193630500Y-71520500D01*
X193630500Y-70018500D01*
X192128500Y-70018500D01*
X192128500Y-71520500D01*
X191130500Y-71520500D01*
X191130500Y-70018500D01*
X189628500Y-70018500D01*
X189628500Y-71520500D01*
X188630500Y-71520500D01*
X188630500Y-70018500D01*
X187128500Y-70018500D01*
X187128500Y-71520500D01*
X186130500Y-71520500D01*
X186130500Y-70018500D01*
X184628500Y-70018500D01*
X184628500Y-71520500D01*
X183630500Y-71520500D01*
X183630500Y-70018500D01*
X182128500Y-70018500D01*
X182128500Y-71520500D01*
X181130500Y-71520500D01*
X181130500Y-70018500D01*
X179628500Y-70018500D01*
X179628500Y-71520500D01*
X178630500Y-71520500D01*
X178630500Y-70018500D01*
X177128500Y-70018500D01*
X177128500Y-71520500D01*
X176130500Y-71520500D01*
X176130500Y-70018500D01*
X174628500Y-70018500D01*
X174628500Y-71520500D01*
X173630500Y-71520500D01*
X173630500Y-70018500D01*
X172128500Y-70018500D01*
X172128500Y-71520500D01*
X171130500Y-71520500D01*
X171130500Y-70018500D01*
X169628500Y-70018500D01*
X169628500Y-71520500D01*
X168630500Y-71520500D01*
X168630500Y-70018500D01*
X167128500Y-70018500D01*
X167128500Y-71520500D01*
X166130500Y-71520500D01*
X166130500Y-70018500D01*
X164628500Y-70018500D01*
X164628500Y-71520500D01*
X163630500Y-71520500D01*
X163630500Y-70018500D01*
X162128500Y-70018500D01*
X162128500Y-71520500D01*
X161130500Y-71520500D01*
X161130500Y-70018500D01*
X159628500Y-70018500D01*
X159628500Y-71520500D01*
X158630500Y-71520500D01*
X158630500Y-70018500D01*
X157128500Y-70018500D01*
X157128500Y-71520500D01*
X156130500Y-71520500D01*
X156130500Y-70018500D01*
X154628500Y-70018500D01*
X154628500Y-71520500D01*
X153630500Y-71520500D01*
X153630500Y-70018500D01*
X152128500Y-70018500D01*
X152128500Y-71520500D01*
X151130500Y-71520500D01*
X151130500Y-70018500D01*
X149628500Y-70018500D01*
X149628500Y-71520500D01*
X148630500Y-71520500D01*
X148630500Y-70018500D01*
X147128500Y-70018500D01*
X147128500Y-71520500D01*
X146130500Y-71520500D01*
X146130500Y-70018500D01*
X144628500Y-70018500D01*
X144628500Y-71520500D01*
X143630500Y-71520500D01*
X143630500Y-70018500D01*
X142128500Y-70018500D01*
X142128500Y-71520500D01*
X141130500Y-71520500D01*
X141130500Y-70018500D01*
X139628500Y-70018500D01*
X139628500Y-71520500D01*
X138630500Y-71520500D01*
X138630500Y-70018500D01*
X137128500Y-70018500D01*
X137128500Y-71520500D01*
X136130500Y-71520500D01*
X136130500Y-70018500D01*
X134628500Y-70018500D01*
X134628500Y-71520500D01*
X133630500Y-71520500D01*
X133630500Y-70018500D01*
X132128500Y-70018500D01*
X132128500Y-71520500D01*
X131130500Y-71520500D01*
X131130500Y-70018500D01*
X130542253Y-70018500D01*
X130392370Y-70247915D01*
X130389477Y-70252149D01*
X130371452Y-70277394D01*
X130368387Y-70281504D01*
X130343040Y-70314068D01*
X130339810Y-70318046D01*
X130319777Y-70341698D01*
X130316386Y-70345538D01*
X130120026Y-70558841D01*
X130116477Y-70562539D01*
X130094560Y-70584456D01*
X130090864Y-70588003D01*
X130060506Y-70615951D01*
X130056665Y-70619343D01*
X130032996Y-70639391D01*
X130029014Y-70642625D01*
X129800221Y-70820701D01*
X129796117Y-70823761D01*
X129770903Y-70841765D01*
X129766673Y-70844656D01*
X129732130Y-70867227D01*
X129727780Y-70869942D01*
X129701122Y-70885828D01*
X129696662Y-70888363D01*
X129628500Y-70925250D01*
X126880500Y-70925250D01*
X126880500Y-69624758D01*
X126900185Y-69557719D01*
X126952989Y-69511964D01*
X127022147Y-69502020D01*
X127085703Y-69531045D01*
X127108309Y-69556937D01*
X127191833Y-69684782D01*
X127210247Y-69704785D01*
X127360256Y-69867738D01*
X127556491Y-70020474D01*
X127775190Y-70138828D01*
X128010386Y-70219571D01*
X128255665Y-70260500D01*
X128504335Y-70260500D01*
X128749614Y-70219571D01*
X128984810Y-70138828D01*
X129203509Y-70020474D01*
X129399744Y-69867738D01*
X129568164Y-69684785D01*
X129704173Y-69476607D01*
X129804063Y-69248881D01*
X129861897Y-69020500D01*
X132128500Y-69020500D01*
X133630500Y-69020500D01*
X134628500Y-69020500D01*
X136130500Y-69020500D01*
X137128500Y-69020500D01*
X138630500Y-69020500D01*
X139628500Y-69020500D01*
X141130500Y-69020500D01*
X142128500Y-69020500D01*
X143630500Y-69020500D01*
X144628500Y-69020500D01*
X146130500Y-69020500D01*
X147128500Y-69020500D01*
X148630500Y-69020500D01*
X149628500Y-69020500D01*
X151130500Y-69020500D01*
X152128500Y-69020500D01*
X153630500Y-69020500D01*
X154628500Y-69020500D01*
X156130500Y-69020500D01*
X157128500Y-69020500D01*
X158630500Y-69020500D01*
X159628500Y-69020500D01*
X161130500Y-69020500D01*
X162128500Y-69020500D01*
X163630500Y-69020500D01*
X164628500Y-69020500D01*
X166130500Y-69020500D01*
X167128500Y-69020500D01*
X168630500Y-69020500D01*
X169628500Y-69020500D01*
X171130500Y-69020500D01*
X172128500Y-69020500D01*
X173630500Y-69020500D01*
X174628500Y-69020500D01*
X176130500Y-69020500D01*
X177128500Y-69020500D01*
X178630500Y-69020500D01*
X179628500Y-69020500D01*
X181130500Y-69020500D01*
X182128500Y-69020500D01*
X183630500Y-69020500D01*
X184628500Y-69020500D01*
X186130500Y-69020500D01*
X187128500Y-69020500D01*
X188630500Y-69020500D01*
X189628500Y-69020500D01*
X191130500Y-69020500D01*
X192128500Y-69020500D01*
X193630500Y-69020500D01*
X194628500Y-69020500D01*
X196130500Y-69020500D01*
X197128500Y-69020500D01*
X198630500Y-69020500D01*
X199628500Y-69020500D01*
X201130500Y-69020500D01*
X202128500Y-69020500D01*
X203630500Y-69020500D01*
X204628500Y-69020500D01*
X206130500Y-69020500D01*
X207128500Y-69020500D01*
X208630500Y-69020500D01*
X209628500Y-69020500D01*
X211130500Y-69020500D01*
X212128500Y-69020500D01*
X213630500Y-69020500D01*
X214628500Y-69020500D01*
X216130500Y-69020500D01*
X217128500Y-69020500D01*
X218630500Y-69020500D01*
X219628500Y-69020500D01*
X220892865Y-69020500D01*
X220878062Y-68841853D01*
X220877744Y-68836736D01*
X220876463Y-68805755D01*
X220876357Y-68800632D01*
X220876357Y-68759368D01*
X220876463Y-68754245D01*
X220877744Y-68723264D01*
X220878062Y-68718147D01*
X220902004Y-68429210D01*
X220902532Y-68424115D01*
X220906365Y-68393360D01*
X220907104Y-68388288D01*
X220913895Y-68347586D01*
X220914842Y-68342551D01*
X220921207Y-68312189D01*
X220922363Y-68307190D01*
X220932161Y-68268500D01*
X219628500Y-68268500D01*
X219628500Y-69020500D01*
X218630500Y-69020500D01*
X218630500Y-68268500D01*
X217128500Y-68268500D01*
X217128500Y-69020500D01*
X216130500Y-69020500D01*
X216130500Y-68268500D01*
X214628500Y-68268500D01*
X214628500Y-69020500D01*
X213630500Y-69020500D01*
X213630500Y-68268500D01*
X212128500Y-68268500D01*
X212128500Y-69020500D01*
X211130500Y-69020500D01*
X211130500Y-68268500D01*
X209628500Y-68268500D01*
X209628500Y-69020500D01*
X208630500Y-69020500D01*
X208630500Y-68268500D01*
X207128500Y-68268500D01*
X207128500Y-69020500D01*
X206130500Y-69020500D01*
X206130500Y-68268500D01*
X204628500Y-68268500D01*
X204628500Y-69020500D01*
X203630500Y-69020500D01*
X203630500Y-68268500D01*
X202128500Y-68268500D01*
X202128500Y-69020500D01*
X201130500Y-69020500D01*
X201130500Y-68268500D01*
X199628500Y-68268500D01*
X199628500Y-69020500D01*
X198630500Y-69020500D01*
X198630500Y-68268500D01*
X197128500Y-68268500D01*
X197128500Y-69020500D01*
X196130500Y-69020500D01*
X196130500Y-68268500D01*
X194628500Y-68268500D01*
X194628500Y-69020500D01*
X193630500Y-69020500D01*
X193630500Y-68268500D01*
X192128500Y-68268500D01*
X192128500Y-69020500D01*
X191130500Y-69020500D01*
X191130500Y-68268500D01*
X189628500Y-68268500D01*
X189628500Y-69020500D01*
X188630500Y-69020500D01*
X188630500Y-68268500D01*
X187128500Y-68268500D01*
X187128500Y-69020500D01*
X186130500Y-69020500D01*
X186130500Y-68268500D01*
X184628500Y-68268500D01*
X184628500Y-69020500D01*
X183630500Y-69020500D01*
X183630500Y-68268500D01*
X182128500Y-68268500D01*
X182128500Y-69020500D01*
X181130500Y-69020500D01*
X181130500Y-68268500D01*
X179628500Y-68268500D01*
X179628500Y-69020500D01*
X178630500Y-69020500D01*
X178630500Y-68268500D01*
X177128500Y-68268500D01*
X177128500Y-69020500D01*
X176130500Y-69020500D01*
X176130500Y-68268500D01*
X174628500Y-68268500D01*
X174628500Y-69020500D01*
X173630500Y-69020500D01*
X173630500Y-68268500D01*
X172128500Y-68268500D01*
X172128500Y-69020500D01*
X171130500Y-69020500D01*
X171130500Y-68268500D01*
X169628500Y-68268500D01*
X169628500Y-69020500D01*
X168630500Y-69020500D01*
X168630500Y-68268500D01*
X167128500Y-68268500D01*
X167128500Y-69020500D01*
X166130500Y-69020500D01*
X166130500Y-68268500D01*
X164628500Y-68268500D01*
X164628500Y-69020500D01*
X163630500Y-69020500D01*
X163630500Y-68268500D01*
X162128500Y-68268500D01*
X162128500Y-69020500D01*
X161130500Y-69020500D01*
X161130500Y-68268500D01*
X159628500Y-68268500D01*
X159628500Y-69020500D01*
X158630500Y-69020500D01*
X158630500Y-68268500D01*
X157128500Y-68268500D01*
X157128500Y-69020500D01*
X156130500Y-69020500D01*
X156130500Y-68268500D01*
X154628500Y-68268500D01*
X154628500Y-69020500D01*
X153630500Y-69020500D01*
X153630500Y-68268500D01*
X152128500Y-68268500D01*
X152128500Y-69020500D01*
X151130500Y-69020500D01*
X151130500Y-68268500D01*
X149628500Y-68268500D01*
X149628500Y-69020500D01*
X148630500Y-69020500D01*
X148630500Y-68268500D01*
X147128500Y-68268500D01*
X147128500Y-69020500D01*
X146130500Y-69020500D01*
X146130500Y-68268500D01*
X144628500Y-68268500D01*
X144628500Y-69020500D01*
X143630500Y-69020500D01*
X143630500Y-68268500D01*
X142128500Y-68268500D01*
X142128500Y-69020500D01*
X141130500Y-69020500D01*
X141130500Y-68268500D01*
X139628500Y-68268500D01*
X139628500Y-69020500D01*
X138630500Y-69020500D01*
X138630500Y-68268500D01*
X137128500Y-68268500D01*
X137128500Y-69020500D01*
X136130500Y-69020500D01*
X136130500Y-68268500D01*
X134628500Y-68268500D01*
X134628500Y-69020500D01*
X133630500Y-69020500D01*
X133630500Y-68268500D01*
X132128500Y-68268500D01*
X132128500Y-69020500D01*
X129861897Y-69020500D01*
X129865108Y-69007821D01*
X129872325Y-68920725D01*
X129885643Y-68760005D01*
X129885643Y-68759994D01*
X129865109Y-68512187D01*
X129865107Y-68512175D01*
X129804063Y-68271118D01*
X129704173Y-68043393D01*
X129568166Y-67835217D01*
X129546557Y-67811744D01*
X129399744Y-67652262D01*
X129203509Y-67499526D01*
X129203506Y-67499524D01*
X129203503Y-67499522D01*
X129201640Y-67498305D01*
X129201048Y-67497611D01*
X129199462Y-67496377D01*
X129199716Y-67496050D01*
X129156286Y-67445157D01*
X129146866Y-67375925D01*
X129176371Y-67312591D01*
X129235433Y-67275262D01*
X129269467Y-67270500D01*
X222526985Y-67270500D01*
X222594024Y-67290185D01*
G37*
%TD.AperFunction*%
%TD*%
M02*
