%TF.GenerationSoftware,KiCad,Pcbnew,8.0.6*%
%TF.CreationDate,2024-11-11T19:11:30+01:00*%
%TF.ProjectId,touch-pad,746f7563-682d-4706-9164-2e6b69636164,rev?*%
%TF.SameCoordinates,Original*%
%TF.FileFunction,Copper,L1,Top*%
%TF.FilePolarity,Positive*%
%FSLAX46Y46*%
G04 Gerber Fmt 4.6, Leading zero omitted, Abs format (unit mm)*
G04 Created by KiCad (PCBNEW 8.0.6) date 2024-11-11 19:11:30*
%MOMM*%
%LPD*%
G01*
G04 APERTURE LIST*
%TA.AperFunction,Conductor*%
%ADD10C,0.200000*%
%TD*%
%TA.AperFunction,ComponentPad*%
%ADD11R,1.700000X1.700000*%
%TD*%
G04 APERTURE END LIST*
D10*
%TO.N,GPIO4_T*%
X195732500Y-96785000D02*
X184755000Y-126220000D01*
X184755000Y-67210000D01*
X195732500Y-96785000D01*
%TA.AperFunction,Conductor*%
G36*
X195732500Y-96785000D02*
G01*
X184755000Y-126220000D01*
X184755000Y-67210000D01*
X195732500Y-96785000D01*
G37*
%TD.AperFunction*%
%TO.N,GPIO32*%
X174766250Y-96750000D02*
X164777500Y-126220000D01*
X164777500Y-67210000D01*
X174766250Y-96750000D01*
%TA.AperFunction,Conductor*%
G36*
X174766250Y-96750000D02*
G01*
X164777500Y-126220000D01*
X164777500Y-67210000D01*
X174766250Y-96750000D01*
G37*
%TD.AperFunction*%
%TO.N,GPIO2*%
X126800000Y-67210000D02*
X144800000Y-67210000D01*
X144800000Y-126220000D01*
X126800000Y-126220000D01*
X126800000Y-67210000D01*
%TA.AperFunction,Conductor*%
G36*
X126800000Y-67210000D02*
G01*
X144800000Y-67210000D01*
X144800000Y-126220000D01*
X126800000Y-126220000D01*
X126800000Y-67210000D01*
G37*
%TD.AperFunction*%
%TO.N,GPIO4_T*%
X186732500Y-96885000D02*
X184755000Y-96815000D01*
%TO.N,GPIO33*%
X215710000Y-96785000D02*
X204732500Y-126220000D01*
X204732500Y-67210000D01*
X215710000Y-96785000D01*
%TA.AperFunction,Conductor*%
G36*
X215710000Y-96785000D02*
G01*
X204732500Y-126220000D01*
X204732500Y-67210000D01*
X215710000Y-96785000D01*
G37*
%TD.AperFunction*%
%TO.N,GPIO2*%
X126800000Y-96715000D02*
X146777500Y-96745000D01*
%TO.N,GPIO32*%
X164777500Y-126220000D02*
X146777500Y-126220000D01*
X157777500Y-96715000D01*
X146777500Y-67210000D01*
X164777500Y-67210000D01*
X164777500Y-126220000D01*
%TA.AperFunction,Conductor*%
G36*
X164777500Y-126220000D02*
G01*
X146777500Y-126220000D01*
X157777500Y-96715000D01*
X146777500Y-67210000D01*
X164777500Y-67210000D01*
X164777500Y-126220000D01*
G37*
%TD.AperFunction*%
%TO.N,GPIO2*%
X155777500Y-96745000D02*
X144800000Y-126220000D01*
X144800000Y-67210000D01*
X155777500Y-96745000D01*
%TA.AperFunction,Conductor*%
G36*
X155777500Y-96745000D02*
G01*
X144800000Y-126220000D01*
X144800000Y-67210000D01*
X155777500Y-96745000D01*
G37*
%TD.AperFunction*%
%TO.N,GPIO33*%
X204732500Y-126220000D02*
X186732500Y-126220000D01*
X197732500Y-96715000D01*
X186732500Y-67210000D01*
X204732500Y-67210000D01*
X204732500Y-126220000D01*
%TA.AperFunction,Conductor*%
G36*
X204732500Y-126220000D02*
G01*
X186732500Y-126220000D01*
X197732500Y-96715000D01*
X186732500Y-67210000D01*
X204732500Y-67210000D01*
X204732500Y-126220000D01*
G37*
%TD.AperFunction*%
%TO.N,GPIO27*%
X224710000Y-126220000D02*
X206710000Y-126220000D01*
X217710000Y-96715000D01*
X206710000Y-67210000D01*
X224710000Y-67210000D01*
X224710000Y-126220000D01*
%TA.AperFunction,Conductor*%
G36*
X224710000Y-126220000D02*
G01*
X206710000Y-126220000D01*
X217710000Y-96715000D01*
X206710000Y-67210000D01*
X224710000Y-67210000D01*
X224710000Y-126220000D01*
G37*
%TD.AperFunction*%
%TO.N,GPIO4_T*%
X184755000Y-126220000D02*
X166755000Y-126220000D01*
X176766250Y-96680000D01*
X166755000Y-67210000D01*
X184755000Y-67210000D01*
X184755000Y-126220000D01*
%TA.AperFunction,Conductor*%
G36*
X184755000Y-126220000D02*
G01*
X166755000Y-126220000D01*
X176766250Y-96680000D01*
X166755000Y-67210000D01*
X184755000Y-67210000D01*
X184755000Y-126220000D01*
G37*
%TD.AperFunction*%
%TD*%
D11*
%TO.P,J1,1,Pin_1*%
%TO.N,GPIO4_T*%
X175755000Y-122540000D03*
%TD*%
%TO.P,J2,1,Pin_1*%
%TO.N,GPIO33*%
X196770000Y-122540000D03*
%TD*%
%TO.P,J3,1,Pin_1*%
%TO.N,GPIO32*%
X155777500Y-122540000D03*
%TD*%
%TO.P,J4,1,Pin_1*%
%TO.N,GPIO27*%
X215710000Y-122540000D03*
%TD*%
%TO.P,J5,1,Pin_1*%
%TO.N,GPIO2*%
X135800000Y-122540000D03*
%TD*%
M02*
