<?xml version="1.0" encoding="UTF-8" standalone="no"?>
<!-- Created with Inkscape (http://www.inkscape.org/) -->

<svg
   width="512"
   height="512"
   viewBox="0 0 135.46667 135.46667"
   version="1.1"
   id="svg5"
   inkscape:version="1.4 (e7c3feb100, 2024-10-09)"
   sodipodi:docname="house_humidity.svg"
   xmlns:inkscape="http://www.inkscape.org/namespaces/inkscape"
   xmlns:sodipodi="http://sodipodi.sourceforge.net/DTD/sodipodi-0.dtd"
   xmlns="http://www.w3.org/2000/svg"
   xmlns:svg="http://www.w3.org/2000/svg">
  <sodipodi:namedview
     id="namedview7"
     pagecolor="#ffffff"
     bordercolor="#666666"
     borderopacity="1.0"
     inkscape:pageshadow="2"
     inkscape:pageopacity="0.0"
     inkscape:pagecheckerboard="0"
     inkscape:document-units="px"
     showgrid="false"
     units="px"
     height="1200px"
     inkscape:zoom="3.6209493"
     inkscape:cx="206.43758"
     inkscape:cy="288.73644"
     inkscape:window-width="1902"
     inkscape:window-height="1020"
     inkscape:window-x="0"
     inkscape:window-y="0"
     inkscape:window-maximized="0"
     inkscape:current-layer="layer1"
     inkscape:showpageshadow="2"
     inkscape:deskcolor="#d1d1d1" />
  <defs
     id="defs2" />
  <g
     inkscape:label="Layer 1"
     inkscape:groupmode="layer"
     id="layer1">
    <g
       id="g23"
       transform="matrix(0.20668555,0,0,0.20668555,14.821834,14.829551)">
      <path
         class="st0"
         d="M 51.2,440.2 V 218.3 h 34.1 v 221.8 c 0,9.4 7.6,17.1 17.1,17.1 h 307.2 c 9.4,0 17.1,-7.6 17.1,-17.1 V 218.3 h 34.1 v 221.8 c 0,28.3 -22.9,51.2 -51.2,51.2 H 102.4 C 74.1,491.4 51.2,468.4 51.2,440.2 Z M 426.7,64.7 V 184.2 L 358.4,115.9 V 64.7 c 0,-9.4 7.6,-17.1 17.1,-17.1 h 34.1 c 9.4,0.1 17.1,7.7 17.1,17.1 z"
         id="path19" />
      <path
         class="st0"
         d="m 231.9,30.6 c 13.3,-13.3 34.9,-13.3 48.3,0 L 507,257.4 c 6.7,6.7 6.7,17.5 0,24.2 -6.7,6.7 -17.5,6.7 -24.2,0 L 256,54.8 29.2,281.6 c -6.7,6.7 -17.5,6.7 -24.2,0 -6.7,-6.7 -6.7,-17.5 0,-24.2 z"
         id="path21" />
    </g>
    <path
       d="m 47.36785,80.823582 c 0,-2.418567 0.659612,-5.194428 1.978842,-8.327578 c 1.319222,-3.13315 3.023208,-6.183855 5.111983,-9.097133 c 4.28747,-5.661661 8.025261,-9.949141 11.158411,-12.834924 l 2.061278,-1.978839 c 0.687138,0.714561 1.456649,1.374192 2.281161,1.978839 c 1.126836,1.15432 2.858308,3.050696 5.166946,5.74411 c 2.308636,2.693402 4.314954,5.084498 5.963981,7.283203 c 1.951346,2.77586 3.627859,5.771594 4.974565,8.932221 c 1.346708,3.160633 2.033803,5.936494 2.033803,8.327589 c 0,2.748374 -0.522183,5.359342 -1.594065,7.860355 c -1.071862,2.501026 -2.501027,4.672256 -4.314954,6.486182 c -1.813932,1.813936 -3.985141,3.270575 -6.513653,4.342456 c -2.528509,1.071877 -5.194439,1.621547 -7.997784,1.621547 c -2.748377,0 -5.359335,-0.52218 -7.860358,-1.566577 C 57.31698,98.550635 55.145759,97.148946 53.331832,95.335011 C 51.517901,93.548582 50.061264,91.377355 48.989402,88.87633 C 47.917529,86.375315 47.36785,83.6819 47.36785,80.823582 Z"
       id="path152"
       style="fill:#000000;stroke-width:2.74837"
       sodipodi:nodetypes="ssccccscssssssscss" />
  </g>
  <style
     type="text/css"
     id="style17">
	.st0{fill-rule:evenodd;clip-rule:evenodd;}
</style>
</svg>
