<?xml version="1.0" encoding="UTF-8" standalone="no"?>
<!-- Created with Inkscape (http://www.inkscape.org/) -->

<svg
   width="512"
   height="512"
   viewBox="0 0 135.46667 135.46667"
   version="1.1"
   id="svg5"
   inkscape:version="1.4 (e7c3feb100, 2024-10-09)"
   sodipodi:docname="house_thermometer.svg"
   xmlns:inkscape="http://www.inkscape.org/namespaces/inkscape"
   xmlns:sodipodi="http://sodipodi.sourceforge.net/DTD/sodipodi-0.dtd"
   xmlns="http://www.w3.org/2000/svg"
   xmlns:svg="http://www.w3.org/2000/svg">
  <sodipodi:namedview
     id="namedview7"
     pagecolor="#ffffff"
     bordercolor="#666666"
     borderopacity="1.0"
     inkscape:pageshadow="2"
     inkscape:pageopacity="0.0"
     inkscape:pagecheckerboard="0"
     inkscape:document-units="px"
     showgrid="false"
     units="px"
     height="1200px"
     inkscape:zoom="1.5903792"
     inkscape:cx="279.49309"
     inkscape:cy="283.26577"
     inkscape:window-width="1902"
     inkscape:window-height="1020"
     inkscape:window-x="0"
     inkscape:window-y="0"
     inkscape:window-maximized="0"
     inkscape:current-layer="layer1"
     inkscape:showpageshadow="2"
     inkscape:deskcolor="#d1d1d1" />
  <defs
     id="defs2" />
  <g
     inkscape:label="Layer 1"
     inkscape:groupmode="layer"
     id="layer1">
    <path
       d="m 54.692368,88.773264 c 0,-2.17772 0.512449,-4.201737 1.511622,-6.097661 c 0.999215,-1.896024 2.408352,-3.458829 4.22743,-4.714281 V 52.545578 c 0,-2.049694 0.691788,-3.791932 2.100902,-5.201067 c 1.409143,-1.40914 3.151349,-2.152147 5.201012,-2.152147 c 2.075289,0 3.817492,0.717549 5.226637,2.126587 c 1.409143,1.434695 2.126522,3.151274 2.126522,5.200966 v 25.415829 c 1.819072,1.255367 3.202594,2.843833 4.201807,4.714197 c 0.999205,1.870348 1.486003,3.919943 1.486003,6.097745 c 0,2.357115 -0.58924,4.560477 -1.742209,6.558852 c -1.152937,1.998487 -2.741429,3.586983 -4.739847,4.73989 c -1.998423,1.15293 -4.17618,1.74227 -6.558914,1.74227 c -2.357112,0 -4.534868,-0.58972 -6.53329,-1.74227 c -1.998417,-1.152907 -3.586912,-2.741403 -4.765458,-4.73989 c -1.178562,-1.998375 -1.742217,-4.176177 -1.742217,-6.533276 z"
       id="path9"
       style="stroke-width:2.56206"
       sodipodi:nodetypes="sscscscscsscssccs" />
    <g
       id="g23"
       transform="matrix(0.20668555,0,0,0.20668555,14.821834,14.829551)">
      <path
         class="st0"
         d="M 51.2,440.2 V 218.3 h 34.1 v 221.8 c 0,9.4 7.6,17.1 17.1,17.1 h 307.2 c 9.4,0 17.1,-7.6 17.1,-17.1 V 218.3 h 34.1 v 221.8 c 0,28.3 -22.9,51.2 -51.2,51.2 H 102.4 C 74.1,491.4 51.2,468.4 51.2,440.2 Z M 426.7,64.7 V 184.2 L 358.4,115.9 V 64.7 c 0,-9.4 7.6,-17.1 17.1,-17.1 h 34.1 c 9.4,0.1 17.1,7.7 17.1,17.1 z"
         id="path19" />
      <path
         class="st0"
         d="m 231.9,30.6 c 13.3,-13.3 34.9,-13.3 48.3,0 L 507,257.4 c 6.7,6.7 6.7,17.5 0,24.2 -6.7,6.7 -17.5,6.7 -24.2,0 L 256,54.8 29.2,281.6 c -6.7,6.7 -17.5,6.7 -24.2,0 -6.7,-6.7 -6.7,-17.5 0,-24.2 z"
         id="path21" />
    </g>
  </g>
  <style
     type="text/css"
     id="style17">
	.st0{fill-rule:evenodd;clip-rule:evenodd;}
</style>
</svg>
